<svg width="149" height="97" viewBox="0 0 149 97" fill="none" xmlns="http://www.w3.org/2000/svg">
<path d="M51.85 92.92L52.3171 93.8042L52.3231 93.801L51.85 92.92ZM18.7 92.92L18.22 93.7973L18.2298 93.8026L18.2397 93.8078L18.7 92.92ZM7.91 82.39L7.04382 82.8897L7.91 82.39ZM2.19 67.18L1.21242 67.3906L2.19 67.18ZM2.19 29.61L3.16691 29.8237L3.16758 29.8206L2.19 29.61ZM7.91 14.53L8.77197 15.037L8.77619 15.0297L7.91 14.53ZM18.7 4.12999L18.2397 3.24221L18.2329 3.2458L18.7 4.12999ZM51.85 4.12999L51.3829 5.01421L51.3897 5.01775L51.85 4.12999ZM62.77 14.53L61.9038 15.0297L61.9081 15.037L62.77 14.53ZM68.49 29.61L67.5124 29.8206L67.5131 29.8237L68.49 29.61ZM68.49 67.18L67.5124 66.9694L68.49 67.18ZM62.77 82.39L63.6362 82.8897L62.77 82.39ZM51.3829 92.0358C46.9634 94.3706 41.6281 95.56 35.34 95.56V97.56C41.8785 97.56 47.5499 96.3227 52.3171 93.8042L51.3829 92.0358ZM35.34 95.56C29.0526 95.56 23.6705 94.3708 19.1603 92.0322L18.2397 93.8078C23.0895 96.3225 28.8007 97.56 35.34 97.56V95.56ZM19.18 92.0427C14.7465 89.6169 11.2839 86.237 8.77619 81.8903L7.04382 82.8897C9.73609 87.5563 13.4668 91.1965 18.22 93.7973L19.18 92.0427ZM8.77619 81.8903C6.23338 77.4827 4.36137 72.512 3.16758 66.9694L1.21242 67.3906C2.4453 73.1146 4.38662 78.2839 7.04382 82.8897L8.77619 81.8903ZM3.16758 66.9694C1.9718 61.4176 1.37 55.2063 1.37 48.33H-0.63C-0.63 55.3203 -0.0184622 61.6758 1.21242 67.3906L3.16758 66.9694ZM1.37 48.33C1.37 41.4534 1.97185 35.2868 3.1669 29.8237L1.2131 29.3963C-0.0185189 35.0266 -0.63 41.34 -0.63 48.33H1.37ZM3.16758 29.8206C4.36119 24.2788 6.2323 19.3544 8.77194 15.037L7.04807 14.023C4.3877 18.5456 2.44548 23.6745 1.21242 29.3994L3.16758 29.8206ZM8.77619 15.0297C11.2822 10.686 14.7406 7.35271 19.1671 5.01419L18.2329 3.2458C13.4727 5.76062 9.73781 9.36068 7.04382 14.0303L8.77619 15.0297ZM19.1603 5.01775C23.6705 2.67914 29.0526 1.48999 35.34 1.48999V-0.510008C28.8007 -0.510008 23.0895 0.72751 18.2397 3.24224L19.1603 5.01775ZM35.34 1.48999C41.6281 1.48999 46.9634 2.67939 51.3829 5.01419L52.3171 3.2458C47.5499 0.727262 41.8785 -0.510008 35.34 -0.510008V1.48999ZM51.3897 5.01775C55.9025 7.35772 59.4006 10.6908 61.9038 15.0297L63.6362 14.0303C60.9394 9.35585 57.1575 5.7556 52.3103 3.24224L51.3897 5.01775ZM61.9081 15.037C64.4477 19.3544 66.3188 24.2788 67.5124 29.8206L69.4676 29.3994C68.2345 23.6745 66.2923 18.5456 63.6319 14.023L61.9081 15.037ZM67.5131 29.8237C68.7082 35.2868 69.31 41.4534 69.31 48.33H71.31C71.31 41.34 70.6985 35.0266 69.4669 29.3963L67.5131 29.8237ZM69.31 48.33C69.31 55.2063 68.7082 61.4176 67.5124 66.9694L69.4676 67.3906C70.6985 61.6758 71.31 55.3203 71.31 48.33H69.31ZM67.5124 66.9694C66.3186 72.512 64.4466 77.4827 61.9038 81.8903L63.6362 82.8897C66.2934 78.2839 68.2347 73.1146 69.4676 67.3906L67.5124 66.9694ZM61.9038 81.8903C59.3988 86.2322 55.8966 89.6118 51.3769 92.039L52.3231 93.801C57.1634 91.2016 60.9412 87.5611 63.6362 82.8897L61.9038 81.8903ZM22.77 48.33C22.77 57.5133 23.7339 64.5326 25.7411 69.2911C26.749 71.6807 28.0418 73.5529 29.6581 74.8302C31.2895 76.1194 33.1978 76.76 35.34 76.76V74.76C33.6255 74.76 32.1593 74.2577 30.8982 73.261C29.622 72.2525 28.5043 70.696 27.5839 68.5139C25.7344 64.1291 24.77 57.4333 24.77 48.33H22.77ZM35.34 76.76C37.4822 76.76 39.3905 76.1194 41.0219 74.8302C42.6382 73.5529 43.931 71.6807 44.9389 69.2911C46.9461 64.5326 47.91 57.5133 47.91 48.33H45.91C45.91 57.4333 44.9456 64.1291 43.0961 68.5139C42.1757 70.696 41.058 72.2525 39.7819 73.261C38.5207 74.2577 37.0545 74.76 35.34 74.76V76.76ZM47.91 48.33C47.91 39.2758 46.946 32.3521 44.9369 27.6566C43.9277 25.2982 42.6335 23.4509 41.0164 22.1911C39.385 20.9202 37.4786 20.29 35.34 20.29V22.29C37.0581 22.29 38.5262 22.7865 39.7873 23.7689C41.0627 24.7624 42.1789 26.2951 43.0981 28.4434C44.9457 32.7612 45.91 39.3575 45.91 48.33H47.91ZM35.34 20.29C33.2014 20.29 31.295 20.9202 29.6636 22.1911C28.0465 23.4509 26.7523 25.2982 25.7431 27.6566C23.734 32.3521 22.77 39.2758 22.77 48.33H24.77C24.77 39.3575 25.7343 32.7612 27.5819 28.4434C28.5011 26.2951 29.6173 24.7624 30.8927 23.7689C32.1538 22.7865 33.6219 22.29 35.34 22.29V20.29ZM83.7965 95L82.8119 95.175L82.9586 96H83.7965V95ZM85.7465 70.04L86.6638 70.4381L85.7465 70.04ZM93.1565 58.73L92.4494 58.0229L93.1565 58.73ZM102.776 50.28L102.173 49.4823L102.164 49.4896L102.776 50.28ZM112.526 43.52L113.052 44.3708L113.061 44.3653L113.07 44.3596L112.526 43.52ZM119.936 37.54L120.658 38.2319L120.666 38.2245L120.672 38.2171L119.936 37.54ZM99.1365 31.82L98.5803 32.6511L99.5003 33.2667L100.02 32.2892L99.1365 31.82ZM82.2365 20.51L81.3474 20.0524L80.9393 20.8451L81.6803 21.3411L82.2365 20.51ZM94.9765 6.08L94.4188 5.24993L94.4127 5.25405L94.9765 6.08ZM137.226 7.9L136.611 8.68821L136.618 8.69343L137.226 7.9ZM142.816 43.65L141.955 43.143V43.143L142.816 43.65ZM133.326 54.57L133.923 55.3722L133.929 55.3678L133.935 55.3633L133.326 54.57ZM122.146 62.24L122.664 63.0957L122.671 63.0914L122.678 63.0869L122.146 62.24ZM112.396 69L113.012 69.788L113.02 69.7821L113.027 69.7761L112.396 69ZM107.976 75.5L106.98 75.4203L106.893 76.5H107.976V75.5ZM148.146 75.5H149.146V74.5H148.146V75.5ZM148.146 95V96H149.146V95H148.146ZM84.781 94.825C84.094 90.9604 83.7565 87.6857 83.7565 84.99H81.7565C81.7565 87.841 82.1123 91.2396 82.8119 95.175L84.781 94.825ZM83.7565 84.99C83.7565 79.7435 84.7289 74.8968 86.6638 70.4381L84.8291 69.6419C82.7774 74.3699 81.7565 79.4899 81.7565 84.99H83.7565ZM86.6638 70.4381C88.617 65.9374 91.0218 62.2789 93.8636 59.4371L92.4494 58.0229C89.3979 61.0744 86.8627 64.9559 84.8291 69.6419L86.6638 70.4381ZM93.8636 59.4371C96.779 56.5217 99.9539 53.7327 103.389 51.0704L102.164 49.4896C98.6657 52.2007 95.4273 55.045 92.4494 58.0229L93.8636 59.4371ZM103.38 51.0777C106.915 48.4049 110.138 46.1704 113.052 44.3708L112.001 42.6692C109.021 44.5096 105.745 46.7818 102.173 49.4823L103.38 51.0777ZM113.07 44.3596C116.068 42.4196 118.601 40.3785 120.658 38.2319L119.214 36.8481C117.285 38.8615 114.878 40.8071 111.983 42.6804L113.07 44.3596ZM120.672 38.2171C122.765 35.9424 123.926 33.5884 123.926 31.17H121.926C121.926 32.9116 121.094 34.8043 119.201 36.8629L120.672 38.2171ZM123.926 31.17C123.926 27.8972 122.837 25.2804 120.553 23.4925L119.32 25.0675C121.022 26.3996 121.926 28.3761 121.926 31.17H123.926ZM120.553 23.4925C118.372 21.786 115.812 20.94 112.916 20.94V22.94C115.394 22.94 117.514 23.654 119.32 25.0675L120.553 23.4925ZM112.916 20.94C109.814 20.94 106.957 21.9803 104.369 24.0137L105.604 25.5863C107.87 23.8064 110.299 22.94 112.916 22.94V20.94ZM104.369 24.0137C101.83 26.008 99.7909 28.4567 98.2534 31.3508L100.02 32.2892C101.429 29.6366 103.289 27.4054 105.604 25.5863L104.369 24.0137ZM99.6927 30.9889L82.7927 19.6789L81.6803 21.3411L98.5803 32.6511L99.6927 30.9889ZM83.1256 20.9676C86.083 15.2218 90.218 10.5386 95.5402 6.90595L94.4127 5.25405C88.8149 9.07476 84.4566 14.0115 81.3474 20.0524L83.1256 20.9676ZM95.5342 6.91005C100.89 3.31173 107.361 1.48999 114.996 1.48999V-0.510008C107.032 -0.510008 100.157 1.39492 94.4188 5.24995L95.5342 6.91005ZM114.996 1.48999C123.281 1.48999 130.471 3.89375 136.611 8.68819L137.842 7.11181C131.329 2.02624 123.699 -0.510008 114.996 -0.510008V1.48999ZM136.618 8.69343C142.658 13.3271 145.716 20.0306 145.716 28.96H147.716C147.716 19.516 144.448 12.1796 137.835 7.10657L136.618 8.69343ZM145.716 28.96C145.716 34.1639 144.46 38.8841 141.955 43.143L143.678 44.157C146.373 39.5759 147.716 34.5027 147.716 28.96H145.716ZM141.955 43.143C139.414 47.4624 136.333 51.0019 132.718 53.7767L133.935 55.3633C137.773 52.4181 141.019 48.6776 143.678 44.157L141.955 43.143ZM132.729 53.7678C129.023 56.5262 125.318 59.0679 121.615 61.3931L122.678 63.0869C126.428 60.7321 130.177 58.1604 133.923 55.3722L132.729 53.7678ZM121.629 61.3843C117.871 63.6565 114.582 65.936 111.766 68.2239L113.027 69.7761C115.758 67.5574 118.969 65.3301 122.664 63.0957L121.629 61.3843ZM111.781 68.212C108.919 70.4475 107.186 72.8423 106.98 75.4203L108.973 75.5797C109.114 73.8244 110.327 71.8859 113.012 69.788L111.781 68.212ZM107.976 76.5H148.146V74.5H107.976V76.5ZM147.146 75.5V95H149.146V75.5H147.146ZM148.146 94H83.7965V96H148.146V94Z" fill="#535353" fill-opacity="0.5"/>
</svg>
