<svg width="147" height="97" viewBox="0 0 147 97" fill="none" xmlns="http://www.w3.org/2000/svg">
<path d="M51.85 92.92L52.3171 93.8042L52.3231 93.801L51.85 92.92ZM18.7 92.92L18.22 93.7973L18.2298 93.8026L18.2397 93.8078L18.7 92.92ZM7.91 82.39L7.04382 82.8897L7.91 82.39ZM2.19 67.18L1.21242 67.3906L2.19 67.18ZM2.19 29.61L3.16691 29.8237L3.16758 29.8206L2.19 29.61ZM7.91 14.53L8.77197 15.037L8.77619 15.0297L7.91 14.53ZM18.7 4.12999L18.2397 3.24221L18.2329 3.2458L18.7 4.12999ZM51.85 4.12999L51.3829 5.01421L51.3897 5.01775L51.85 4.12999ZM62.77 14.53L61.9038 15.0297L61.9081 15.037L62.77 14.53ZM68.49 29.61L67.5124 29.8206L67.5131 29.8237L68.49 29.61ZM68.49 67.18L67.5124 66.9694L68.49 67.18ZM62.77 82.39L63.6362 82.8897L62.77 82.39ZM51.3829 92.0358C46.9634 94.3706 41.6281 95.56 35.34 95.56V97.56C41.8785 97.56 47.5499 96.3227 52.3171 93.8042L51.3829 92.0358ZM35.34 95.56C29.0526 95.56 23.6705 94.3708 19.1603 92.0322L18.2397 93.8078C23.0895 96.3225 28.8007 97.56 35.34 97.56V95.56ZM19.18 92.0427C14.7465 89.6169 11.2839 86.237 8.77619 81.8903L7.04382 82.8897C9.73609 87.5563 13.4668 91.1965 18.22 93.7973L19.18 92.0427ZM8.77619 81.8903C6.23338 77.4827 4.36137 72.512 3.16758 66.9694L1.21242 67.3906C2.4453 73.1146 4.38662 78.2839 7.04382 82.8897L8.77619 81.8903ZM3.16758 66.9694C1.9718 61.4176 1.37 55.2063 1.37 48.33H-0.63C-0.63 55.3203 -0.0184622 61.6758 1.21242 67.3906L3.16758 66.9694ZM1.37 48.33C1.37 41.4534 1.97185 35.2868 3.1669 29.8237L1.2131 29.3963C-0.0185189 35.0266 -0.63 41.34 -0.63 48.33H1.37ZM3.16758 29.8206C4.36119 24.2788 6.2323 19.3544 8.77194 15.037L7.04807 14.023C4.3877 18.5456 2.44548 23.6745 1.21242 29.3994L3.16758 29.8206ZM8.77619 15.0297C11.2822 10.686 14.7406 7.35271 19.1671 5.01419L18.2329 3.2458C13.4727 5.76062 9.73781 9.36068 7.04382 14.0303L8.77619 15.0297ZM19.1603 5.01775C23.6705 2.67914 29.0526 1.48999 35.34 1.48999V-0.510008C28.8007 -0.510008 23.0895 0.72751 18.2397 3.24224L19.1603 5.01775ZM35.34 1.48999C41.6281 1.48999 46.9634 2.67939 51.3829 5.01419L52.3171 3.2458C47.5499 0.727262 41.8785 -0.510008 35.34 -0.510008V1.48999ZM51.3897 5.01775C55.9025 7.35772 59.4006 10.6908 61.9038 15.0297L63.6362 14.0303C60.9394 9.35585 57.1575 5.7556 52.3103 3.24224L51.3897 5.01775ZM61.9081 15.037C64.4477 19.3544 66.3188 24.2788 67.5124 29.8206L69.4676 29.3994C68.2345 23.6745 66.2923 18.5456 63.6319 14.023L61.9081 15.037ZM67.5131 29.8237C68.7082 35.2868 69.31 41.4534 69.31 48.33H71.31C71.31 41.34 70.6985 35.0266 69.4669 29.3963L67.5131 29.8237ZM69.31 48.33C69.31 55.2063 68.7082 61.4176 67.5124 66.9694L69.4676 67.3906C70.6985 61.6758 71.31 55.3203 71.31 48.33H69.31ZM67.5124 66.9694C66.3186 72.512 64.4466 77.4827 61.9038 81.8903L63.6362 82.8897C66.2934 78.2839 68.2347 73.1146 69.4676 67.3906L67.5124 66.9694ZM61.9038 81.8903C59.3988 86.2322 55.8966 89.6118 51.3769 92.039L52.3231 93.801C57.1634 91.2016 60.9412 87.5611 63.6362 82.8897L61.9038 81.8903ZM22.77 48.33C22.77 57.5133 23.7339 64.5326 25.7411 69.2911C26.749 71.6807 28.0418 73.5529 29.6581 74.8302C31.2895 76.1194 33.1978 76.76 35.34 76.76V74.76C33.6255 74.76 32.1593 74.2577 30.8982 73.261C29.622 72.2525 28.5043 70.696 27.5839 68.5139C25.7344 64.1291 24.77 57.4333 24.77 48.33H22.77ZM35.34 76.76C37.4822 76.76 39.3905 76.1194 41.0219 74.8302C42.6382 73.5529 43.931 71.6807 44.9389 69.2911C46.9461 64.5326 47.91 57.5133 47.91 48.33H45.91C45.91 57.4333 44.9456 64.1291 43.0961 68.5139C42.1757 70.696 41.058 72.2525 39.7819 73.261C38.5207 74.2577 37.0545 74.76 35.34 74.76V76.76ZM47.91 48.33C47.91 39.2758 46.946 32.3521 44.9369 27.6566C43.9277 25.2982 42.6335 23.4509 41.0164 22.1911C39.385 20.9202 37.4786 20.29 35.34 20.29V22.29C37.0581 22.29 38.5262 22.7865 39.7873 23.7689C41.0627 24.7624 42.1789 26.2951 43.0981 28.4434C44.9457 32.7612 45.91 39.3575 45.91 48.33H47.91ZM35.34 20.29C33.2014 20.29 31.295 20.9202 29.6636 22.1911C28.0465 23.4509 26.7523 25.2982 25.7431 27.6566C23.734 32.3521 22.77 39.2758 22.77 48.33H24.77C24.77 39.3575 25.7343 32.7612 27.5819 28.4434C28.5011 26.2951 29.6173 24.7624 30.8927 23.7689C32.1538 22.7865 33.6219 22.29 35.34 22.29V20.29ZM80.5465 84.34L79.6974 83.8117L79.2803 84.4821L79.8356 85.0433L80.5465 84.34ZM91.4665 66.79L92.1626 66.0721L91.2725 65.2089L90.6174 66.2617L91.4665 66.79ZM120.196 72.51L120.792 73.3136L120.796 73.31L120.196 72.51ZM100.046 55.61L99.1296 56.0091L99.3911 56.61H100.046V55.61ZM95.2365 44.56L94.4677 43.9205L94.0737 44.3942L94.3196 44.9591L95.2365 44.56ZM107.456 29.87L106.688 29.2298L106.688 29.2305L107.456 29.87ZM111.356 25.32L110.628 24.6346L110.617 24.6463L110.607 24.6584L111.356 25.32ZM114.476 22.2L115.135 22.9526L115.16 22.9307L115.184 22.9071L114.476 22.2ZM115.516 21.16L116.224 21.8671L116.516 21.5742V21.16H115.516ZM115.516 20.9H116.516V19.6592L115.304 19.9228L115.516 20.9ZM84.4465 21.55H83.4465V22.55H84.4465V21.55ZM84.4465 2.05V1.05H83.4465V2.05H84.4465ZM143.076 2.05H144.076V1.05H143.076V2.05ZM143.076 16.22L143.832 16.8756L144.076 16.5936V16.22H143.076ZM124.226 37.93L123.471 37.2744L122.362 38.5517L124.016 38.9076L124.226 37.93ZM140.606 47.55L139.835 48.1862L140.606 47.55ZM137.616 87.2L136.899 86.5029L136.895 86.5081L137.616 87.2ZM81.3955 84.8683L92.3155 67.3183L90.6174 66.2617L79.6974 83.8117L81.3955 84.8683ZM90.7703 67.5079C96.6496 73.209 103.261 76.11 110.576 76.11V74.11C103.852 74.11 97.7234 71.4643 92.1626 66.0721L90.7703 67.5079ZM110.576 76.11C114.781 76.11 118.223 75.2164 120.792 73.3136L119.601 71.7064C117.49 73.2702 114.519 74.11 110.576 74.11V76.11ZM120.796 73.31C123.427 71.3368 124.836 68.8498 124.836 65.88H122.836C122.836 68.1102 121.819 70.0432 119.596 71.71L120.796 73.31ZM124.836 65.88C124.836 62.1131 123.218 59.2143 120.025 57.3177C116.914 55.4699 112.376 54.61 106.546 54.61V56.61C112.244 56.61 116.351 57.4618 119.003 59.0373C121.574 60.564 122.836 62.8002 122.836 65.88H124.836ZM106.546 54.61H100.046V56.61H106.546V54.61ZM100.963 55.2109L96.1534 44.1609L94.3196 44.9591L99.1296 56.0091L100.963 55.2109ZM96.0053 45.1995L108.225 30.5095L106.688 29.2305L94.4677 43.9205L96.0053 45.1995ZM108.225 30.5102C109.519 28.9572 110.813 27.4477 112.106 25.9816L110.607 24.6584C109.3 26.139 107.994 27.6628 106.688 29.2298L108.225 30.5102ZM112.085 26.0054C113.469 24.5346 114.481 23.525 115.135 22.9526L113.818 21.4474C113.086 22.0883 112.017 23.1587 110.628 24.6346L112.085 26.0054ZM115.184 22.9071L116.224 21.8671L114.809 20.4529L113.769 21.4929L115.184 22.9071ZM116.516 21.16V20.9H114.516V21.16H116.516ZM115.304 19.9228C113.418 20.3329 110.557 20.55 106.676 20.55V22.55C110.596 22.55 113.629 22.3338 115.729 21.8772L115.304 19.9228ZM106.676 20.55H84.4465V22.55H106.676V20.55ZM85.4465 21.55V2.05H83.4465V21.55H85.4465ZM84.4465 3.05H143.076V1.05H84.4465V3.05ZM142.076 2.05V16.22H144.076V2.05H142.076ZM142.321 15.5644L123.471 37.2744L124.982 38.5856L143.832 16.8756L142.321 15.5644ZM124.016 38.9076C130.665 40.3383 135.919 43.4365 139.835 48.1862L141.378 46.9138C137.148 41.7835 131.482 38.4684 124.437 36.9524L124.016 38.9076ZM139.835 48.1862C143.756 52.9416 145.716 58.4782 145.716 64.84H147.716C147.716 58.0284 145.604 52.0384 141.378 46.9138L139.835 48.1862ZM145.716 64.84C145.716 73.2451 142.786 80.4487 136.899 86.5029L138.333 87.8971C144.581 81.4713 147.716 73.7682 147.716 64.84H145.716ZM136.895 86.5081C131.15 92.5024 122.99 95.56 112.266 95.56V97.56C123.383 97.56 132.123 94.3776 138.338 87.8919L136.895 86.5081ZM112.266 95.56C99.4056 95.56 89.1024 91.566 81.2574 83.6367L79.8356 85.0433C88.1106 93.4073 98.954 97.56 112.266 97.56V95.56Z" fill="#DDDDDD" fill-opacity="0.5"/>
</svg>
