<svg width="155" height="97" viewBox="0 0 155 97" fill="none" xmlns="http://www.w3.org/2000/svg">
<path d="M51.85 92.92L52.3171 93.8042L52.3231 93.801L51.85 92.92ZM18.7 92.92L18.22 93.7973L18.2298 93.8026L18.2397 93.8078L18.7 92.92ZM7.91 82.39L7.04382 82.8897L7.91 82.39ZM2.19 67.18L1.21242 67.3906L2.19 67.18ZM2.19 29.61L3.16691 29.8237L3.16758 29.8206L2.19 29.61ZM7.91 14.53L8.77197 15.037L8.77619 15.0297L7.91 14.53ZM18.7 4.12999L18.2397 3.24221L18.2329 3.2458L18.7 4.12999ZM51.85 4.12999L51.3829 5.01421L51.3897 5.01775L51.85 4.12999ZM62.77 14.53L61.9038 15.0297L61.9081 15.037L62.77 14.53ZM68.49 29.61L67.5124 29.8206L67.5131 29.8237L68.49 29.61ZM68.49 67.18L67.5124 66.9694L68.49 67.18ZM62.77 82.39L63.6362 82.8897L62.77 82.39ZM51.3829 92.0358C46.9634 94.3706 41.6281 95.56 35.34 95.56V97.56C41.8785 97.56 47.5499 96.3227 52.3171 93.8042L51.3829 92.0358ZM35.34 95.56C29.0526 95.56 23.6705 94.3708 19.1603 92.0322L18.2397 93.8078C23.0895 96.3225 28.8007 97.56 35.34 97.56V95.56ZM19.18 92.0427C14.7465 89.6169 11.2839 86.237 8.77619 81.8903L7.04382 82.8897C9.73609 87.5563 13.4668 91.1965 18.22 93.7973L19.18 92.0427ZM8.77619 81.8903C6.23338 77.4827 4.36137 72.512 3.16758 66.9694L1.21242 67.3906C2.4453 73.1146 4.38662 78.2839 7.04382 82.8897L8.77619 81.8903ZM3.16758 66.9694C1.9718 61.4176 1.37 55.2063 1.37 48.33H-0.63C-0.63 55.3203 -0.0184622 61.6758 1.21242 67.3906L3.16758 66.9694ZM1.37 48.33C1.37 41.4534 1.97185 35.2868 3.1669 29.8237L1.2131 29.3963C-0.0185189 35.0266 -0.63 41.34 -0.63 48.33H1.37ZM3.16758 29.8206C4.36119 24.2788 6.2323 19.3544 8.77194 15.037L7.04807 14.023C4.3877 18.5456 2.44548 23.6745 1.21242 29.3994L3.16758 29.8206ZM8.77619 15.0297C11.2822 10.686 14.7406 7.35271 19.1671 5.01419L18.2329 3.2458C13.4727 5.76062 9.73781 9.36068 7.04382 14.0303L8.77619 15.0297ZM19.1603 5.01775C23.6705 2.67914 29.0526 1.48999 35.34 1.48999V-0.510008C28.8007 -0.510008 23.0895 0.72751 18.2397 3.24224L19.1603 5.01775ZM35.34 1.48999C41.6281 1.48999 46.9634 2.67939 51.3829 5.01419L52.3171 3.2458C47.5499 0.727262 41.8785 -0.510008 35.34 -0.510008V1.48999ZM51.3897 5.01775C55.9025 7.35772 59.4006 10.6908 61.9038 15.0297L63.6362 14.0303C60.9394 9.35585 57.1575 5.7556 52.3103 3.24224L51.3897 5.01775ZM61.9081 15.037C64.4477 19.3544 66.3188 24.2788 67.5124 29.8206L69.4676 29.3994C68.2345 23.6745 66.2923 18.5456 63.6319 14.023L61.9081 15.037ZM67.5131 29.8237C68.7082 35.2868 69.31 41.4534 69.31 48.33H71.31C71.31 41.34 70.6985 35.0266 69.4669 29.3963L67.5131 29.8237ZM69.31 48.33C69.31 55.2063 68.7082 61.4176 67.5124 66.9694L69.4676 67.3906C70.6985 61.6758 71.31 55.3203 71.31 48.33H69.31ZM67.5124 66.9694C66.3186 72.512 64.4466 77.4827 61.9038 81.8903L63.6362 82.8897C66.2934 78.2839 68.2347 73.1146 69.4676 67.3906L67.5124 66.9694ZM61.9038 81.8903C59.3988 86.2322 55.8966 89.6118 51.3769 92.039L52.3231 93.801C57.1634 91.2016 60.9412 87.5611 63.6362 82.8897L61.9038 81.8903ZM22.77 48.33C22.77 57.5133 23.7339 64.5326 25.7411 69.2911C26.749 71.6807 28.0418 73.5529 29.6581 74.8302C31.2895 76.1194 33.1978 76.76 35.34 76.76V74.76C33.6255 74.76 32.1593 74.2577 30.8982 73.261C29.622 72.2525 28.5043 70.696 27.5839 68.5139C25.7344 64.1291 24.77 57.4333 24.77 48.33H22.77ZM35.34 76.76C37.4822 76.76 39.3905 76.1194 41.0219 74.8302C42.6382 73.5529 43.931 71.6807 44.9389 69.2911C46.9461 64.5326 47.91 57.5133 47.91 48.33H45.91C45.91 57.4333 44.9456 64.1291 43.0961 68.5139C42.1757 70.696 41.058 72.2525 39.7819 73.261C38.5207 74.2577 37.0545 74.76 35.34 74.76V76.76ZM47.91 48.33C47.91 39.2758 46.946 32.3521 44.9369 27.6566C43.9277 25.2982 42.6335 23.4509 41.0164 22.1911C39.385 20.9202 37.4786 20.29 35.34 20.29V22.29C37.0581 22.29 38.5262 22.7865 39.7873 23.7689C41.0627 24.7624 42.1789 26.2951 43.0981 28.4434C44.9457 32.7612 45.91 39.3575 45.91 48.33H47.91ZM35.34 20.29C33.2014 20.29 31.295 20.9202 29.6636 22.1911C28.0465 23.4509 26.7523 25.2982 25.7431 27.6566C23.734 32.3521 22.77 39.2758 22.77 48.33H24.77C24.77 39.3575 25.7343 32.7612 27.5819 28.4434C28.5011 26.2951 29.6173 24.7624 30.8927 23.7689C32.1538 22.7865 33.6219 22.29 35.34 22.29V20.29ZM79.7665 72.51H78.7665V73.51H79.7665V72.51ZM79.7665 58.73L78.9215 58.1951L78.7665 58.4401V58.73H79.7665ZM115.646 2.05V1.05H115.096L114.802 1.51513L115.646 2.05ZM143.466 2.05H144.466V1.05H143.466V2.05ZM143.466 53.66H142.466V54.66H143.466V53.66ZM154.516 53.66H155.516V52.66H154.516V53.66ZM154.516 72.51V73.51H155.516V72.51H154.516ZM143.466 72.51V71.51H142.466V72.51H143.466ZM143.466 95V96H144.466V95H143.466ZM120.976 95H119.976V96H120.976V95ZM120.976 72.51H121.976V71.51H120.976V72.51ZM102.906 53.66H101.906V54.66H102.906V53.66ZM120.976 53.66V54.66H121.976V53.66H120.976ZM120.976 32.86L119.979 32.7852L119.976 32.8226V32.86H120.976ZM121.756 22.46L122.754 22.5348L122.834 21.46H121.756V22.46ZM121.496 22.46V21.46H120.781L120.55 22.1373L121.496 22.46ZM116.946 32.08L116.114 31.5253L116.111 31.53L116.946 32.08ZM102.906 53.4L102.071 52.85L101.906 53.1003V53.4H102.906ZM80.7665 72.51V58.73H78.7665V72.51H80.7665ZM80.6114 59.2649L116.491 2.58486L114.802 1.51513L78.9215 58.1951L80.6114 59.2649ZM115.646 3.05H143.466V1.05H115.646V3.05ZM142.466 2.05V53.66H144.466V2.05H142.466ZM143.466 54.66H154.516V52.66H143.466V54.66ZM153.516 53.66V72.51H155.516V53.66H153.516ZM154.516 71.51H143.466V73.51H154.516V71.51ZM142.466 72.51V95H144.466V72.51H142.466ZM143.466 94H120.976V96H143.466V94ZM121.976 95V72.51H119.976V95H121.976ZM120.976 71.51H79.7665V73.51H120.976V71.51ZM102.906 54.66H120.976V52.66H102.906V54.66ZM121.976 53.66V32.86H119.976V53.66H121.976ZM121.974 32.9348L122.754 22.5348L120.759 22.3852L119.979 32.7852L121.974 32.9348ZM121.756 21.46H121.496V23.46H121.756V21.46ZM120.55 22.1373C119.27 25.891 117.788 29.0146 116.114 31.5253L117.779 32.6347C119.571 29.9454 121.123 26.6557 122.443 22.7827L120.55 22.1373ZM116.111 31.53L102.071 52.85L103.742 53.95L117.782 32.63L116.111 31.53ZM101.906 53.4V53.66H103.906V53.4H101.906Z" fill="#535353" fill-opacity="0.5"/>
</svg>
