<svg width="148" height="97" viewBox="0 0 148 97" fill="none" xmlns="http://www.w3.org/2000/svg">
<path d="M51.85 92.92L52.3171 93.8042L52.3231 93.801L51.85 92.92ZM18.7 92.92L18.22 93.7973L18.2298 93.8026L18.2397 93.8078L18.7 92.92ZM7.91 82.39L7.04382 82.8897L7.91 82.39ZM2.19 67.18L1.21242 67.3906L2.19 67.18ZM2.19 29.61L3.16691 29.8237L3.16758 29.8206L2.19 29.61ZM7.91 14.53L8.77197 15.037L8.77619 15.0297L7.91 14.53ZM18.7 4.12999L18.2397 3.24221L18.2329 3.2458L18.7 4.12999ZM51.85 4.12999L51.3829 5.01421L51.3897 5.01775L51.85 4.12999ZM62.77 14.53L61.9038 15.0297L61.9081 15.037L62.77 14.53ZM68.49 29.61L67.5124 29.8206L67.5131 29.8237L68.49 29.61ZM68.49 67.18L67.5124 66.9694L68.49 67.18ZM62.77 82.39L63.6362 82.8897L62.77 82.39ZM51.3829 92.0358C46.9634 94.3706 41.6281 95.56 35.34 95.56V97.56C41.8785 97.56 47.5499 96.3227 52.3171 93.8042L51.3829 92.0358ZM35.34 95.56C29.0526 95.56 23.6705 94.3708 19.1603 92.0322L18.2397 93.8078C23.0895 96.3225 28.8007 97.56 35.34 97.56V95.56ZM19.18 92.0427C14.7465 89.6169 11.2839 86.237 8.77619 81.8903L7.04382 82.8897C9.73609 87.5563 13.4668 91.1965 18.22 93.7973L19.18 92.0427ZM8.77619 81.8903C6.23338 77.4827 4.36137 72.512 3.16758 66.9694L1.21242 67.3906C2.4453 73.1146 4.38662 78.2839 7.04382 82.8897L8.77619 81.8903ZM3.16758 66.9694C1.9718 61.4176 1.37 55.2063 1.37 48.33H-0.63C-0.63 55.3203 -0.0184622 61.6758 1.21242 67.3906L3.16758 66.9694ZM1.37 48.33C1.37 41.4534 1.97185 35.2868 3.1669 29.8237L1.2131 29.3963C-0.0185189 35.0266 -0.63 41.34 -0.63 48.33H1.37ZM3.16758 29.8206C4.36119 24.2788 6.2323 19.3544 8.77194 15.037L7.04807 14.023C4.3877 18.5456 2.44548 23.6745 1.21242 29.3994L3.16758 29.8206ZM8.77619 15.0297C11.2822 10.686 14.7406 7.35271 19.1671 5.01419L18.2329 3.2458C13.4727 5.76062 9.73781 9.36068 7.04382 14.0303L8.77619 15.0297ZM19.1603 5.01775C23.6705 2.67914 29.0526 1.48999 35.34 1.48999V-0.510008C28.8007 -0.510008 23.0895 0.72751 18.2397 3.24224L19.1603 5.01775ZM35.34 1.48999C41.6281 1.48999 46.9634 2.67939 51.3829 5.01419L52.3171 3.2458C47.5499 0.727262 41.8785 -0.510008 35.34 -0.510008V1.48999ZM51.3897 5.01775C55.9025 7.35772 59.4006 10.6908 61.9038 15.0297L63.6362 14.0303C60.9394 9.35585 57.1575 5.7556 52.3103 3.24224L51.3897 5.01775ZM61.9081 15.037C64.4477 19.3544 66.3188 24.2788 67.5124 29.8206L69.4676 29.3994C68.2345 23.6745 66.2923 18.5456 63.6319 14.023L61.9081 15.037ZM67.5131 29.8237C68.7082 35.2868 69.31 41.4534 69.31 48.33H71.31C71.31 41.34 70.6985 35.0266 69.4669 29.3963L67.5131 29.8237ZM69.31 48.33C69.31 55.2063 68.7082 61.4176 67.5124 66.9694L69.4676 67.3906C70.6985 61.6758 71.31 55.3203 71.31 48.33H69.31ZM67.5124 66.9694C66.3186 72.512 64.4466 77.4827 61.9038 81.8903L63.6362 82.8897C66.2934 78.2839 68.2347 73.1146 69.4676 67.3906L67.5124 66.9694ZM61.9038 81.8903C59.3988 86.2322 55.8966 89.6118 51.3769 92.039L52.3231 93.801C57.1634 91.2016 60.9412 87.5611 63.6362 82.8897L61.9038 81.8903ZM22.77 48.33C22.77 57.5133 23.7339 64.5326 25.7411 69.2911C26.749 71.6807 28.0418 73.5529 29.6581 74.8302C31.2895 76.1194 33.1978 76.76 35.34 76.76V74.76C33.6255 74.76 32.1593 74.2577 30.8982 73.261C29.622 72.2525 28.5043 70.696 27.5839 68.5139C25.7344 64.1291 24.77 57.4333 24.77 48.33H22.77ZM35.34 76.76C37.4822 76.76 39.3905 76.1194 41.0219 74.8302C42.6382 73.5529 43.931 71.6807 44.9389 69.2911C46.9461 64.5326 47.91 57.5133 47.91 48.33H45.91C45.91 57.4333 44.9456 64.1291 43.0961 68.5139C42.1757 70.696 41.058 72.2525 39.7819 73.261C38.5207 74.2577 37.0545 74.76 35.34 74.76V76.76ZM47.91 48.33C47.91 39.2758 46.946 32.3521 44.9369 27.6566C43.9277 25.2982 42.6335 23.4509 41.0164 22.1911C39.385 20.9202 37.4786 20.29 35.34 20.29V22.29C37.0581 22.29 38.5262 22.7865 39.7873 23.7689C41.0627 24.7624 42.1789 26.2951 43.0981 28.4434C44.9457 32.7612 45.91 39.3575 45.91 48.33H47.91ZM35.34 20.29C33.2014 20.29 31.295 20.9202 29.6636 22.1911C28.0465 23.4509 26.7523 25.2982 25.7431 27.6566C23.734 32.3521 22.77 39.2758 22.77 48.33H24.77C24.77 39.3575 25.7343 32.7612 27.5819 28.4434C28.5011 26.2951 29.6173 24.7624 30.8927 23.7689C32.1538 22.7865 33.6219 22.29 35.34 22.29V20.29ZM81.4565 84.34L80.6074 83.8117L80.179 84.5003L80.7643 85.0617L81.4565 84.34ZM92.3765 66.79L93.0619 66.0618L92.1726 65.2248L91.5274 66.2617L92.3765 66.79ZM120.196 72.12L120.805 72.9136L120.809 72.9107L120.196 72.12ZM120.066 55.22L120.666 54.42L120.066 55.22ZM96.9265 55.22L96.5743 56.1559L96.983 56.3098L97.3737 56.1144L96.9265 55.22ZM84.8365 50.67L83.8395 50.5927L83.7814 51.3414L84.4843 51.6059L84.8365 50.67ZM88.6065 2.05V1.05H87.681L87.6095 1.97269L88.6065 2.05ZM140.606 2.05H141.606V1.05H140.606V2.05ZM140.606 21.55V22.55H141.606V21.55H140.606ZM108.366 21.55V20.55H107.425L107.368 21.4895L108.366 21.55ZM107.846 30.13L108.836 30.2714L108.842 30.2311L108.845 30.1905L107.846 30.13ZM107.326 33.77L106.337 33.6286L106.173 34.77H107.326V33.77ZM107.586 33.77V34.77H107.765L107.932 34.7083L107.586 33.77ZM138.916 41.57L138.209 42.2771L138.215 42.2824L138.916 41.57ZM138.006 87.2L138.704 87.9167L138.006 87.2ZM82.3055 84.8683L93.2255 67.3183L91.5274 66.2617L80.6074 83.8117L82.3055 84.8683ZM91.6911 67.5182C97.7282 73.2002 104.246 76.11 111.226 76.11V74.11C104.86 74.11 98.8114 71.4731 93.0619 66.0618L91.6911 67.5182ZM111.226 76.11C114.819 76.11 118.024 75.0453 120.805 72.9136L119.588 71.3264C117.169 73.1814 114.394 74.11 111.226 74.11V76.11ZM120.809 72.9107C123.753 70.6315 125.226 67.5162 125.226 63.67H123.226C123.226 66.9304 122.014 69.4485 119.584 71.3293L120.809 72.9107ZM125.226 63.67C125.226 59.8112 123.699 56.6943 120.666 54.42L119.466 56.02C121.981 57.9057 123.226 60.4222 123.226 63.67H125.226ZM120.666 54.42C117.681 52.1807 113.901 51.1 109.406 51.1V53.1C113.578 53.1 116.906 54.0993 119.466 56.02L120.666 54.42ZM109.406 51.1C105.074 51.1 100.762 52.1844 96.4793 54.3256L97.3737 56.1144C101.411 54.0956 105.419 53.1 109.406 53.1V51.1ZM97.2787 54.2841L85.1887 49.7341L84.4843 51.6059L96.5743 56.1559L97.2787 54.2841ZM85.8335 50.7473L89.6035 2.1273L87.6095 1.97269L83.8395 50.5927L85.8335 50.7473ZM88.6065 3.05H140.606V1.05H88.6065V3.05ZM139.606 2.05V21.55H141.606V2.05H139.606ZM140.606 20.55H108.366V22.55H140.606V20.55ZM107.368 21.4895L106.848 30.0695L108.845 30.1905L109.365 21.6105L107.368 21.4895ZM106.857 29.9886L106.337 33.6286L108.316 33.9114L108.836 30.2714L106.857 29.9886ZM107.326 34.77H107.586V32.77H107.326V34.77ZM107.932 34.7083C109.42 34.16 111.54 33.86 114.346 33.86V31.86C111.433 31.86 109.046 32.1666 107.241 32.8317L107.932 34.7083ZM114.346 33.86C124.734 33.86 132.64 36.7077 138.209 42.2771L139.624 40.8629C133.58 34.819 125.105 31.86 114.346 31.86V33.86ZM138.215 42.2824C143.813 47.7976 146.626 54.8128 146.626 63.41H148.626C148.626 54.3272 145.633 46.7824 139.618 40.8576L138.215 42.2824ZM146.626 63.41C146.626 72.7825 143.513 80.4467 137.309 86.4833L138.704 87.9167C145.326 81.4733 148.626 73.2775 148.626 63.41H146.626ZM137.309 86.4833C131.108 92.517 123.094 95.56 113.176 95.56V97.56C123.539 97.56 132.078 94.363 138.704 87.9167L137.309 86.4833ZM113.176 95.56C100.76 95.56 90.441 91.5722 82.1487 83.6183L80.7643 85.0617C89.4586 93.4012 100.286 97.56 113.176 97.56V95.56Z" fill="#DDDDDD" fill-opacity="0.5"/>
</svg>
