<svg width="152" height="97" viewBox="0 0 152 97" fill="none" xmlns="http://www.w3.org/2000/svg">
<path d="M51.85 92.92L52.3171 93.8042L52.3231 93.801L51.85 92.92ZM18.7 92.92L18.22 93.7973L18.2298 93.8026L18.2397 93.8078L18.7 92.92ZM7.91 82.39L7.04382 82.8897L7.91 82.39ZM2.19 67.18L1.21242 67.3906L2.19 67.18ZM2.19 29.61L3.16691 29.8237L3.16758 29.8206L2.19 29.61ZM7.91 14.53L8.77197 15.037L8.77619 15.0297L7.91 14.53ZM18.7 4.12999L18.2397 3.24221L18.2329 3.2458L18.7 4.12999ZM51.85 4.12999L51.3829 5.01421L51.3897 5.01775L51.85 4.12999ZM62.77 14.53L61.9038 15.0297L61.9081 15.037L62.77 14.53ZM68.49 29.61L67.5124 29.8206L67.5131 29.8237L68.49 29.61ZM68.49 67.18L67.5124 66.9694L68.49 67.18ZM62.77 82.39L63.6362 82.8897L62.77 82.39ZM51.3829 92.0358C46.9634 94.3706 41.6281 95.56 35.34 95.56V97.56C41.8785 97.56 47.5499 96.3227 52.3171 93.8042L51.3829 92.0358ZM35.34 95.56C29.0526 95.56 23.6705 94.3708 19.1603 92.0322L18.2397 93.8078C23.0895 96.3225 28.8007 97.56 35.34 97.56V95.56ZM19.18 92.0427C14.7465 89.6169 11.2839 86.237 8.77619 81.8903L7.04382 82.8897C9.73609 87.5563 13.4668 91.1965 18.22 93.7973L19.18 92.0427ZM8.77619 81.8903C6.23338 77.4827 4.36137 72.512 3.16758 66.9694L1.21242 67.3906C2.4453 73.1146 4.38662 78.2839 7.04382 82.8897L8.77619 81.8903ZM3.16758 66.9694C1.9718 61.4176 1.37 55.2063 1.37 48.33H-0.63C-0.63 55.3203 -0.0184622 61.6758 1.21242 67.3906L3.16758 66.9694ZM1.37 48.33C1.37 41.4534 1.97185 35.2868 3.1669 29.8237L1.2131 29.3963C-0.0185189 35.0266 -0.63 41.34 -0.63 48.33H1.37ZM3.16758 29.8206C4.36119 24.2788 6.2323 19.3544 8.77194 15.037L7.04807 14.023C4.3877 18.5456 2.44548 23.6745 1.21242 29.3994L3.16758 29.8206ZM8.77619 15.0297C11.2822 10.686 14.7406 7.35271 19.1671 5.01419L18.2329 3.2458C13.4727 5.76062 9.73781 9.36068 7.04382 14.0303L8.77619 15.0297ZM19.1603 5.01775C23.6705 2.67914 29.0526 1.48999 35.34 1.48999V-0.510008C28.8007 -0.510008 23.0895 0.72751 18.2397 3.24224L19.1603 5.01775ZM35.34 1.48999C41.6281 1.48999 46.9634 2.67939 51.3829 5.01419L52.3171 3.2458C47.5499 0.727262 41.8785 -0.510008 35.34 -0.510008V1.48999ZM51.3897 5.01775C55.9025 7.35772 59.4006 10.6908 61.9038 15.0297L63.6362 14.0303C60.9394 9.35585 57.1575 5.7556 52.3103 3.24224L51.3897 5.01775ZM61.9081 15.037C64.4477 19.3544 66.3188 24.2788 67.5124 29.8206L69.4676 29.3994C68.2345 23.6745 66.2923 18.5456 63.6319 14.023L61.9081 15.037ZM67.5131 29.8237C68.7082 35.2868 69.31 41.4534 69.31 48.33H71.31C71.31 41.34 70.6985 35.0266 69.4669 29.3963L67.5131 29.8237ZM69.31 48.33C69.31 55.2063 68.7082 61.4176 67.5124 66.9694L69.4676 67.3906C70.6985 61.6758 71.31 55.3203 71.31 48.33H69.31ZM67.5124 66.9694C66.3186 72.512 64.4466 77.4827 61.9038 81.8903L63.6362 82.8897C66.2934 78.2839 68.2347 73.1146 69.4676 67.3906L67.5124 66.9694ZM61.9038 81.8903C59.3988 86.2322 55.8966 89.6118 51.3769 92.039L52.3231 93.801C57.1634 91.2016 60.9412 87.5611 63.6362 82.8897L61.9038 81.8903ZM22.77 48.33C22.77 57.5133 23.7339 64.5326 25.7411 69.2911C26.749 71.6807 28.0418 73.5529 29.6581 74.8302C31.2895 76.1194 33.1978 76.76 35.34 76.76V74.76C33.6255 74.76 32.1593 74.2577 30.8982 73.261C29.622 72.2525 28.5043 70.696 27.5839 68.5139C25.7344 64.1291 24.77 57.4333 24.77 48.33H22.77ZM35.34 76.76C37.4822 76.76 39.3905 76.1194 41.0219 74.8302C42.6382 73.5529 43.931 71.6807 44.9389 69.2911C46.9461 64.5326 47.91 57.5133 47.91 48.33H45.91C45.91 57.4333 44.9456 64.1291 43.0961 68.5139C42.1757 70.696 41.058 72.2525 39.7819 73.261C38.5207 74.2577 37.0545 74.76 35.34 74.76V76.76ZM47.91 48.33C47.91 39.2758 46.946 32.3521 44.9369 27.6566C43.9277 25.2982 42.6335 23.4509 41.0164 22.1911C39.385 20.9202 37.4786 20.29 35.34 20.29V22.29C37.0581 22.29 38.5262 22.7865 39.7873 23.7689C41.0627 24.7624 42.1789 26.2951 43.0981 28.4434C44.9457 32.7612 45.91 39.3575 45.91 48.33H47.91ZM35.34 20.29C33.2014 20.29 31.295 20.9202 29.6636 22.1911C28.0465 23.4509 26.7523 25.2982 25.7431 27.6566C23.734 32.3521 22.77 39.2758 22.77 48.33H24.77C24.77 39.3575 25.7343 32.7612 27.5819 28.4434C28.5011 26.2951 29.6173 24.7624 30.8927 23.7689C32.1538 22.7865 33.6219 22.29 35.34 22.29V20.29ZM85.3565 33.38L84.4064 33.0678L84.4025 33.0802L85.3565 33.38ZM93.6765 16.87L92.8714 16.2768L92.8647 16.2861L93.6765 16.87ZM107.716 5.04L108.174 5.92899L108.18 5.92635L107.716 5.04ZM147.366 4.51999L148.321 4.81899L148.58 3.99094L147.797 3.61739L147.366 4.51999ZM141.256 24.02L140.782 24.9005L141.849 25.4746L142.211 24.319L141.256 24.02ZM135.536 22.2L135.316 23.1754L135.536 22.2ZM108.496 36.63L107.547 36.3162L107.113 37.63H108.496V36.63ZM108.756 36.63V37.63H109.069L109.326 37.4522L108.756 36.63ZM114.346 34.42L114.604 35.3862V35.3862L114.346 34.42ZM143.596 43L142.84 43.6542L142.845 43.6592L143.596 43ZM143.206 87.2L142.474 86.5188L142.469 86.5243L143.206 87.2ZM93.6765 84.99L94.3956 84.2951L93.6765 84.99ZM126.956 72.77L127.711 73.4262L127.718 73.4183L127.725 73.4102L126.956 72.77ZM126.046 55.74L126.801 55.0832L126.046 55.74ZM110.446 70.43L111.207 69.7807L110.446 70.43ZM83.4965 52.1C83.4965 45.7875 84.4346 39.6486 86.3105 33.6798L84.4025 33.0802C82.4651 39.2447 81.4965 45.5858 81.4965 52.1H83.4965ZM86.3065 33.6922C88.2695 27.7178 90.9975 22.3069 94.4883 17.4539L92.8647 16.2861C89.2488 21.3131 86.4301 26.9089 84.4065 33.0678L86.3065 33.6922ZM94.4815 17.4632C98.0257 12.6533 102.585 8.80862 108.174 5.92897L107.259 4.15102C101.408 7.1647 96.6073 11.2067 92.8714 16.2768L94.4815 17.4632ZM108.18 5.92635C113.835 2.97203 120.045 1.48999 126.826 1.48999V-0.510008C119.742 -0.510008 113.211 1.04129 107.253 4.15365L108.18 5.92635ZM126.826 1.48999C134.779 1.48999 141.47 2.8159 146.936 5.4226L147.797 3.61739C141.996 0.850752 134.994 -0.510008 126.826 -0.510008V1.48999ZM146.412 4.22099L140.302 23.721L142.211 24.319L148.321 4.81899L146.412 4.22099ZM141.731 23.1395C140.476 22.4638 138.454 21.8337 135.757 21.2246L135.316 23.1754C137.992 23.7796 139.784 24.3629 140.782 24.9005L141.731 23.1395ZM135.757 21.2246C133.023 20.6073 130.606 20.29 128.516 20.29V22.29C130.414 22.29 132.677 22.5794 135.316 23.1754L135.757 21.2246ZM128.516 20.29C123.355 20.29 118.97 21.6172 115.428 24.3312C111.893 27.0402 109.282 31.0656 107.547 36.3162L109.446 36.9438C111.091 31.9677 113.507 28.3231 116.645 25.9188C119.776 23.5194 123.711 22.29 128.516 22.29V20.29ZM108.496 37.63H108.756V35.63H108.496V37.63ZM109.326 37.4522C110.305 36.7743 112.03 36.0728 114.604 35.3862L114.089 33.4538C111.463 34.1539 109.461 34.9257 108.187 35.8078L109.326 37.4522ZM114.604 35.3862C117.139 34.7101 119.435 34.38 121.496 34.38V32.38C119.225 32.38 116.754 32.7432 114.089 33.4538L114.604 35.3862ZM121.496 34.38C130.42 34.38 137.501 37.4803 142.84 43.6542L144.353 42.3458C138.599 35.693 130.946 32.38 121.496 32.38V34.38ZM142.845 43.6592C148.23 49.8016 150.916 56.9767 150.916 65.23H152.916C152.916 56.4966 150.057 48.8517 144.348 42.3408L142.845 43.6592ZM150.916 65.23C150.916 73.38 148.112 80.461 142.474 86.5188L143.939 87.8812C149.915 81.459 152.916 73.8933 152.916 65.23H150.916ZM142.469 86.5243C136.965 92.5285 129.578 95.56 120.196 95.56V97.56C130.055 97.56 138.007 94.3515 143.944 87.8757L142.469 86.5243ZM120.196 95.56C110.255 95.56 101.671 91.8241 94.3956 84.2951L92.9574 85.6849C100.589 93.5826 109.684 97.56 120.196 97.56V95.56ZM94.3956 84.2951C87.1749 76.8225 83.4965 66.1409 83.4965 52.1H81.4965C81.4965 66.4858 85.2714 77.7308 92.9574 85.6849L94.3956 84.2951ZM120.196 76.76C123.243 76.76 125.777 75.65 127.711 73.4262L126.202 72.1138C124.669 73.8766 122.697 74.76 120.196 74.76V76.76ZM127.725 73.4102C129.617 71.1398 130.556 68.4397 130.556 65.36H128.556C128.556 68.0003 127.763 70.2402 126.188 72.1298L127.725 73.4102ZM130.556 65.36C130.556 61.404 129.307 57.9609 126.801 55.0832L125.292 56.3968C127.466 58.8924 128.556 61.8626 128.556 65.36H130.556ZM126.801 55.0832C124.215 52.1151 120.389 50.71 115.516 50.71V52.71C120.004 52.71 123.198 53.9916 125.292 56.3968L126.801 55.0832ZM115.516 50.71C112.246 50.71 109.629 51.1794 107.799 52.2429C105.886 53.3546 104.896 55.0825 104.896 57.3H106.896C106.896 55.7908 107.51 54.7237 108.804 53.9721C110.18 53.1723 112.374 52.71 115.516 52.71V50.71ZM104.896 57.3C104.896 62.7092 106.48 67.3242 109.686 71.0793L111.207 69.7807C108.346 66.4292 106.896 62.2908 106.896 57.3H104.896ZM109.686 71.0793C112.839 74.7734 116.345 76.76 120.196 76.76V74.76C117.115 74.76 114.12 73.1932 111.207 69.7807L109.686 71.0793Z" fill="#535353" fill-opacity="0.5"/>
</svg>
