<svg width="148" height="97" viewBox="0 0 148 97" fill="none" xmlns="http://www.w3.org/2000/svg">
<path d="M51.85 92.92L52.3171 93.8042L52.3231 93.801L51.85 92.92ZM18.7 92.92L18.22 93.7973L18.2298 93.8026L18.2397 93.8078L18.7 92.92ZM7.91 82.39L7.04382 82.8897L7.91 82.39ZM2.19 67.18L1.21242 67.3906L2.19 67.18ZM2.19 29.61L3.16691 29.8237L3.16758 29.8206L2.19 29.61ZM7.91 14.53L8.77197 15.037L8.77619 15.0297L7.91 14.53ZM18.7 4.12999L18.2397 3.24221L18.2329 3.2458L18.7 4.12999ZM51.85 4.12999L51.3829 5.01421L51.3897 5.01775L51.85 4.12999ZM62.77 14.53L61.9038 15.0297L61.9081 15.037L62.77 14.53ZM68.49 29.61L67.5124 29.8206L67.5131 29.8237L68.49 29.61ZM68.49 67.18L67.5124 66.9694L68.49 67.18ZM62.77 82.39L63.6362 82.8897L62.77 82.39ZM51.3829 92.0358C46.9634 94.3706 41.6281 95.56 35.34 95.56V97.56C41.8785 97.56 47.5499 96.3227 52.3171 93.8042L51.3829 92.0358ZM35.34 95.56C29.0526 95.56 23.6705 94.3708 19.1603 92.0322L18.2397 93.8078C23.0895 96.3225 28.8007 97.56 35.34 97.56V95.56ZM19.18 92.0427C14.7465 89.6169 11.2839 86.237 8.77619 81.8903L7.04382 82.8897C9.73609 87.5563 13.4668 91.1965 18.22 93.7973L19.18 92.0427ZM8.77619 81.8903C6.23338 77.4827 4.36137 72.512 3.16758 66.9694L1.21242 67.3906C2.4453 73.1146 4.38662 78.2839 7.04382 82.8897L8.77619 81.8903ZM3.16758 66.9694C1.9718 61.4176 1.37 55.2063 1.37 48.33H-0.63C-0.63 55.3203 -0.0184622 61.6758 1.21242 67.3906L3.16758 66.9694ZM1.37 48.33C1.37 41.4534 1.97185 35.2868 3.1669 29.8237L1.2131 29.3963C-0.0185189 35.0266 -0.63 41.34 -0.63 48.33H1.37ZM3.16758 29.8206C4.36119 24.2788 6.2323 19.3544 8.77194 15.037L7.04807 14.023C4.3877 18.5456 2.44548 23.6745 1.21242 29.3994L3.16758 29.8206ZM8.77619 15.0297C11.2822 10.686 14.7406 7.35271 19.1671 5.01419L18.2329 3.2458C13.4727 5.76062 9.73781 9.36068 7.04382 14.0303L8.77619 15.0297ZM19.1603 5.01775C23.6705 2.67914 29.0526 1.48999 35.34 1.48999V-0.510008C28.8007 -0.510008 23.0895 0.72751 18.2397 3.24224L19.1603 5.01775ZM35.34 1.48999C41.6281 1.48999 46.9634 2.67939 51.3829 5.01419L52.3171 3.2458C47.5499 0.727262 41.8785 -0.510008 35.34 -0.510008V1.48999ZM51.3897 5.01775C55.9025 7.35772 59.4006 10.6908 61.9038 15.0297L63.6362 14.0303C60.9394 9.35585 57.1575 5.7556 52.3103 3.24224L51.3897 5.01775ZM61.9081 15.037C64.4477 19.3544 66.3188 24.2788 67.5124 29.8206L69.4676 29.3994C68.2345 23.6745 66.2923 18.5456 63.6319 14.023L61.9081 15.037ZM67.5131 29.8237C68.7082 35.2868 69.31 41.4534 69.31 48.33H71.31C71.31 41.34 70.6985 35.0266 69.4669 29.3963L67.5131 29.8237ZM69.31 48.33C69.31 55.2063 68.7082 61.4176 67.5124 66.9694L69.4676 67.3906C70.6985 61.6758 71.31 55.3203 71.31 48.33H69.31ZM67.5124 66.9694C66.3186 72.512 64.4466 77.4827 61.9038 81.8903L63.6362 82.8897C66.2934 78.2839 68.2347 73.1146 69.4676 67.3906L67.5124 66.9694ZM61.9038 81.8903C59.3988 86.2322 55.8966 89.6118 51.3769 92.039L52.3231 93.801C57.1634 91.2016 60.9412 87.5611 63.6362 82.8897L61.9038 81.8903ZM22.77 48.33C22.77 57.5133 23.7339 64.5326 25.7411 69.2911C26.749 71.6807 28.0418 73.5529 29.6581 74.8302C31.2895 76.1194 33.1978 76.76 35.34 76.76V74.76C33.6255 74.76 32.1593 74.2577 30.8982 73.261C29.622 72.2525 28.5043 70.696 27.5839 68.5139C25.7344 64.1291 24.77 57.4333 24.77 48.33H22.77ZM35.34 76.76C37.4822 76.76 39.3905 76.1194 41.0219 74.8302C42.6382 73.5529 43.931 71.6807 44.9389 69.2911C46.9461 64.5326 47.91 57.5133 47.91 48.33H45.91C45.91 57.4333 44.9456 64.1291 43.0961 68.5139C42.1757 70.696 41.058 72.2525 39.7819 73.261C38.5207 74.2577 37.0545 74.76 35.34 74.76V76.76ZM47.91 48.33C47.91 39.2758 46.946 32.3521 44.9369 27.6566C43.9277 25.2982 42.6335 23.4509 41.0164 22.1911C39.385 20.9202 37.4786 20.29 35.34 20.29V22.29C37.0581 22.29 38.5262 22.7865 39.7873 23.7689C41.0627 24.7624 42.1789 26.2951 43.0981 28.4434C44.9457 32.7612 45.91 39.3575 45.91 48.33H47.91ZM35.34 20.29C33.2014 20.29 31.295 20.9202 29.6636 22.1911C28.0465 23.4509 26.7523 25.2982 25.7431 27.6566C23.734 32.3521 22.77 39.2758 22.77 48.33H24.77C24.77 39.3575 25.7343 32.7612 27.5819 28.4434C28.5011 26.2951 29.6173 24.7624 30.8927 23.7689C32.1538 22.7865 33.6219 22.29 35.34 22.29V20.29ZM84.8365 95L83.9438 94.5492L83.2112 96H84.8365V95ZM117.726 29.87L118.619 30.3208L118.621 30.3172L117.726 29.87ZM120.456 24.93L119.632 24.3635L119.62 24.3815L119.608 24.4L120.456 24.93ZM122.536 22.2L123.244 22.9071L123.276 22.875L123.305 22.8402L122.536 22.2ZM123.186 21.42L123.955 22.0602L124.186 21.782V21.42H123.186ZM123.186 21.16H124.186V19.542L122.739 20.2656L123.186 21.16ZM80.9365 21.55H79.9365V22.55H80.9365V21.55ZM80.9365 2.05V1.05H79.9365V2.05H80.9365ZM147.626 2.05H148.626V1.05H147.626V2.05ZM147.626 17.91L148.519 18.3614L148.626 18.1485V17.91H147.626ZM108.626 95V96H109.241L109.519 95.4514L108.626 95ZM85.7291 95.4508L118.619 30.3208L116.834 29.4192L83.9438 94.5492L85.7291 95.4508ZM118.621 30.3172C119.564 28.4309 120.459 26.8132 121.304 25.46L119.608 24.4C118.721 25.8201 117.796 27.4958 116.832 29.4228L118.621 30.3172ZM121.281 25.4965C122.239 24.102 122.884 23.2662 123.244 22.9071L121.829 21.4929C121.322 22.0005 120.58 22.9846 119.632 24.3635L121.281 25.4965ZM123.305 22.8402L123.955 22.0602L122.418 20.7798L121.768 21.5598L123.305 22.8402ZM124.186 21.42V21.16H122.186V21.42H124.186ZM122.739 20.2656C122.75 20.2603 122.663 20.2985 122.388 20.3442C122.138 20.3859 121.799 20.4237 121.36 20.455C120.485 20.5176 119.277 20.55 117.726 20.55V22.55C119.296 22.55 120.558 22.5174 121.503 22.45C121.974 22.4163 122.382 22.3729 122.717 22.317C123.028 22.2652 123.363 22.1897 123.634 22.0544L122.739 20.2656ZM117.726 20.55H80.9365V22.55H117.726V20.55ZM81.9365 21.55V2.05H79.9365V21.55H81.9365ZM80.9365 3.05H147.626V1.05H80.9365V3.05ZM146.626 2.05V17.91H148.626V2.05H146.626ZM146.734 17.4586L107.734 94.5486L109.519 95.4514L148.519 18.3614L146.734 17.4586ZM108.626 94H84.8365V96H108.626V94Z" fill="#DDDDDD" fill-opacity="0.5"/>
</svg>
