<svg width="152" height="97" viewBox="0 0 152 97" fill="none" xmlns="http://www.w3.org/2000/svg">
<path d="M51.85 92.92L52.3171 93.8042L52.3231 93.801L51.85 92.92ZM18.7 92.92L18.22 93.7973L18.2298 93.8026L18.2397 93.8078L18.7 92.92ZM7.91 82.39L7.04382 82.8897L7.91 82.39ZM2.19 67.18L1.21242 67.3906L2.19 67.18ZM2.19 29.61L3.16691 29.8237L3.16758 29.8206L2.19 29.61ZM7.91 14.53L8.77197 15.037L8.77619 15.0297L7.91 14.53ZM18.7 4.12999L18.2397 3.24221L18.2329 3.2458L18.7 4.12999ZM51.85 4.12999L51.3829 5.01421L51.3897 5.01775L51.85 4.12999ZM62.77 14.53L61.9038 15.0297L61.9081 15.037L62.77 14.53ZM68.49 29.61L67.5124 29.8206L67.5131 29.8237L68.49 29.61ZM68.49 67.18L67.5124 66.9694L68.49 67.18ZM62.77 82.39L63.6362 82.8897L62.77 82.39ZM51.3829 92.0358C46.9634 94.3706 41.6281 95.56 35.34 95.56V97.56C41.8785 97.56 47.5499 96.3227 52.3171 93.8042L51.3829 92.0358ZM35.34 95.56C29.0526 95.56 23.6705 94.3708 19.1603 92.0322L18.2397 93.8078C23.0895 96.3225 28.8007 97.56 35.34 97.56V95.56ZM19.18 92.0427C14.7465 89.6169 11.2839 86.237 8.77619 81.8903L7.04382 82.8897C9.73609 87.5563 13.4668 91.1965 18.22 93.7973L19.18 92.0427ZM8.77619 81.8903C6.23338 77.4827 4.36137 72.512 3.16758 66.9694L1.21242 67.3906C2.4453 73.1146 4.38662 78.2839 7.04382 82.8897L8.77619 81.8903ZM3.16758 66.9694C1.9718 61.4176 1.37 55.2063 1.37 48.33H-0.63C-0.63 55.3203 -0.0184622 61.6758 1.21242 67.3906L3.16758 66.9694ZM1.37 48.33C1.37 41.4534 1.97185 35.2868 3.1669 29.8237L1.2131 29.3963C-0.0185189 35.0266 -0.63 41.34 -0.63 48.33H1.37ZM3.16758 29.8206C4.36119 24.2788 6.2323 19.3544 8.77194 15.037L7.04807 14.023C4.3877 18.5456 2.44548 23.6745 1.21242 29.3994L3.16758 29.8206ZM8.77619 15.0297C11.2822 10.686 14.7406 7.35271 19.1671 5.01419L18.2329 3.2458C13.4727 5.76062 9.73781 9.36068 7.04382 14.0303L8.77619 15.0297ZM19.1603 5.01775C23.6705 2.67914 29.0526 1.48999 35.34 1.48999V-0.510008C28.8007 -0.510008 23.0895 0.72751 18.2397 3.24224L19.1603 5.01775ZM35.34 1.48999C41.6281 1.48999 46.9634 2.67939 51.3829 5.01419L52.3171 3.2458C47.5499 0.727262 41.8785 -0.510008 35.34 -0.510008V1.48999ZM51.3897 5.01775C55.9025 7.35772 59.4006 10.6908 61.9038 15.0297L63.6362 14.0303C60.9394 9.35585 57.1575 5.7556 52.3103 3.24224L51.3897 5.01775ZM61.9081 15.037C64.4477 19.3544 66.3188 24.2788 67.5124 29.8206L69.4676 29.3994C68.2345 23.6745 66.2923 18.5456 63.6319 14.023L61.9081 15.037ZM67.5131 29.8237C68.7082 35.2868 69.31 41.4534 69.31 48.33H71.31C71.31 41.34 70.6985 35.0266 69.4669 29.3963L67.5131 29.8237ZM69.31 48.33C69.31 55.2063 68.7082 61.4176 67.5124 66.9694L69.4676 67.3906C70.6985 61.6758 71.31 55.3203 71.31 48.33H69.31ZM67.5124 66.9694C66.3186 72.512 64.4466 77.4827 61.9038 81.8903L63.6362 82.8897C66.2934 78.2839 68.2347 73.1146 69.4676 67.3906L67.5124 66.9694ZM61.9038 81.8903C59.3988 86.2322 55.8966 89.6118 51.3769 92.039L52.3231 93.801C57.1634 91.2016 60.9412 87.5611 63.6362 82.8897L61.9038 81.8903ZM22.77 48.33C22.77 57.5133 23.7339 64.5326 25.7411 69.2911C26.749 71.6807 28.0418 73.5529 29.6581 74.8302C31.2895 76.1194 33.1978 76.76 35.34 76.76V74.76C33.6255 74.76 32.1593 74.2577 30.8982 73.261C29.622 72.2525 28.5043 70.696 27.5839 68.5139C25.7344 64.1291 24.77 57.4333 24.77 48.33H22.77ZM35.34 76.76C37.4822 76.76 39.3905 76.1194 41.0219 74.8302C42.6382 73.5529 43.931 71.6807 44.9389 69.2911C46.9461 64.5326 47.91 57.5133 47.91 48.33H45.91C45.91 57.4333 44.9456 64.1291 43.0961 68.5139C42.1757 70.696 41.058 72.2525 39.7819 73.261C38.5207 74.2577 37.0545 74.76 35.34 74.76V76.76ZM47.91 48.33C47.91 39.2758 46.946 32.3521 44.9369 27.6566C43.9277 25.2982 42.6335 23.4509 41.0164 22.1911C39.385 20.9202 37.4786 20.29 35.34 20.29V22.29C37.0581 22.29 38.5262 22.7865 39.7873 23.7689C41.0627 24.7624 42.1789 26.2951 43.0981 28.4434C44.9457 32.7612 45.91 39.3575 45.91 48.33H47.91ZM35.34 20.29C33.2014 20.29 31.295 20.9202 29.6636 22.1911C28.0465 23.4509 26.7523 25.2982 25.7431 27.6566C23.734 32.3521 22.77 39.2758 22.77 48.33H24.77C24.77 39.3575 25.7343 32.7612 27.5819 28.4434C28.5011 26.2951 29.6173 24.7624 30.8927 23.7689C32.1538 22.7865 33.6219 22.29 35.34 22.29V20.29ZM84.8365 57.43L85.7263 57.8863L85.7309 57.8772L84.8365 57.43ZM89.9065 49.63L89.1994 48.9229L89.1903 48.932L89.1815 48.9412L89.9065 49.63ZM95.1065 45.08L95.7065 45.88L96.6837 45.1471L95.7723 44.3339L95.1065 45.08ZM140.346 7.77L139.716 8.54649L139.723 8.55197L140.346 7.77ZM140.216 48.72L139.445 48.0843L138.753 48.9245L139.648 49.5429L140.216 48.72ZM142.036 88.24L142.711 88.9781L142.717 88.9728L142.036 88.24ZM91.3365 88.11L90.6505 88.8376L90.6558 88.8426L90.6612 88.8476L91.3365 88.11ZM123.706 40.53L123.318 41.4516L124.107 41.7835L124.557 41.0564L123.706 40.53ZM124.486 22.85L125.155 22.1067L124.486 22.85ZM110.966 22.59L111.65 23.3195L111.652 23.3182L110.966 22.59ZM112.526 34.68L111.926 35.48L111.933 35.485L111.94 35.4899L112.526 34.68ZM108.756 73.42L108.064 74.1414L108.756 73.42ZM124.876 74.07L124.24 73.299L124.876 74.07ZM125.396 62.37L124.616 62.9947L124.65 63.0379L124.689 63.0771L125.396 62.37ZM123.576 60.94L123.022 61.772L123.042 61.7852L123.062 61.7975L123.576 60.94ZM121.496 59.64L120.942 60.472L120.97 60.4911L121 60.5082L121.496 59.64ZM119.026 58.34L118.579 59.2344L118.593 59.2414L118.607 59.248L119.026 58.34ZM116.426 57.04L115.93 57.9082L115.954 57.922L115.979 57.9344L116.426 57.04ZM113.566 55.74L113.144 56.6462L113.169 56.6581L113.195 56.6685L113.566 55.74ZM110.576 54.31L111.024 53.4156L110.362 53.0847L109.852 53.6208L110.576 54.31ZM83.2365 67.7C83.2365 64.4068 84.0583 61.1389 85.7263 57.8863L83.9467 56.9737C82.148 60.4811 81.2365 64.0599 81.2365 67.7H83.2365ZM85.7309 57.8772C87.4438 54.4514 89.0818 51.95 90.6315 50.3187L89.1815 48.9412C87.4378 50.7767 85.6958 53.4753 83.9421 56.9828L85.7309 57.8772ZM90.6136 50.3371C92.3177 48.633 94.0155 47.1482 95.7065 45.88L94.5065 44.28C92.7308 45.6118 90.9619 47.1604 89.1994 48.9229L90.6136 50.3371ZM95.7723 44.3339C90.3271 39.4751 87.6565 33.8005 87.6565 27.27H85.6565C85.6565 34.4328 88.6192 40.6315 94.4407 45.8261L95.7723 44.3339ZM87.6565 27.27C87.6565 20.0832 90.1933 14.0138 95.2877 9.00292L93.8852 7.57707C88.4064 12.9661 85.6565 19.5501 85.6565 27.27H87.6565ZM95.2877 9.00292C100.326 4.04742 107.791 1.48999 117.856 1.48999V-0.510008C107.469 -0.510008 99.4205 2.13256 93.8852 7.57707L95.2877 9.00292ZM117.856 1.48999C126.681 1.48999 133.944 3.86157 139.716 8.54646L140.977 6.99354C134.789 1.97176 127.058 -0.510008 117.856 -0.510008V1.48999ZM139.723 8.55197C145.442 13.1106 148.316 19.3537 148.316 27.4H150.316C150.316 18.8063 147.211 11.9627 140.97 6.98803L139.723 8.55197ZM148.316 27.4C148.316 33.9381 145.421 40.8269 139.445 48.0843L140.988 49.3557C147.145 41.8797 150.316 34.5552 150.316 27.4H148.316ZM139.648 49.5429C146.693 54.4068 150.136 60.6152 150.136 68.22H152.136C152.136 59.8781 148.3 53.0866 140.785 47.8971L139.648 49.5429ZM150.136 68.22C150.136 75.6332 147.236 82.0476 141.356 87.5072L142.717 88.9728C148.971 83.1658 152.136 76.2334 152.136 68.22H150.136ZM141.362 87.502C135.532 92.8323 127.351 95.56 116.686 95.56V97.56C127.688 97.56 136.408 94.741 142.711 88.978L141.362 87.502ZM116.686 95.56C106.115 95.56 97.9324 92.7927 92.0117 87.3724L90.6612 88.8476C97.0473 94.694 105.764 97.56 116.686 97.56V95.56ZM92.0225 87.3824C86.1434 81.8392 83.2365 75.2941 83.2365 67.7H81.2365C81.2365 75.8793 84.3963 82.9408 90.6505 88.8376L92.0225 87.3824ZM124.557 41.0564C126.9 37.2704 128.086 33.2764 128.086 29.09H126.086C126.086 32.8769 125.019 36.5096 122.856 40.0036L124.557 41.0564ZM128.086 29.09C128.086 26.2428 127.125 23.8793 125.155 22.1067L123.818 23.5933C125.315 24.9407 126.086 26.7372 126.086 29.09H128.086ZM125.155 22.1067C123.189 20.3367 120.541 19.51 117.336 19.51V21.51C120.199 21.51 122.318 22.2433 123.818 23.5933L125.155 22.1067ZM117.336 19.51C114.404 19.51 112 20.2444 110.281 21.8618L111.652 23.3182C112.88 22.1622 114.722 21.51 117.336 21.51V19.51ZM110.283 21.8605C108.665 23.3767 107.886 25.3894 107.886 27.79H109.886C109.886 25.8573 110.494 24.4033 111.65 23.3195L110.283 21.8605ZM107.886 27.79C107.886 30.9107 109.275 33.4916 111.926 35.48L113.126 33.88C110.924 32.2284 109.886 30.216 109.886 27.79H107.886ZM111.94 35.4899C114.544 37.3755 118.351 39.3601 123.318 41.4516L124.095 39.6084C119.182 37.5399 115.536 35.6245 113.113 33.8701L111.94 35.4899ZM104.506 65.75C104.506 69.0526 105.699 71.8707 108.064 74.1414L109.449 72.6986C107.481 70.8093 106.506 68.5141 106.506 65.75H104.506ZM108.064 74.1414C110.425 76.4077 113.319 77.54 116.686 77.54V75.54C113.814 75.54 111.422 74.5923 109.449 72.6986L108.064 74.1414ZM116.686 77.54C120.306 77.54 123.288 76.6794 125.513 74.841L124.24 73.299C122.478 74.7539 120 75.54 116.686 75.54V77.54ZM125.513 74.841C127.778 72.9705 128.866 70.3241 128.866 67.05H126.866C126.866 69.8425 125.962 71.8761 124.24 73.299L125.513 74.841ZM128.866 67.05C128.866 66.3472 128.766 65.676 128.555 65.0438L126.658 65.6762C126.794 66.084 126.866 66.5394 126.866 67.05H128.866ZM128.555 65.0438C128.334 64.3813 127.96 63.7539 127.465 63.1598L125.928 64.4402C126.3 64.8861 126.532 65.2987 126.658 65.6762L128.555 65.0438ZM127.465 63.1598C127.014 62.619 126.56 62.1197 126.104 61.6629L124.689 63.0771C125.099 63.487 125.512 63.941 125.928 64.4402L127.465 63.1598ZM126.177 61.7453C125.719 61.1719 124.99 60.6219 124.091 60.0825L123.062 61.7975C123.896 62.298 124.381 62.7014 124.616 62.9947L126.177 61.7453ZM124.131 60.1079C123.338 59.5792 122.625 59.1329 121.993 58.7718L121 60.5082C121.582 60.8404 122.255 61.2608 123.022 61.772L124.131 60.1079ZM122.051 58.8079C121.464 58.4166 120.583 57.957 119.446 57.432L118.607 59.248C119.723 59.763 120.489 60.1701 120.942 60.472L122.051 58.8079ZM119.474 57.4456C118.434 56.9256 117.567 56.4922 116.874 56.1456L115.979 57.9344C116.673 58.2811 117.539 58.7144 118.579 59.2344L119.474 57.4456ZM116.923 56.1718C116.253 55.7893 115.247 55.3353 113.938 54.8115L113.195 56.6685C114.486 57.1847 115.386 57.5973 115.93 57.9082L116.923 56.1718ZM113.989 54.8338C112.692 54.2283 111.705 53.7562 111.024 53.4156L110.129 55.2044C110.835 55.5572 111.841 56.0383 113.144 56.6462L113.989 54.8338ZM109.852 53.6208C106.333 57.3198 104.506 61.3695 104.506 65.75H106.506C106.506 61.9838 108.06 58.4069 111.301 54.9992L109.852 53.6208Z" fill="#535353" fill-opacity="0.5"/>
</svg>
