<svg width="151" height="97" viewBox="0 0 151 97" fill="none" xmlns="http://www.w3.org/2000/svg">
<path d="M51.85 92.92L52.3171 93.8042L52.3231 93.801L51.85 92.92ZM18.7 92.92L18.22 93.7973L18.2298 93.8026L18.2397 93.8078L18.7 92.92ZM7.91 82.39L7.04382 82.8897L7.91 82.39ZM2.19 67.18L1.21242 67.3906L2.19 67.18ZM2.19 29.61L3.16691 29.8237L3.16758 29.8206L2.19 29.61ZM7.91 14.53L8.77197 15.037L8.77619 15.0297L7.91 14.53ZM18.7 4.12999L18.2397 3.24221L18.2329 3.2458L18.7 4.12999ZM51.85 4.12999L51.3829 5.01421L51.3897 5.01775L51.85 4.12999ZM62.77 14.53L61.9038 15.0297L61.9081 15.037L62.77 14.53ZM68.49 29.61L67.5124 29.8206L67.5131 29.8237L68.49 29.61ZM68.49 67.18L67.5124 66.9694L68.49 67.18ZM62.77 82.39L63.6362 82.8897L62.77 82.39ZM51.3829 92.0358C46.9634 94.3706 41.6281 95.56 35.34 95.56V97.56C41.8785 97.56 47.5499 96.3227 52.3171 93.8042L51.3829 92.0358ZM35.34 95.56C29.0526 95.56 23.6705 94.3708 19.1603 92.0322L18.2397 93.8078C23.0895 96.3225 28.8007 97.56 35.34 97.56V95.56ZM19.18 92.0427C14.7465 89.6169 11.2839 86.237 8.77619 81.8903L7.04382 82.8897C9.73609 87.5563 13.4668 91.1965 18.22 93.7973L19.18 92.0427ZM8.77619 81.8903C6.23338 77.4827 4.36137 72.512 3.16758 66.9694L1.21242 67.3906C2.4453 73.1146 4.38662 78.2839 7.04382 82.8897L8.77619 81.8903ZM3.16758 66.9694C1.9718 61.4176 1.37 55.2063 1.37 48.33H-0.63C-0.63 55.3203 -0.0184622 61.6758 1.21242 67.3906L3.16758 66.9694ZM1.37 48.33C1.37 41.4534 1.97185 35.2868 3.1669 29.8237L1.2131 29.3963C-0.0185189 35.0266 -0.63 41.34 -0.63 48.33H1.37ZM3.16758 29.8206C4.36119 24.2788 6.2323 19.3544 8.77194 15.037L7.04807 14.023C4.3877 18.5456 2.44548 23.6745 1.21242 29.3994L3.16758 29.8206ZM8.77619 15.0297C11.2822 10.686 14.7406 7.35271 19.1671 5.01419L18.2329 3.2458C13.4727 5.76062 9.73781 9.36068 7.04382 14.0303L8.77619 15.0297ZM19.1603 5.01775C23.6705 2.67914 29.0526 1.48999 35.34 1.48999V-0.510006C28.8007 -0.510006 23.0895 0.727512 18.2397 3.24224L19.1603 5.01775ZM35.34 1.48999C41.6281 1.48999 46.9634 2.67939 51.3829 5.01419L52.3171 3.2458C47.5499 0.727264 41.8785 -0.510006 35.34 -0.510006V1.48999ZM51.3897 5.01775C55.9025 7.35772 59.4006 10.6908 61.9038 15.0297L63.6362 14.0303C60.9394 9.35585 57.1575 5.7556 52.3103 3.24224L51.3897 5.01775ZM61.9081 15.037C64.4477 19.3544 66.3188 24.2788 67.5124 29.8206L69.4676 29.3994C68.2345 23.6745 66.2923 18.5456 63.6319 14.023L61.9081 15.037ZM67.5131 29.8237C68.7082 35.2868 69.31 41.4534 69.31 48.33H71.31C71.31 41.34 70.6985 35.0266 69.4669 29.3963L67.5131 29.8237ZM69.31 48.33C69.31 55.2063 68.7082 61.4176 67.5124 66.9694L69.4676 67.3906C70.6985 61.6758 71.31 55.3203 71.31 48.33H69.31ZM67.5124 66.9694C66.3186 72.512 64.4466 77.4827 61.9038 81.8903L63.6362 82.8897C66.2934 78.2839 68.2347 73.1146 69.4676 67.3906L67.5124 66.9694ZM61.9038 81.8903C59.3988 86.2322 55.8966 89.6118 51.3769 92.039L52.3231 93.801C57.1634 91.2016 60.9412 87.5611 63.6362 82.8897L61.9038 81.8903ZM22.77 48.33C22.77 57.5133 23.7339 64.5326 25.7411 69.2911C26.749 71.6807 28.0418 73.5529 29.6581 74.8302C31.2895 76.1194 33.1978 76.76 35.34 76.76V74.76C33.6255 74.76 32.1593 74.2577 30.8982 73.261C29.622 72.2525 28.5043 70.696 27.5839 68.5139C25.7344 64.1291 24.77 57.4333 24.77 48.33H22.77ZM35.34 76.76C37.4822 76.76 39.3905 76.1194 41.0219 74.8302C42.6382 73.5529 43.931 71.6807 44.9389 69.2911C46.9461 64.5326 47.91 57.5133 47.91 48.33H45.91C45.91 57.4333 44.9456 64.1291 43.0961 68.5139C42.1757 70.696 41.058 72.2525 39.7819 73.261C38.5207 74.2577 37.0545 74.76 35.34 74.76V76.76ZM47.91 48.33C47.91 39.2758 46.946 32.3521 44.9369 27.6566C43.9277 25.2982 42.6335 23.4509 41.0164 22.1911C39.385 20.9202 37.4786 20.29 35.34 20.29V22.29C37.0581 22.29 38.5262 22.7865 39.7873 23.7689C41.0627 24.7624 42.1789 26.2951 43.0981 28.4434C44.9457 32.7612 45.91 39.3575 45.91 48.33H47.91ZM35.34 20.29C33.2014 20.29 31.295 20.9202 29.6636 22.1911C28.0465 23.4509 26.7523 25.2982 25.7431 27.6566C23.734 32.3521 22.77 39.2758 22.77 48.33H24.77C24.77 39.3575 25.7343 32.7612 27.5819 28.4434C28.5011 26.2951 29.6173 24.7624 30.8927 23.7689C32.1538 22.7865 33.6219 22.29 35.34 22.29V20.29ZM85.8765 92.53L84.9222 92.231L84.6628 93.0591L85.446 93.4326L85.8765 92.53ZM91.9865 73.03L92.3804 72.1109L91.3631 71.6749L91.0322 72.731L91.9865 73.03ZM124.746 60.42L125.696 60.7338L126.13 59.42H124.746V60.42ZM124.486 60.42V59.42H124.124L123.846 59.6518L124.486 60.42ZM119.026 62.76L119.254 63.7338L119.269 63.7303L119.284 63.7262L119.026 62.76ZM89.6465 54.18L88.8901 54.8342L88.8945 54.8392L89.6465 54.18ZM89.9065 9.84999L89.1744 9.16875L89.1693 9.17427L89.9065 9.84999ZM139.566 12.06L138.847 12.7549L139.566 12.06ZM147.756 63.67L146.806 63.3578L146.802 63.3702L147.756 63.67ZM139.436 80.18L138.631 79.5868L138.625 79.5961L139.436 80.18ZM125.396 92.14L125.854 93.029L125.86 93.0264L125.396 92.14ZM122.796 26.62L122.036 27.2693L122.796 26.62ZM106.286 24.41L107.041 25.0662L107.048 25.0582L107.055 25.0502L106.286 24.41ZM107.196 41.31L106.442 41.9668L107.196 41.31ZM86.8307 92.829L92.9407 73.329L91.0322 72.731L84.9222 92.231L86.8307 92.829ZM91.5926 73.9491C95.9527 75.8178 100.333 76.76 104.726 76.76V74.76C100.627 74.76 96.5136 73.8822 92.3804 72.1109L91.5926 73.9491ZM104.726 76.76C109.887 76.76 114.273 75.4328 117.815 72.7188C121.35 70.0098 123.961 65.9844 125.696 60.7338L123.797 60.1062C122.152 65.0823 119.736 68.7269 116.598 71.1312C113.467 73.5306 109.532 74.76 104.726 74.76V76.76ZM124.746 59.42H124.486V61.42H124.746V59.42ZM123.846 59.6518C122.982 60.3724 121.34 61.1081 118.769 61.7938L119.284 63.7262C121.913 63.0253 123.911 62.201 125.127 61.1882L123.846 59.6518ZM118.799 61.7862C116.26 62.3785 113.911 62.67 111.746 62.67V64.67C114.089 64.67 116.592 64.3548 119.254 63.7338L118.799 61.7862ZM111.746 62.67C102.818 62.67 95.7364 59.6094 90.3984 53.5208L88.8945 54.8392C94.6499 61.4039 102.302 64.67 111.746 64.67V62.67ZM90.4028 53.5258C85.0136 47.2946 82.3265 40.0735 82.3265 31.82H80.3265C80.3265 40.5531 83.186 48.2388 88.8901 54.8342L90.4028 53.5258ZM82.3265 31.82C82.3265 23.6654 85.0914 16.5827 90.6436 10.5257L89.1693 9.17427C83.2816 15.5973 80.3265 23.1612 80.3265 31.82H82.3265ZM90.6386 10.5312C96.2308 4.52167 103.665 1.48999 113.046 1.48999V-0.510006C103.188 -0.510006 95.1955 2.69831 89.1744 9.16877L90.6386 10.5312ZM113.046 1.48999C122.988 1.48999 131.572 5.22588 138.847 12.7549L140.286 11.3651C132.654 3.46744 123.559 -0.510006 113.046 -0.510006V1.48999ZM138.847 12.7549C146.068 20.2275 149.746 30.9091 149.746 44.95H151.746C151.746 30.5642 147.972 19.3192 140.286 11.3651L138.847 12.7549ZM149.746 44.95C149.746 51.2578 148.767 57.3924 146.806 63.3578L148.707 63.9822C150.733 57.8143 151.746 51.4689 151.746 44.95H149.746ZM146.802 63.3702C144.928 69.3354 142.204 74.7389 138.631 79.5868L140.242 80.7732C143.949 75.7411 146.772 70.138 148.71 63.9698L146.802 63.3702ZM138.625 79.5961C135.169 84.3999 130.613 88.2869 124.933 91.2536L125.86 93.0264C131.794 89.9264 136.597 85.8401 140.248 80.7639L138.625 79.5961ZM124.939 91.251C119.371 94.1192 113.203 95.56 106.416 95.56V97.56C113.496 97.56 119.982 96.0542 125.854 93.029L124.939 91.251ZM106.416 95.56C98.4636 95.56 91.7726 94.2341 86.307 91.6274L85.446 93.4326C91.247 96.1992 98.2494 97.56 106.416 97.56V95.56ZM117.726 46.34C120.997 46.34 123.614 45.8706 125.444 44.8071C127.357 43.6954 128.346 41.9675 128.346 39.75H126.346C126.346 41.2592 125.733 42.3263 124.439 43.0779C123.063 43.8777 120.869 44.34 117.726 44.34V46.34ZM128.346 39.75C128.346 34.3408 126.763 29.7258 123.557 25.9707L122.036 27.2693C124.897 30.6208 126.346 34.7592 126.346 39.75H128.346ZM123.557 25.9707C120.403 22.2766 116.898 20.29 113.046 20.29V22.29C116.128 22.29 119.123 23.8568 122.036 27.2693L123.557 25.9707ZM113.046 20.29C109.985 20.29 107.447 21.4555 105.518 23.7698L107.055 25.0502C108.593 23.2045 110.562 22.29 113.046 22.29V20.29ZM105.532 23.7538C103.627 25.9448 102.686 28.6104 102.686 31.69H104.686C104.686 29.0496 105.48 26.8619 107.041 25.0662L105.532 23.7538ZM102.686 31.69C102.686 35.646 103.936 39.0891 106.442 41.9668L107.951 40.6532C105.777 38.1575 104.686 35.1873 104.686 31.69H102.686ZM106.442 41.9668C109.028 44.9349 112.854 46.34 117.726 46.34V44.34C113.239 44.34 110.045 43.0584 107.951 40.6532L106.442 41.9668Z" fill="#DDDDDD" fill-opacity="0.5"/>
</svg>
