<svg width="145" height="97" viewBox="0 0 145 97" fill="none" xmlns="http://www.w3.org/2000/svg">
<path d="M3.15 95H2.15V96H3.15V95ZM3.15 75.5V74.5H2.15V75.5H3.15ZM22.91 75.5V76.5H23.91V75.5H22.91ZM22.91 36.76L21.9102 36.7418L21.91 36.7509V36.76H22.91ZM23.04 29.61L24.0398 29.6282L24.0583 28.61H23.04V29.61ZM22.78 29.61V28.61H22.1334L21.8681 29.1996L22.78 29.61ZM19.14 34.55L19.8118 35.2907L19.8199 35.2834L19.8277 35.2759L19.14 34.55ZM13.55 39.62L12.8196 40.303L13.4923 41.0224L14.2218 40.3607L13.55 39.62ZM0.42 25.58L-0.264066 24.8506L-0.992461 25.5337L-0.31038 26.263L0.42 25.58ZM25.51 2.05V1.05H25.1145L24.8259 1.32058L25.51 2.05ZM45.14 2.05H46.14V1.05H45.14V2.05ZM45.14 75.5H44.14V76.5H45.14V75.5ZM65.03 75.5H66.03V74.5H65.03V75.5ZM65.03 95V96H66.03V95H65.03ZM4.15 95V75.5H2.15V95H4.15ZM3.15 76.5H22.91V74.5H3.15V76.5ZM23.91 75.5V36.76H21.91V75.5H23.91ZM23.9098 36.7782L24.0398 29.6282L22.0402 29.5918L21.9102 36.7418L23.9098 36.7782ZM23.04 28.61H22.78V30.61H23.04V28.61ZM21.8681 29.1996C21.1508 30.7936 20.0223 32.3367 18.4523 33.824L19.8277 35.2759C21.5511 33.6433 22.8492 31.8931 23.6919 30.0204L21.8681 29.1996ZM18.4682 33.8093L12.8782 38.8793L14.2218 40.3607L19.8118 35.2907L18.4682 33.8093ZM14.2804 38.937L1.15038 24.897L-0.31038 26.263L12.8196 40.303L14.2804 38.937ZM1.10407 26.3094L26.1941 2.77942L24.8259 1.32058L-0.264066 24.8506L1.10407 26.3094ZM25.51 3.05H45.14V1.05H25.51V3.05ZM44.14 2.05V75.5H46.14V2.05H44.14ZM45.14 76.5H65.03V74.5H45.14V76.5ZM64.03 75.5V95H66.03V75.5H64.03ZM65.03 94H3.15V96H65.03V94ZM125.579 92.92L126.046 93.8042L126.052 93.801L125.579 92.92ZM92.4285 92.92L91.9485 93.7973L91.9583 93.8026L91.9682 93.8078L92.4285 92.92ZM81.6385 82.39L80.7723 82.8897L81.6385 82.39ZM75.9185 67.18L74.9409 67.3906L75.9185 67.18ZM75.9185 29.61L76.8954 29.8237L76.8961 29.8206L75.9185 29.61ZM81.6385 14.53L82.5005 15.037L82.5047 15.0297L81.6385 14.53ZM92.4285 4.12999L91.9682 3.24221L91.9614 3.2458L92.4285 4.12999ZM125.579 4.12999L125.111 5.01421L125.118 5.01775L125.579 4.12999ZM136.499 14.53L135.632 15.0297L135.637 15.037L136.499 14.53ZM142.219 29.61L141.241 29.8206L141.242 29.8237L142.219 29.61ZM142.219 67.18L141.241 66.9694L142.219 67.18ZM136.499 82.39L137.365 82.8897L136.499 82.39ZM125.111 92.0358C120.692 94.3706 115.357 95.56 109.069 95.56V97.56C115.607 97.56 121.278 96.3227 126.046 93.8042L125.111 92.0358ZM109.069 95.56C102.781 95.56 97.399 94.3708 92.8888 92.0322L91.9682 93.8078C96.818 96.3225 102.529 97.56 109.069 97.56V95.56ZM92.9085 92.0427C88.475 89.6169 85.0124 86.237 82.5047 81.8903L80.7723 82.8897C83.4646 87.5563 87.1953 91.1965 91.9485 93.7973L92.9085 92.0427ZM82.5047 81.8903C79.9619 77.4827 78.0899 72.512 76.8961 66.9694L74.9409 67.3906C76.1738 73.1146 78.1151 78.2839 80.7723 82.8897L82.5047 81.8903ZM76.8961 66.9694C75.7003 61.4176 75.0985 55.2063 75.0985 48.33H73.0985C73.0985 55.3203 73.7101 61.6758 74.9409 67.3906L76.8961 66.9694ZM75.0985 48.33C75.0985 41.4534 75.7004 35.2868 76.8954 29.8237L74.9416 29.3963C73.71 35.0266 73.0985 41.34 73.0985 48.33H75.0985ZM76.8961 29.8206C78.0897 24.2788 79.9608 19.3544 82.5005 15.037L80.7766 14.023C78.1162 18.5456 76.174 23.6745 74.9409 29.3994L76.8961 29.8206ZM82.5047 15.0297C85.0107 10.686 88.4692 7.35271 92.8956 5.01419L91.9614 3.2458C87.2012 5.76062 83.4663 9.36068 80.7723 14.0303L82.5047 15.0297ZM92.8888 5.01775C97.399 2.67914 102.781 1.48999 109.069 1.48999V-0.510006C102.529 -0.510006 96.818 0.727512 91.9682 3.24224L92.8888 5.01775ZM109.069 1.48999C115.357 1.48999 120.692 2.67939 125.111 5.01419L126.046 3.2458C121.278 0.727264 115.607 -0.510006 109.069 -0.510006V1.48999ZM125.118 5.01775C129.631 7.35772 133.129 10.6908 135.632 15.0297L137.365 14.0303C134.668 9.35585 130.886 5.7556 126.039 3.24224L125.118 5.01775ZM135.637 15.037C138.176 19.3544 140.047 24.2788 141.241 29.8206L143.196 29.3994C141.963 23.6745 140.021 18.5456 137.36 14.023L135.637 15.037ZM141.242 29.8237C142.437 35.2868 143.039 41.4534 143.039 48.33H145.039C145.039 41.34 144.427 35.0266 143.195 29.3963L141.242 29.8237ZM143.039 48.33C143.039 55.2063 142.437 61.4176 141.241 66.9694L143.196 67.3906C144.427 61.6758 145.039 55.3203 145.039 48.33H143.039ZM141.241 66.9694C140.047 72.512 138.175 77.4827 135.632 81.8903L137.365 82.8897C140.022 78.2839 141.963 73.1146 143.196 67.3906L141.241 66.9694ZM135.632 81.8903C133.127 86.2322 129.625 89.6118 125.105 92.039L126.052 93.801C130.892 91.2016 134.67 87.5611 137.365 82.8897L135.632 81.8903ZM96.4985 48.33C96.4985 57.5133 97.4625 64.5326 99.4696 69.2911C100.478 71.6807 101.77 73.5529 103.387 74.8302C105.018 76.1194 106.926 76.76 109.069 76.76V74.76C107.354 74.76 105.888 74.2577 104.627 73.261C103.35 72.2525 102.233 70.696 101.312 68.5139C99.4629 64.1291 98.4985 57.4333 98.4985 48.33H96.4985ZM109.069 76.76C111.211 76.76 113.119 76.1194 114.75 74.8302C116.367 73.5529 117.659 71.6807 118.667 69.2911C120.675 64.5326 121.639 57.5133 121.639 48.33H119.639C119.639 57.4333 118.674 64.1291 116.825 68.5139C115.904 70.696 114.787 72.2525 113.51 73.261C112.249 74.2577 110.783 74.76 109.069 74.76V76.76ZM121.639 48.33C121.639 39.2758 120.675 32.3521 118.665 27.6566C117.656 25.2982 116.362 23.4509 114.745 22.1911C113.114 20.9202 111.207 20.29 109.069 20.29V22.29C110.787 22.29 112.255 22.7865 113.516 23.7689C114.791 24.7624 115.907 26.2951 116.827 28.4434C118.674 32.7612 119.639 39.3575 119.639 48.33H121.639ZM109.069 20.29C106.93 20.29 105.024 20.9202 103.392 22.1911C101.775 23.4509 100.481 25.2982 99.4716 27.6566C97.4625 32.3521 96.4985 39.2758 96.4985 48.33H98.4985C98.4985 39.3575 99.4628 32.7612 101.31 28.4434C102.23 26.2951 103.346 24.7624 104.621 23.7689C105.882 22.7865 107.35 22.29 109.069 22.29V20.29Z" fill="#535353" fill-opacity="0.5"/>
</svg>
