<svg width="36" height="36" viewBox="0 0 36 36" fill="none" xmlns="http://www.w3.org/2000/svg">
<path d="M26.8909 23.2807C26.1465 22.5307 24.3437 21.4362 23.469 20.9951C22.33 20.4213 22.2362 20.3745 21.3409 21.0396C20.7437 21.4835 20.3467 21.8801 19.6478 21.731C18.9489 21.582 17.4301 20.7415 16.1003 19.4159C14.7704 18.0902 13.8812 16.5274 13.7317 15.8309C13.5821 15.1343 13.9853 14.742 14.425 14.1434C15.0446 13.2996 14.9978 13.159 14.4681 12.0199C14.0551 11.134 12.9287 9.34805 12.1759 8.60742C11.3706 7.81195 11.3706 7.95258 10.8517 8.1682C10.4292 8.34595 10.0239 8.562 9.64089 8.81367C8.89089 9.31195 8.47464 9.72586 8.18355 10.3479C7.89246 10.9699 7.76167 12.4282 9.26496 15.1591C10.7682 17.8901 11.8229 19.2865 14.0059 21.4634C16.1889 23.6402 17.8675 24.8107 20.3214 26.187C23.357 27.8871 24.5214 27.5557 25.1453 27.2651C25.7692 26.9745 26.185 26.562 26.6842 25.812C26.9365 25.4296 27.153 25.0247 27.3311 24.6026C27.5471 24.0855 27.6878 24.0855 26.8909 23.2807Z" stroke="white" stroke-width="1.5" stroke-miterlimit="10"/>
</svg>
