<svg width="38" height="38" viewBox="0 0 38 38" fill="none" xmlns="http://www.w3.org/2000/svg">
<path d="M28.6 18.9378C28.6 18.889 28.6 18.8336 28.5979 18.7693C28.5957 18.5898 28.5915 18.3882 28.5872 18.1732C28.57 17.5549 28.54 16.9389 28.4929 16.3583C28.4286 15.5583 28.3343 14.8912 28.2057 14.3904C28.0701 13.8677 27.8041 13.391 27.4345 13.008C27.0648 12.6249 26.6044 12.3489 26.0993 12.2076C25.4929 12.0391 24.3057 11.935 22.6343 11.8707C21.8393 11.8397 20.9886 11.8197 20.1379 11.8087C19.84 11.8042 19.5636 11.802 19.315 11.7998H18.685C18.4365 11.802 18.16 11.8042 17.8622 11.8087C17.0115 11.8197 16.1607 11.8397 15.3657 11.8707C13.6943 11.9372 12.505 12.0414 11.9007 12.2076C11.3955 12.3486 10.9349 12.6245 10.5652 13.0076C10.1955 13.3907 9.92965 13.8676 9.79431 14.3904C9.6636 14.8912 9.57145 15.5583 9.50717 16.3583C9.46002 16.9389 9.43002 17.5549 9.41288 18.1732C9.40645 18.3882 9.40431 18.5898 9.40217 18.7693C9.40217 18.8336 9.40002 18.889 9.40002 18.9378V19.0619C9.40002 19.1106 9.40002 19.166 9.40217 19.2303C9.40431 19.4098 9.4086 19.6114 9.41288 19.8264C9.43002 20.4447 9.46002 21.0607 9.50717 21.6414C9.57145 22.4414 9.66574 23.1084 9.79431 23.6092C10.0686 24.6707 10.8743 25.5084 11.9007 25.792C12.505 25.9605 13.6943 26.0646 15.3657 26.1289C16.1607 26.1599 17.0115 26.1799 17.8622 26.1909C18.16 26.1954 18.4365 26.1976 18.685 26.1998H19.315C19.5636 26.1976 19.84 26.1954 20.1379 26.1909C20.9886 26.1799 21.8393 26.1599 22.6343 26.1289C24.3057 26.0624 25.495 25.9583 26.0993 25.792C27.1257 25.5084 27.9315 24.6729 28.2057 23.6092C28.3365 23.1084 28.4286 22.4414 28.4929 21.6414C28.54 21.0607 28.57 20.4447 28.5872 19.8264C28.5936 19.6114 28.5957 19.4098 28.5979 19.2303C28.5979 19.166 28.6 19.1106 28.6 19.0619V18.9378ZM27.0572 19.053C27.0572 19.0995 27.0572 19.1505 27.055 19.2103C27.0529 19.3832 27.0486 19.5738 27.0443 19.7799C27.0293 20.3693 26.9993 20.9588 26.9543 21.5062C26.8965 22.2197 26.815 22.8048 26.7143 23.197C26.5815 23.7089 26.1915 24.1145 25.6986 24.2497C25.2486 24.3738 24.115 24.4735 22.5743 24.5333C21.7943 24.5643 20.9543 24.5843 20.1165 24.5954C19.8229 24.5998 19.5507 24.602 19.3065 24.602H18.6936L17.8836 24.5954C17.0457 24.5843 16.2079 24.5643 15.4257 24.5333C13.885 24.4713 12.7493 24.3738 12.3015 24.2497C11.8086 24.1123 11.4186 23.7089 11.2857 23.197C11.185 22.8048 11.1036 22.2197 11.0457 21.5062C11.0007 20.9588 10.9729 20.3693 10.9557 19.7799C10.9493 19.5738 10.9472 19.381 10.945 19.2103C10.945 19.1505 10.9429 19.0973 10.9429 19.053V18.9466C10.9429 18.9001 10.9429 18.8491 10.945 18.7893C10.9472 18.6164 10.9515 18.4258 10.9557 18.2197C10.9707 17.6303 11.0007 17.0408 11.0457 16.4934C11.1036 15.7799 11.185 15.1948 11.2857 14.8026C11.4186 14.2907 11.8086 13.8851 12.3015 13.7499C12.7515 13.6258 13.885 13.5261 15.4257 13.4663C16.2057 13.4353 17.0457 13.4153 17.8836 13.4042C18.1772 13.3998 18.4493 13.3976 18.6936 13.3976H19.3065L20.1165 13.4042C20.9543 13.4153 21.7922 13.4353 22.5743 13.4663C24.115 13.5283 25.2507 13.6258 25.6986 13.7499C26.1915 13.8873 26.5815 14.2907 26.7143 14.8026C26.815 15.1948 26.8965 15.7799 26.9543 16.4934C26.9993 17.0408 27.0272 17.6303 27.0443 18.2197C27.0507 18.4258 27.0529 18.6186 27.055 18.7893C27.055 18.8491 27.0572 18.9023 27.0572 18.9466V19.053ZM17.0929 21.9693L22.0643 18.9776L17.0929 16.0303V21.9693Z" fill="#DDDDDD"/>
<circle cx="19" cy="19" r="18" stroke="#DDDDDD" stroke-width="2"/>
</svg>
