<svg width="38" height="38" viewBox="0 0 38 38" fill="none" xmlns="http://www.w3.org/2000/svg">
<path d="M19.3977 14.8846C16.899 14.8846 14.8825 16.9012 14.8825 19.3999C14.8825 21.8985 16.899 23.9151 19.3977 23.9151C21.8963 23.9151 23.9128 21.8985 23.9128 19.3999C23.9128 16.9012 21.8963 14.8846 19.3977 14.8846ZM19.3977 22.3344C17.7818 22.3344 16.4631 21.0157 16.4631 19.3999C16.4631 17.784 17.7818 16.4653 19.3977 16.4653C21.0135 16.4653 22.3322 17.784 22.3322 19.3999C22.3322 21.0157 21.0135 22.3344 19.3977 22.3344ZM24.0978 13.6474C23.5144 13.6474 23.0433 14.1185 23.0433 14.7019C23.0433 15.2853 23.5144 15.7564 24.0978 15.7564C24.6811 15.7564 25.1523 15.2875 25.1523 14.7019C25.1524 14.5634 25.1253 14.4261 25.0723 14.2981C25.0194 14.1701 24.9417 14.0538 24.8438 13.9558C24.7458 13.8579 24.6295 13.7802 24.5015 13.7273C24.3735 13.6744 24.2363 13.6472 24.0978 13.6474ZM28.1991 19.3999C28.1991 18.1846 28.2101 16.9804 28.1418 15.7674C28.0736 14.3584 27.7522 13.108 26.7219 12.0777C25.6894 11.0452 24.4412 10.726 23.0323 10.6577C21.8171 10.5895 20.6129 10.6005 19.3999 10.6005C18.1847 10.6005 16.9805 10.5895 15.7675 10.6577C14.3586 10.726 13.1081 11.0474 12.0779 12.0777C11.0454 13.1102 10.7262 14.3584 10.6579 15.7674C10.5897 16.9826 10.6007 18.1868 10.6007 19.3999C10.6007 20.6129 10.5897 21.8193 10.6579 23.0323C10.7262 24.4413 11.0476 25.6917 12.0779 26.722C13.1103 27.7545 14.3586 28.0737 15.7675 28.142C16.9827 28.2102 18.1869 28.1992 19.3999 28.1992C20.6151 28.1992 21.8193 28.2102 23.0323 28.142C24.4412 28.0737 25.6916 27.7523 26.7219 26.722C27.7544 25.6895 28.0736 24.4413 28.1418 23.0323C28.2123 21.8193 28.1991 20.6151 28.1991 19.3999ZM26.2618 24.591C26.1011 24.9916 25.9073 25.291 25.5969 25.5992C25.2865 25.9097 24.9893 26.1034 24.5887 26.2641C23.4307 26.7242 20.6811 26.6207 19.3977 26.6207C18.1142 26.6207 15.3624 26.7242 14.2045 26.2663C13.8038 26.1056 13.5044 25.9119 13.1962 25.6014C12.8858 25.291 12.6921 24.9938 12.5314 24.5932C12.0735 23.433 12.1769 20.6833 12.1769 19.3999C12.1769 18.1164 12.0735 15.3645 12.5314 14.2065C12.6921 13.8059 12.8858 13.5065 13.1962 13.1983C13.5066 12.8901 13.8038 12.6941 14.2045 12.5334C15.3624 12.0755 18.1142 12.179 19.3977 12.179C20.6811 12.179 23.4329 12.0755 24.5909 12.5334C24.9915 12.6941 25.2909 12.8879 25.5991 13.1983C25.9096 13.5087 26.1033 13.8059 26.264 14.2065C26.7219 15.3645 26.6184 18.1164 26.6184 19.3999C26.6184 20.6833 26.7219 23.433 26.2618 24.591Z" fill="#DDDDDD"/>
<circle cx="19" cy="19" r="18" stroke="#DDDDDD" stroke-width="2"/>
</svg>
