<svg width="80" height="80" viewBox="0 0 80 80" fill="none" xmlns="http://www.w3.org/2000/svg">
<path d="M51.0339 57.6649L40.5951 52.4181V41.9239C40.5951 41.3158 40.0292 40.8232 39.3309 40.8232C38.6324 40.8232 38.0666 41.316 38.0666 41.9239V52.4181L27.6278 57.6649C27.0231 57.9688 26.8159 58.6421 27.1651 59.1685C27.3992 59.5216 27.8242 59.719 28.2612 59.719C28.4756 59.719 28.6933 59.6714 28.8922 59.5714L39.331 54.3245L49.7698 59.5714C49.9691 59.6716 50.1864 59.719 50.4008 59.719C50.8377 59.719 51.2627 59.5216 51.4969 59.1685C51.846 58.6419 51.6386 57.9688 51.0339 57.6649Z" fill="#C4C4C4" fill-opacity="0.7"/>
<path d="M53.5266 37.2837V33.3695C53.5266 28.9071 49.511 27.4944 49.0079 27.3351L43.9706 25.5765V24.9623C45.3381 24.2629 46.3892 23.1444 46.8899 21.8105C48.72 21.6825 50.1652 20.3477 50.1652 18.7221C50.1652 17.7556 49.6543 16.8913 48.8557 16.3221V14.3803C48.8557 10.3109 45.0527 7 40.3784 7H39.7773C35.1031 7 31.3001 10.3109 31.3001 14.3803V16.3136C30.4941 16.8827 29.9772 17.7505 29.9772 18.7221C29.9772 20.3598 31.4441 21.7018 33.2935 21.8124C33.7946 23.1456 34.8456 24.2634 36.2123 24.9623V25.57L31.0404 27.3334C30.5626 27.4837 26.5161 28.8898 26.5161 33.3695V37.2904C26.5161 37.8983 27.0821 38.392 27.7803 38.392H30.9926C31.691 38.392 32.2568 37.8992 32.2568 37.2913C32.2568 36.6834 31.6908 36.1907 30.9926 36.1907H29.0446V33.3694C29.0446 30.3238 31.7794 29.4408 31.8857 29.4079C31.9052 29.4021 31.9246 29.396 31.944 29.3894L36.6799 27.7747L39.1957 29.9076C39.4318 30.108 39.7486 30.2198 40.0776 30.2198C40.0843 30.2198 40.0909 30.2198 40.0976 30.2197C40.434 30.2151 40.7545 30.0937 40.9879 29.8829L43.3633 27.7364L48.0886 29.3861C48.111 29.3938 48.1233 29.3981 48.1463 29.4047C48.2625 29.4408 50.9977 30.3238 50.9977 33.3694V36.1907H43.9067H36.1357H35.0102C34.3118 36.1907 33.746 36.6835 33.746 37.2913C33.746 37.8994 34.312 38.392 35.0102 38.392H36.1357H43.9067H52.2621C52.9608 38.3922 53.5266 37.8916 53.5266 37.2837ZM47.2135 18.0757C47.2591 18.0882 47.3063 18.0979 47.3542 18.1058C47.5289 18.2671 47.6369 18.4837 47.6369 18.7221C47.6369 19.0195 47.4697 19.2829 47.2135 19.4466V18.0757ZM32.9698 19.4721C32.6905 19.3109 32.506 19.035 32.506 18.7221C32.506 18.4962 32.6027 18.29 32.7613 18.1318C32.8332 18.1221 32.9026 18.1074 32.9696 18.0876V19.4721H32.9698ZM34.238 15.0255C34.2374 15.0255 34.2366 15.0255 34.236 15.0255C34.2354 15.0255 34.2345 15.0255 34.2338 15.0255C34.092 15.0255 33.9559 15.0467 33.8285 15.0844V14.3804C33.8287 11.5247 36.4973 9.20141 39.7773 9.20141H40.3784C43.6584 9.20141 46.327 11.5247 46.327 14.3803V15.0754C46.3056 15.0695 46.2835 15.0655 46.2614 15.0604C46.2506 15.0581 46.2403 15.0549 46.2294 15.0527C44.482 14.7066 43.9098 12.6744 43.9056 12.6592C43.7961 12.2372 43.4127 11.9106 42.9259 11.824C42.439 11.737 41.9395 11.9067 41.6481 12.2572C39.374 14.9946 34.3013 15.0255 34.238 15.0255ZM41.442 26.2999L40.0495 27.5586L38.7411 26.4493V25.7036C38.9962 25.73 39.2551 25.7451 39.5184 25.7451H40.6648C40.9279 25.7451 41.187 25.73 41.442 25.7036V26.2999ZM40.6648 23.5439H39.5184C37.3017 23.5439 35.4982 21.974 35.4982 20.0441V17.1575H35.4984C37.1359 17.0028 40.0273 16.502 42.2606 14.8816C42.7614 15.6273 43.5342 16.4318 44.685 16.9033V20.044C44.6848 21.9739 42.8816 23.5439 40.6648 23.5439Z" fill="#C4C4C4" fill-opacity="0.7"/>
<path d="M75.4818 60.9425L70.4446 59.1839V58.5697C71.8121 57.8703 72.8632 56.7518 73.3639 55.418C75.194 55.29 76.6392 53.9551 76.6392 52.3295C76.6392 51.363 76.1283 50.4988 75.3295 49.9297V47.9879C75.3295 43.9185 71.5265 40.6077 66.8523 40.6077H66.2512C61.5769 40.6077 57.7739 43.9185 57.7739 47.9879V49.9212C56.9681 50.4904 56.4511 51.3581 56.4511 52.3298C56.4511 53.9675 57.918 55.3095 59.7675 55.42C60.2684 56.7533 61.3192 57.8711 62.6863 58.5701V59.1778L57.5144 60.9412C57.0365 61.0914 52.9901 62.4977 52.9901 66.9773V70.8982C52.9901 71.5061 53.5561 71.9999 54.2543 71.9999H57.4666C58.165 71.9999 58.7308 71.5072 58.7308 70.8993C58.7308 70.2912 58.1648 69.7986 57.4666 69.7986H55.5186V66.9773C55.5186 63.9317 58.2534 63.0486 58.3595 63.0158C58.3791 63.0101 58.3984 63.004 58.4178 62.9973L63.1539 61.3826L65.6696 63.5156C65.9057 63.716 66.2222 63.8278 66.5515 63.8278C66.5582 63.8278 66.5647 63.8278 66.5715 63.8276C66.9079 63.8231 67.2283 63.7018 67.4618 63.4908L69.8373 61.3444L74.5625 62.994C74.5848 63.0019 74.5972 63.006 74.6201 63.0127C74.7364 63.0487 77.4715 63.9318 77.4715 66.9775V69.7988H70.3804H62.6094H61.4839C60.7855 69.7988 60.2197 70.2915 60.2197 70.8994C60.2197 71.5075 60.7856 72 61.4839 72H62.6094H70.3804H78.7358C79.4342 72 80 71.4996 80 70.8918V66.9775C80.0006 62.5145 75.985 61.102 75.4818 60.9425ZM73.6873 51.683C73.7329 51.6955 73.7801 51.7052 73.8281 51.713C74.0028 51.8744 74.1107 52.0908 74.1107 52.3294C74.1107 52.6269 73.9434 52.8901 73.6873 53.054V51.683ZM59.4438 53.0795C59.1644 52.9181 58.98 52.6423 58.98 52.3294C58.98 52.1035 59.0767 51.8974 59.2353 51.7392C59.3069 51.7294 59.3767 51.7148 59.4436 51.6949V53.0795H59.4438ZM60.7119 48.6325C60.7105 48.6325 60.7092 48.6325 60.7078 48.6325C60.6644 48.6325 60.6211 48.6344 60.5789 48.6382C60.5656 48.6394 60.5528 48.6417 60.5395 48.6433C60.5106 48.6466 60.4819 48.6497 60.4538 48.6548C60.4358 48.658 60.4181 48.6628 60.4003 48.6666C60.3777 48.6715 60.3549 48.6759 60.3328 48.6817C60.3225 48.6846 60.313 48.6884 60.3028 48.6911V47.9873C60.3027 45.132 62.9713 42.8087 66.2515 42.8087H66.8526C70.1326 42.8087 72.8012 45.132 72.8012 47.9875V48.6827C72.7807 48.6771 72.7596 48.6731 72.7387 48.6684C72.7268 48.6658 72.7156 48.6623 72.7037 48.6597C70.9563 48.3137 70.3842 46.2816 70.3799 46.2662C70.2704 45.8444 69.887 45.5176 69.4002 45.431C68.9134 45.3439 68.4138 45.5137 68.1224 45.8642C65.848 48.6017 60.7752 48.6325 60.7119 48.6325ZM67.916 59.9073L66.5235 61.1659L65.215 60.0564V59.311C65.4702 59.3374 65.7291 59.3525 65.9924 59.3525H67.1388C67.4019 59.3525 67.661 59.3372 67.9162 59.311V59.9073H67.916ZM67.1388 57.1511H65.9924C63.7757 57.1511 61.9722 55.5811 61.9722 53.6512V50.7656H61.9724C63.6097 50.6109 66.5008 50.1094 68.7346 48.4889C69.2354 49.2345 70.0082 50.0393 71.159 50.5105V53.6512C71.1588 55.581 69.3554 57.1511 67.1388 57.1511Z" fill="#C4C4C4" fill-opacity="0.7"/>
<path d="M22.4914 60.9425L17.4542 59.1839V58.5697C18.8217 57.8703 19.8728 56.7518 20.3734 55.418C22.2036 55.29 23.6488 53.9551 23.6488 52.3295C23.6488 51.363 23.1378 50.4988 22.3394 49.9297V47.9879C22.3394 43.9185 18.5364 40.6077 13.8621 40.6077H13.261C8.58679 40.6077 4.78379 43.9185 4.78379 47.9879V49.9212C3.97784 50.4904 3.46096 51.3581 3.46096 52.3298C3.46096 53.9675 4.92785 55.3095 6.77724 55.42C7.27834 56.7533 8.32928 57.8711 9.69601 58.5701V59.1778L4.5241 60.9412C4.04628 61.0911 0 62.4975 0 66.9769V70.8978C0 71.5057 0.565942 71.9995 1.26423 71.9995H4.4766C5.17504 71.9995 5.74083 71.5068 5.74083 70.8988C5.74083 70.2908 5.17488 69.7982 4.4766 69.7982H2.52861V66.9769C2.52861 63.9313 5.26348 63.0482 5.36973 63.0154C5.38926 63.0097 5.40864 63.0036 5.42801 62.9969L10.164 61.3822L12.6798 63.5152C12.9159 63.7155 13.2326 63.8274 13.5617 63.8274C13.5684 63.8274 13.5749 63.8274 13.5817 63.8272C13.9181 63.8227 14.2385 63.7014 14.472 63.4904L16.8473 61.344L21.5727 62.9936C21.595 63.0015 21.6074 63.0056 21.6303 63.0123C21.7466 63.0483 24.4818 63.9314 24.4818 66.977V69.7983H17.3908H9.61961H8.49413C7.79569 69.7983 7.2299 70.2911 7.2299 70.899C7.2299 71.507 7.79584 71.9996 8.49413 71.9996H9.61961H17.3908H25.7461C26.4444 71.9996 27.0104 71.4992 27.0104 70.8914V66.977C27.0104 62.5145 22.9944 61.102 22.4914 60.9425ZM20.6969 51.683C20.7425 51.6955 20.7897 51.7052 20.8377 51.713C21.0124 51.8744 21.1203 52.0908 21.1203 52.3294C21.1203 52.6269 20.9531 52.8901 20.6969 53.054V51.683ZM6.45317 53.0795C6.17395 52.9181 5.98942 52.6423 5.98942 52.3294C5.98942 52.1035 6.08614 51.8974 6.24474 51.7392C6.31661 51.7294 6.38599 51.7148 6.45302 51.6949V53.0795H6.45317ZM7.72147 48.6325C7.7199 48.6325 7.71865 48.6325 7.71725 48.6325C7.67381 48.6325 7.63053 48.6344 7.58834 48.6382C7.57506 48.6394 7.56225 48.6417 7.54896 48.6433C7.52037 48.6466 7.49131 48.6497 7.46318 48.6548C7.44521 48.658 7.42756 48.6628 7.40974 48.6666C7.38709 48.6715 7.36428 48.6759 7.34224 48.6817C7.33193 48.6846 7.32256 48.6884 7.31224 48.6911V47.9873C7.31224 45.132 9.98086 42.8087 13.2609 42.8087H13.862C17.142 42.8087 19.8106 45.132 19.8106 47.9875V48.6827C19.7903 48.6771 19.7691 48.6731 19.7481 48.6684C19.7362 48.6658 19.725 48.6623 19.7131 48.6597C17.9658 48.3137 17.3936 46.2816 17.3894 46.2662C17.2798 45.8444 16.8964 45.5176 16.4097 45.431C15.9231 45.3439 15.4231 45.5137 15.1318 45.8642C12.8574 48.6017 7.78475 48.6325 7.72147 48.6325ZM14.9256 59.9073L13.5331 61.1659L12.2246 60.0564V59.311C12.4798 59.3374 12.7387 59.3525 13.0018 59.3525H14.1482C14.4115 59.3525 14.6704 59.3372 14.9254 59.311V59.9073H14.9256ZM14.1482 57.1511H13.0018C10.7851 57.1511 8.98163 55.5811 8.98163 53.6512V50.7654H8.98179C10.6193 50.6108 13.5109 50.1091 15.744 48.4889C16.2448 49.2345 17.0176 50.0393 18.1684 50.5105V53.6512C18.1683 55.581 16.365 57.1511 14.1482 57.1511Z" fill="#C4C4C4" fill-opacity="0.7"/>
</svg>
