<svg width="80" height="80" viewBox="0 0 80 80" fill="none" xmlns="http://www.w3.org/2000/svg">
<path d="M71.3125 67.8801H69.3781V34.8643C69.3781 33.263 68.0073 31.9601 66.3224 31.9601H59.1877C57.5028 31.9601 56.132 33.263 56.132 34.8643V43.4398L52.6953 35.9815L55.5482 33.0184C57.0657 31.4424 57.4388 29.1696 56.4987 27.2288L55.8623 25.9161L54.7868 23.3603C54.5928 22.8997 54.0425 22.6752 53.5577 22.8599C53.0724 23.0442 52.8366 23.5666 53.0305 24.0277L53.7565 25.7519L51.1778 26.6709L50.1161 27.0492L49.3162 27.3345L46.7966 21.9134L47.5157 21.6407C48.001 21.457 48.2378 20.9346 48.0443 20.4735C47.8509 20.0124 47.3006 19.7879 46.8153 19.9717L36.5914 23.8444C36.0898 24.0361 35.54 24.03 35.0429 23.828C34.8312 23.7419 34.6397 23.6246 34.4744 23.481L47.308 17.7737C47.3597 17.7536 47.4109 17.732 47.4616 17.7091L47.7825 17.5628C48.3288 17.3228 48.9387 17.3009 49.5028 17.502C50.0624 17.7016 50.5054 18.0959 50.7515 18.6131L51.6602 20.7728C51.8541 21.2334 52.4049 21.4574 52.8897 21.2732C53.3746 21.0889 53.6104 20.5661 53.4164 20.1054L52.5004 17.9289C52.4965 17.9186 52.4915 17.9084 52.4871 17.8981C52.0348 16.9295 51.2108 16.1916 50.1673 15.8193C50.027 15.7693 49.8848 15.7272 49.742 15.6921C49.9374 15.0725 49.901 14.3841 49.584 13.756L48.6247 11.8536C48.2978 11.2045 47.7239 10.7157 47.0097 10.4768C46.2955 10.2378 45.5257 10.2776 44.8429 10.5885L44.051 10.9491C42.6422 11.5912 42.0457 13.2023 42.7205 14.5412L43.6798 16.4441C43.8167 16.7154 43.9988 16.9562 44.2139 17.1652L32.6812 22.2941C32.2269 22.4961 32.0177 22.9993 32.2038 23.4417C32.5926 24.3649 33.3363 25.0888 34.2986 25.4802C34.7938 25.6813 35.3156 25.7819 35.8378 25.7819C36.3305 25.7819 36.8237 25.6921 37.2943 25.513L45.0384 22.5793L47.6865 28.2782L41.5781 34.1689C40.6522 35.0616 40.4824 36.4342 41.1646 37.5066L45.629 44.5224C45.1023 45.0443 44.7775 45.7523 44.7775 46.531V51.9591C44.4182 51.8179 44.0249 51.7398 43.6129 51.7398H36.4792C34.7943 51.7398 33.423 53.0422 33.423 54.6435V57.3082C33.0637 57.167 32.6704 57.0884 32.2584 57.0884H28.4171L29.1185 51.6944C29.2687 50.5346 28.7292 49.409 27.7108 48.7571L22.5016 45.4175L22.3978 39.083L28.1607 35.7547C30.2506 34.5482 31.2572 32.1402 30.609 29.8991C30.5327 29.6349 30.3333 29.4179 30.0675 29.3104C29.8022 29.2033 29.4995 29.2168 29.2455 29.3478L20.7902 33.7129C20.7439 33.4421 20.6538 33.1732 20.5155 32.916L19.5035 31.0379C19.1585 30.3977 18.5713 29.923 17.8506 29.7023C17.13 29.4815 16.3617 29.5405 15.6878 29.8688L14.9067 30.249C13.5162 30.9261 12.9639 32.5517 13.6761 33.8733L14.6881 35.751C14.9042 36.1522 15.2153 36.488 15.5943 36.7373C14.9559 37.4701 14.5892 38.4012 14.5892 39.3856V41.86C14.5892 42.3562 15.0125 42.7584 15.5348 42.7584C16.0575 42.7584 16.4808 42.3562 16.4808 41.86V39.3856C16.4808 38.5205 16.9774 37.7264 17.7773 37.3134L28.9 31.572C28.803 32.6415 28.1804 33.6409 27.1787 34.2194L20.9841 37.797C20.9767 37.8012 20.9693 37.8054 20.962 37.8096L18.9975 38.9446C18.5511 39.2023 18.4093 39.7551 18.6805 40.1792C18.9517 40.6029 19.5335 40.7381 19.9795 40.4799L20.5244 40.1657L20.6085 45.3015L17.0941 46.6708L16.4808 46.9098V46.2336C16.4808 45.7374 16.0575 45.3352 15.5348 45.3352C15.0125 45.3352 14.5892 45.7374 14.5892 46.2336V48.2492C14.5892 48.3207 14.599 48.3956 14.6168 48.4648L16.3198 54.9989C16.371 55.1958 16.3449 55.403 16.2455 55.5826L12.5145 62.3253C11.4543 62.7812 10.7145 63.7956 10.7145 64.9713V67.8801H8.6875C8.16525 67.8801 7.74194 68.2823 7.74194 68.779C7.74194 69.2752 8.16525 69.6773 8.6875 69.6773H71.3125C71.8348 69.6773 72.2581 69.2752 72.2581 68.779C72.2581 68.2823 71.8348 67.8801 71.3125 67.8801ZM45.9234 16.1256C45.6856 16.0461 45.4946 15.8834 45.3859 15.6678L44.4265 13.7649C44.2021 13.3192 44.4004 12.7833 44.869 12.5696L45.661 12.209C45.79 12.1501 45.9288 12.1206 46.0681 12.1206C46.1734 12.1206 46.2792 12.1374 46.3816 12.1716C46.6194 12.2511 46.8103 12.4138 46.9191 12.6299L47.8785 14.5328C48.1029 14.978 47.9046 15.5139 47.436 15.7277L46.9836 15.9339C46.9821 15.9344 46.9812 15.9348 46.9802 15.9353L46.5613 16.1214C46.3555 16.1934 46.1321 16.1953 45.9234 16.1256ZM15.7691 31.8484L16.5502 31.4677C16.6856 31.4022 16.8318 31.3685 16.9794 31.3685C17.0764 31.3685 17.1748 31.383 17.2698 31.4125C17.5095 31.4859 17.7049 31.6435 17.8196 31.8568L18.8316 33.7349C19.0507 34.1413 18.9099 34.6337 18.5215 34.8835L18.238 35.0303L17.641 35.3207C17.4165 35.4302 17.161 35.4498 16.9213 35.3759C16.6816 35.3025 16.4862 35.1449 16.3715 34.9316L15.3595 33.0535C15.1228 32.6144 15.3064 32.0733 15.7691 31.8484ZM54.1523 31.8053L51.1389 34.9354C50.72 35.3708 50.6201 35.9928 50.8815 36.5264L54.1538 43.6268H53.761L47.8913 36.0409C47.8868 36.0353 47.8829 36.0302 47.879 36.025L47.8401 35.975C47.8307 35.9628 47.8214 35.9511 47.811 35.9394C47.6924 35.801 47.652 35.6154 47.7037 35.4437L49.5904 29.156L50.9273 28.6795L54.5018 27.4056L54.7804 27.9803C55.4015 29.2627 55.1549 30.7639 54.1523 31.8053ZM49.6952 43.6268L47.6653 38.7828L51.4131 43.6268H49.6952ZM42.9253 35.4297L46.8871 31.6094L45.885 34.9508C45.727 35.4769 45.7703 36.0316 45.9933 36.5221L45.6861 36.9243C45.349 37.3667 45.2741 37.9345 45.4873 38.4442L47.6594 43.6268H47.2696L42.7835 36.5764C42.5492 36.2083 42.6073 35.7365 42.9253 35.4297ZM27.2417 51.4742L26.5112 57.0884H26.0303L25.545 52.3969C25.4786 51.7389 25.0395 51.1669 24.3996 50.9041L22.7074 50.2105L22.5902 47.6417L26.6535 50.247C27.0793 50.5192 27.3042 50.9897 27.2417 51.4742ZM22.069 59.9921V62.2874C21.7096 62.1462 21.3164 62.0676 20.9044 62.0676H17.5932L22.1718 57.0019C22.6911 56.4276 22.9579 55.6948 22.9235 54.9381L22.7984 52.2051L23.65 52.554C23.6569 52.5568 23.6613 52.5624 23.6623 52.5708L24.1456 57.2423C22.9397 57.6314 22.069 58.7168 22.069 59.9921ZM17.9196 56.4183C18.2346 55.8487 18.3183 55.1911 18.1553 54.5663L16.6491 48.7861L17.7222 48.3675L20.6775 47.2166L21.0338 55.0162C21.0471 55.3151 20.9418 55.6041 20.737 55.8313L15.1001 62.0676H14.794L17.9196 56.4183ZM12.6061 64.9713C12.6061 64.361 13.1283 63.8648 13.7706 63.8648H20.9044C21.5467 63.8648 22.069 64.361 22.069 64.9713V67.8801H12.6061V64.9713ZM23.9606 64.9713V59.9921C23.9606 59.3818 24.4828 58.8856 25.1251 58.8856H25.1699H25.1729H27.347H27.35H32.2584C32.9007 58.8856 33.423 59.3818 33.423 59.9921V67.8801H23.9601V64.9713H23.9606ZM35.3146 59.9921V54.6435C35.3146 54.0332 35.8373 53.5365 36.4797 53.5365H43.6129C44.2552 53.5365 44.7775 54.0332 44.7775 54.6435V67.8801H35.3146V59.9921ZM58.0236 67.8801V55.2865C58.0236 54.7899 57.6003 54.3877 57.078 54.3877C56.5553 54.3877 56.132 54.7899 56.132 55.2865V67.8801H46.6691V46.531C46.6691 45.9202 47.1913 45.424 47.8337 45.424H54.9674C55.6097 45.424 56.132 45.9207 56.132 46.531V50.819C56.132 51.3152 56.5553 51.7173 57.0775 51.7173C57.6003 51.7173 58.0236 51.3152 58.0236 50.819V34.8643C58.0236 34.254 58.5458 33.7573 59.1877 33.7573H66.3219C66.9643 33.7573 67.486 34.254 67.486 34.8643V67.8806H58.0236V67.8801Z" fill="#C4C4C4" fill-opacity="0.7"/>
</svg>
