<svg width="80" height="80" viewBox="0 0 80 80" fill="none" xmlns="http://www.w3.org/2000/svg">
<path d="M62.5637 66.1084H58.0463C57.4196 66.1084 56.9116 66.6187 56.9116 67.2477C56.9116 67.8773 57.4196 68.387 58.0463 68.387H62.5637C63.1898 68.387 63.6978 67.8773 63.6978 67.2477C63.6978 66.6187 63.1898 66.1084 62.5637 66.1084Z" fill="#C4C4C4" fill-opacity="0.7"/>
<path d="M42.8415 66.059L39.2018 62.8589C38.7305 62.4453 38.014 62.4928 37.6011 62.9663C37.1888 63.4398 37.2367 64.1596 37.708 64.5744L41.3477 67.7739C41.5627 67.9626 41.8291 68.0557 42.0943 68.0557C42.4097 68.0557 42.7239 67.924 42.9484 67.6665C43.3607 67.1929 43.3128 66.4738 42.8415 66.059Z" fill="#C4C4C4" fill-opacity="0.7"/>
<path d="M27.5681 66.1084H23.0507C22.424 66.1084 21.9166 66.6187 21.9166 67.2477C21.9166 67.8773 22.424 68.387 23.0507 68.387H27.5681C28.1948 68.387 28.7028 67.8773 28.7028 67.2477C28.7028 66.6187 28.1948 66.1084 27.5681 66.1084Z" fill="#C4C4C4" fill-opacity="0.7"/>
<path d="M7.84625 66.059L4.20658 62.8589C3.73523 62.4453 3.01876 62.4928 2.60588 62.9663C2.1936 63.4398 2.24145 64.1596 2.71279 64.5744L6.35246 67.7739C6.56746 67.9626 6.83385 68.0557 7.09906 68.0557C7.41447 68.0557 7.72871 67.924 7.95257 67.6665C8.36544 67.1929 8.3176 66.4738 7.84625 66.059Z" fill="#C4C4C4" fill-opacity="0.7"/>
<path d="M78.3938 12.9724C78.1286 12.6087 77.7205 12.3672 77.2751 12.3114L61.5924 10.3355C60.9456 10.2536 60.313 10.5651 59.9805 11.127C59.6474 11.6896 59.6769 12.3969 60.0567 12.9285L63.6733 17.9948L47.0455 27.9096L37.8584 11.7916C37.5424 11.2374 37.0013 10.8612 36.3734 10.7597C35.7456 10.6583 35.1141 10.844 34.641 11.2706L18.3736 25.9265C17.9069 26.3472 17.868 27.067 18.2862 27.5358C18.7043 28.004 19.4208 28.0431 19.888 27.623L35.996 13.1107L45.501 29.7853C45.6923 30.1217 46.0036 30.3615 46.3769 30.46C46.7496 30.5591 47.1377 30.5045 47.4702 30.3063L65.5788 19.5085C65.9326 19.2979 66.1836 18.9454 66.2675 18.5413C66.352 18.1372 66.2634 17.713 66.0236 17.3777L62.7389 12.776L76.3312 14.4885L73.815 28.1867L70.5167 23.5168C70.0732 22.889 69.2391 22.708 68.5776 23.0961L62.6804 26.5508C62.4731 26.6238 62.2705 26.7151 62.0756 26.8285L59.6716 28.2229C59.4495 28.3517 59.2469 28.5024 59.0644 28.6697L56.8937 29.9413C56.7372 29.9651 56.5806 30.0001 56.4253 30.0482C56.3367 30.0749 56.2522 30.1128 56.1731 30.1603L43.8111 37.5918L35.328 24.1013C34.7202 23.1353 33.4786 22.8362 32.5005 23.4213L21.4367 30.0458C21.4344 30.047 21.432 30.047 21.4297 30.0482C21.3417 30.0749 21.2572 30.1128 21.178 30.1603L8.83613 37.5799L16.7038 30.4914C17.1704 30.0713 17.2094 29.3509 16.7912 28.8828C16.373 28.414 15.6559 28.3748 15.1893 28.7955L1.80901 40.8501C1.21007 41.3894 1.11793 42.2872 1.5946 42.9376C1.8982 43.3523 2.36659 43.5755 2.84444 43.5755C3.11674 43.5755 3.39198 43.5037 3.64243 43.3535L4.31519 42.9506C4.69499 43.5048 5.21477 43.957 5.8391 44.259C6.92651 44.7865 8.1734 44.783 9.25845 44.2495L14.337 41.7544L11.6949 54.7191C11.6554 54.9167 11.5485 55.0971 11.3961 55.2283C10.9188 55.6359 10.8609 56.3551 11.2667 56.8339C11.4912 57.0992 11.8101 57.2351 12.1308 57.2351C12.3907 57.2351 12.6518 57.1461 12.865 56.9639C13.4031 56.5046 13.7764 55.8691 13.917 55.1772L14.5715 51.9908C15.2123 53.0345 16.0853 53.9454 17.1574 54.6438L16.1769 57.0737C16.0328 57.3668 15.7073 57.568 15.1533 57.8925C15.0824 57.9347 15.0097 57.9768 14.9371 58.0201L8.48291 61.7347L7.88989 61.2434L9.33288 60.002C9.80836 59.5926 9.86388 58.8734 9.45633 58.3957C9.04936 57.9175 8.33347 57.8617 7.8574 58.2711L5.84501 60.0026C5.47584 60.3183 5.26616 60.7793 5.27088 61.2665C5.27443 61.7537 5.49179 62.2106 5.8645 62.5185L7.30985 63.7172C7.63058 63.9818 8.03046 64.1177 8.43212 64.1177C8.73335 64.1177 9.03636 64.0411 9.30866 63.8863L16.0723 59.9937C16.0771 59.9907 16.0818 59.9878 16.0865 59.9848C16.1574 59.9427 16.2277 59.9017 16.2968 59.8614C17.0009 59.4478 17.7994 58.9802 18.2454 58.01C18.2531 57.9934 18.2602 57.9768 18.2667 57.9602L19.1373 55.8032L21.6175 57.2351C22.1196 57.5246 22.4102 58.0866 22.3582 58.6663L21.9217 63.4863C21.888 63.859 22.0126 64.231 22.2637 64.5075C22.5153 64.7835 22.8727 64.9419 23.2448 64.9419H25.9636C26.5844 64.9419 27.1166 64.5176 27.2571 63.9118L28.9382 56.7052C29.2252 55.811 29.1112 54.8432 28.6222 54.0397C28.6086 54.0178 28.5944 53.9964 28.5796 53.975L23.0315 46.111L26.0746 37.8535C26.0764 37.8481 26.0782 37.8434 26.08 37.8381C26.3274 37.1367 26.458 36.4151 26.4775 35.6965C26.6446 35.7209 26.8124 35.7345 26.9795 35.7345C27.5856 35.7345 28.1833 35.5749 28.722 35.2622L31.126 33.8677C32.7952 32.8993 33.3693 30.7472 32.4054 29.0703L31.8561 28.1143C31.6092 27.6847 31.2796 27.3216 30.8927 27.0373L33.5064 25.4726L41.8643 38.7631L39.237 40.3427C38.8182 40.5943 38.6067 41.0868 38.7119 41.5657C38.9724 42.7507 39.7461 43.7327 40.8341 44.2596C41.9215 44.7871 43.1684 44.7836 44.2535 44.2501L54.2794 39.3239C54.8417 39.0474 55.075 38.365 54.7998 37.8001C54.5245 37.2346 53.8453 37.0008 53.2824 37.2773L43.257 42.2036C42.8004 42.4279 42.2765 42.429 41.8188 42.2071C41.6032 42.1027 41.4165 41.9555 41.2683 41.7763L44.0308 40.1154L57.5405 32.2003C57.7749 32.2407 57.9917 32.3635 58.1477 32.5605L58.1955 32.6205C58.2522 32.7563 58.3166 32.8899 58.3916 33.0204L58.9409 33.9763C58.9415 33.9775 58.9421 33.9787 58.9433 33.9799C59.2882 34.9649 59.2977 36.049 58.9391 37.0702L56.0006 45.0447L51.6598 44.5403L51.1028 44.475L51.1312 44.3326C51.254 43.7155 50.8559 43.115 50.2416 42.9916C49.6273 42.8693 49.0296 43.2681 48.9067 43.8852L46.6906 54.7156C46.6492 54.9161 46.5429 55.0983 46.3876 55.2306L40.8394 60.0026C40.4709 60.3189 40.2618 60.7793 40.2659 61.2671C40.2701 61.7537 40.4868 62.2106 40.8595 62.5185L42.3019 63.7142C42.6227 63.9806 43.0231 64.1177 43.4266 64.1177C43.7278 64.1177 44.0308 64.0411 44.3043 63.8857L51.0674 59.9931C51.0721 59.9901 51.0768 59.9878 51.0816 59.9848C51.1524 59.9427 51.2221 59.9017 51.2912 59.8614C51.9959 59.4478 52.7945 58.9802 53.2404 58.0094C53.2481 57.9934 53.2552 57.9768 53.2617 57.9602L54.1323 55.8032L56.6125 57.2345C57.1146 57.5246 57.4052 58.0866 57.3526 58.6663L56.9167 63.4863C56.883 63.859 57.0077 64.231 57.2587 64.5069C57.5097 64.7835 57.8677 64.9419 58.2398 64.9419H60.9586C61.5782 64.9419 62.1104 64.5182 62.2522 63.9118L63.9338 56.7052C64.2203 55.811 64.1063 54.8432 63.6172 54.0391C63.6036 54.0178 63.5894 53.9958 63.5747 53.975L58.0266 46.111L61.0697 37.8535C61.0714 37.8481 61.0732 37.8434 61.075 37.8381C61.3225 37.1367 61.4536 36.4145 61.4725 35.6965C61.6397 35.7209 61.8074 35.7345 61.9746 35.7345C62.5806 35.7345 63.1783 35.5749 63.717 35.2622L66.121 33.8677C67.7902 32.8993 68.3644 30.7472 67.4004 29.0703L66.8511 28.1143C66.6473 27.7601 66.3862 27.4527 66.0844 27.1946L69.0891 25.4346L72.8268 30.7258C73.2084 31.267 73.8723 31.5233 74.5167 31.3809C75.1611 31.2379 75.6555 30.7246 75.7754 30.0719L78.6827 14.2441C78.7642 13.8002 78.659 13.3368 78.3938 12.9724ZM26.7734 56.024C26.761 56.0602 26.7504 56.097 26.7421 56.1349L25.2188 62.6627H24.2737L24.6169 58.8722C24.7492 57.4095 24.0156 55.9907 22.7474 55.2591L18.6825 52.9123C16.484 51.6431 15.3116 49.2013 15.6577 46.7174L16.523 46.8177L21.1278 47.3535L26.7031 55.255C26.8354 55.4893 26.8614 55.7676 26.7734 56.024ZM23.9447 37.0702L21.0056 45.0441L16.4616 44.5166L16.1078 44.475L16.901 40.4946L19.2844 39.3233C19.8467 39.0468 20.08 38.3644 19.8047 37.7995C19.5295 37.234 18.8502 37.0002 18.2873 37.2767L15.4108 38.6901C15.4043 38.6931 15.3984 38.6961 15.3925 38.699L8.262 42.203C7.80601 42.4273 7.28209 42.4284 6.82433 42.2065C6.60874 42.1021 6.42268 41.9555 6.27442 41.7775L22.2849 32.1909C22.6145 32.1582 22.9406 32.2917 23.1532 32.5599L23.2005 32.6199C23.2572 32.7552 23.3216 32.8893 23.3966 33.0198L23.9459 33.9763C23.9471 33.9775 23.9477 33.9787 23.9482 33.9799C24.2938 34.9649 24.3026 36.049 23.9447 37.0702ZM29.9919 31.8942L27.5879 33.2886C27.3038 33.4536 26.973 33.4975 26.6564 33.4114C26.3841 33.3384 26.1508 33.177 25.9866 32.9522C25.7905 32.4608 25.5389 31.9873 25.2288 31.5429C25.1101 31.0284 25.3322 30.4736 25.8106 30.1965L28.2146 28.8021C28.4042 28.6923 28.6139 28.6359 28.8265 28.6359C28.9334 28.6359 29.0404 28.6501 29.1467 28.6786C29.4633 28.7641 29.7279 28.9682 29.8921 29.253L30.4414 30.209C30.7799 30.7982 30.5779 31.5542 29.9919 31.8942ZM51.1725 57.0737C51.0278 57.3674 50.7029 57.568 50.1483 57.8931C50.0774 57.9347 50.0054 57.9768 49.9327 58.0201L43.4785 61.7347L42.8855 61.2434L47.8607 56.9639C48.3952 56.507 48.7691 55.8727 48.9126 55.1772L49.5665 51.9914C50.2074 53.0351 51.081 53.9454 52.153 54.6438L51.1725 57.0737ZM61.769 56.024C61.7566 56.0602 61.746 56.097 61.7371 56.1349L60.2138 62.6627H59.2687L59.6119 58.8722C59.7442 57.4095 59.0106 55.9907 57.7431 55.2591L53.6781 52.9123C51.4797 51.6431 50.3066 49.2013 50.6527 46.7174L51.7431 46.8438L56.1229 47.3535L61.6981 55.255C61.8304 55.4893 61.8564 55.7676 61.769 56.024ZM63.8216 28.6359C63.9285 28.6359 64.036 28.6501 64.1417 28.6786C64.4583 28.7641 64.7229 28.9682 64.8871 29.253L65.4364 30.209C65.7749 30.7982 65.5735 31.5542 64.9869 31.8942L62.5829 33.2886C62.2994 33.4536 61.9681 33.4975 61.6515 33.4114C61.3792 33.3384 61.1459 33.177 60.9817 32.9522C60.7856 32.4608 60.5339 31.9873 60.2244 31.5435C60.1382 31.1702 60.2321 30.7774 60.4713 30.4831L63.577 28.6638C63.6574 28.6472 63.7395 28.6359 63.8216 28.6359Z" fill="#C4C4C4" fill-opacity="0.7"/>
</svg>
