<svg width="160" height="36" viewBox="0 0 160 36" fill="none" xmlns="http://www.w3.org/2000/svg">
<path d="M17.5302 26.5136H27.9288L30.2198 22.8139L32.7337 24.1649L29.5646 29.2822H15.6002L8.61576 18L15.6002 6.71778H29.5646L33.2819 12.7247L30.5585 13.9552L27.9288 9.71085H17.5302L12.3286 18.1122L17.5302 26.5136ZM33.429 0H11.143L0 18L11.143 36H33.429L44.572 18L33.429 0Z" fill="#FFF200"/>
<path d="M49.6265 21.8868V14.5828C49.6265 12.5251 50.2237 11.0119 51.4227 10.0433C52.6217 9.07475 54.1817 8.59253 56.1117 8.59253C58.0773 8.59253 59.6774 9.04565 60.9255 9.95188C62.169 10.8581 62.793 12.0637 62.793 13.5644C62.793 14.2087 62.6504 14.6493 62.3741 14.8863C62.0932 15.1232 61.6252 15.2396 60.97 15.2396C59.7711 15.2396 59.1649 14.8821 59.147 14.1671C59.1292 13.9385 59.1069 13.7431 59.0757 13.5768C59.049 13.4105 58.9732 13.1944 58.8529 12.9242C58.7325 12.654 58.5765 12.4295 58.3893 12.2424C58.2021 12.0595 57.9213 11.9015 57.5469 11.7727C57.1725 11.6396 56.7312 11.5773 56.2276 11.5773C54.2619 11.5773 53.2814 12.5791 53.2814 14.587V21.8909C53.2814 23.8988 54.2842 24.9006 56.2811 24.9006C56.8783 24.9006 57.3775 24.8133 57.7831 24.6387C58.1843 24.4641 58.474 24.2147 58.6523 23.8946C58.8306 23.5704 58.9509 23.2835 59.0178 23.0299C59.0802 22.7764 59.1248 22.4646 59.1426 22.0988C59.2005 21.3838 59.7978 21.0262 60.9388 21.0262C61.594 21.0262 62.0665 21.1426 62.3562 21.3796C62.6459 21.6165 62.793 22.0572 62.793 22.7015C62.793 24.2729 62.169 25.5283 60.9255 26.472C59.6819 27.4156 58.0684 27.8854 56.0849 27.8854C54.1594 27.8854 52.5994 27.399 51.4138 26.4304C50.2193 25.4576 49.6265 23.9445 49.6265 21.8868Z" fill="#FFF200"/>
<path d="M68.5473 23.6367C68.5473 25.0418 69.2292 25.7443 70.5887 25.7443C71.9615 25.7443 72.6523 25.0418 72.6523 23.6367V18.5236C72.6523 17.1226 71.9659 16.4159 70.5887 16.4159C69.2248 16.4159 68.5473 17.1185 68.5473 18.5236V23.6367ZM65.9933 23.6367V18.5236C65.9933 17.0727 66.4078 16.0085 67.2413 15.3351C68.0748 14.6658 69.1891 14.3291 70.5931 14.3291C71.9971 14.3291 73.1159 14.6658 73.9538 15.3351C74.7918 16.0085 75.2108 17.0686 75.2108 18.5236V23.6367C75.2108 25.0917 74.7918 26.1517 73.9538 26.8252C73.1159 27.4986 71.9971 27.8353 70.5931 27.8353C69.1891 27.8353 68.0748 27.4986 67.2413 26.8252C66.4123 26.1517 65.9933 25.0917 65.9933 23.6367Z" fill="#FFF200"/>
<path d="M78.3665 26.9709V15.0818C78.3665 14.8365 78.4913 14.6494 78.7409 14.5247C78.9905 14.3959 79.2891 14.3335 79.6412 14.3335C80.1137 14.3335 80.4747 14.4125 80.7199 14.5705C80.9695 14.7284 81.2458 15.0693 81.5444 15.5972L85.3331 22.4314V15.0693C85.3331 14.824 85.4579 14.6411 85.7075 14.5206C85.9571 14.4 86.2557 14.3377 86.6123 14.3377C86.9688 14.3377 87.2675 14.4 87.5171 14.5206C87.7667 14.6411 87.8915 14.824 87.8915 15.0693V26.9751C87.8915 27.2079 87.7622 27.3908 87.5082 27.5238C87.2541 27.6568 86.9555 27.7233 86.6123 27.7233C85.9169 27.7233 85.4266 27.4739 85.1414 26.9709L80.9204 19.6088V26.9709C80.9204 27.2037 80.7912 27.3866 80.5371 27.5196C80.283 27.6527 79.9844 27.7192 79.6412 27.7192C79.2891 27.7192 78.986 27.6527 78.7409 27.5196C78.4913 27.3866 78.3665 27.2037 78.3665 26.9709Z" fill="#FFF200"/>
<path d="M90.2314 15.3185C90.2314 15.0358 90.4053 14.803 90.7529 14.6118C91.1006 14.4206 91.4616 14.3291 91.8449 14.3291C92.3308 14.3291 92.616 14.4871 92.7096 14.803L95.7138 24.7342L98.7001 14.803C98.7937 14.4871 99.079 14.3291 99.5648 14.3291C99.9303 14.3291 100.291 14.4247 100.643 14.6201C100.996 14.8155 101.174 15.0483 101.174 15.3185C101.174 15.3434 101.16 15.4058 101.134 15.5014L97.363 27.0247C97.2827 27.2825 97.0866 27.4778 96.7746 27.6192C96.4626 27.7605 96.106 27.8312 95.7138 27.8312C94.809 27.8312 94.2608 27.561 94.0646 27.0247L90.276 15.5014C90.2448 15.4058 90.2314 15.3434 90.2314 15.3185Z" fill="#FFF200"/>
<path d="M103.51 26.9709V15.0818C103.51 14.8531 103.621 14.6661 103.844 14.533C104.067 14.4 104.33 14.3335 104.633 14.3335H111.626C111.889 14.3335 112.085 14.4374 112.223 14.6453C112.362 14.8531 112.428 15.0901 112.428 15.3603C112.428 15.6513 112.357 15.9007 112.214 16.1086C112.072 16.3164 111.876 16.4203 111.626 16.4203H106.068V20.0827H109.054C109.304 20.0827 109.5 20.1783 109.643 20.3654C109.785 20.5566 109.861 20.7769 109.861 21.0347C109.861 21.2674 109.794 21.4795 109.656 21.6665C109.518 21.8577 109.317 21.9492 109.059 21.9492H106.072V25.6323H111.631C111.88 25.6323 112.076 25.7363 112.219 25.9441C112.362 26.152 112.433 26.4056 112.433 26.6965C112.433 26.9626 112.366 27.2037 112.228 27.4116C112.09 27.6194 111.889 27.7233 111.631 27.7233H104.637C104.334 27.7233 104.071 27.6568 103.848 27.5238C103.621 27.3866 103.51 27.2037 103.51 26.9709Z" fill="#FFF200"/>
<path d="M117.456 20.3196H119.618C121.022 20.3196 121.722 19.6711 121.722 18.3783C121.722 17.073 121.022 16.4203 119.618 16.4203H117.456V20.3196ZM114.902 26.9709V15.0651C114.902 14.8698 114.982 14.6993 115.138 14.5538C115.294 14.4083 115.49 14.3335 115.727 14.3335H119.613C122.716 14.3335 124.271 15.6097 124.271 18.1621C124.271 19.164 124.039 19.9704 123.576 20.5815C123.108 21.1926 122.484 21.6083 121.699 21.8286L124.271 26.2808C124.334 26.3557 124.369 26.4513 124.369 26.576C124.369 26.8836 124.2 27.1663 123.861 27.4282C123.518 27.6901 123.161 27.8231 122.778 27.8231C122.399 27.8231 122.105 27.636 121.895 27.2536L119.105 22.1986H117.456V26.9792C117.456 27.212 117.331 27.3949 117.082 27.528C116.832 27.661 116.529 27.7275 116.177 27.7275C115.838 27.7275 115.539 27.661 115.285 27.528C115.031 27.3866 114.902 27.2037 114.902 26.9709Z" fill="#FFF200"/>
<path d="M126.375 25.6156C126.375 25.3371 126.491 25.0544 126.718 24.7634C126.945 24.4766 127.204 24.3311 127.494 24.3311C127.663 24.3311 127.859 24.4059 128.073 24.5597C128.287 24.7135 128.497 24.8798 128.702 25.0627C128.907 25.2457 129.196 25.4161 129.575 25.5657C129.954 25.7196 130.373 25.7944 130.832 25.7944C131.461 25.7944 131.986 25.6613 132.401 25.3911C132.82 25.1251 133.029 24.726 133.029 24.2022C133.029 23.8364 132.918 23.508 132.686 23.2212C132.454 22.9343 132.156 22.6974 131.781 22.5062C131.407 22.3191 131.001 22.1362 130.556 21.9574C130.11 21.7787 129.664 21.5791 129.21 21.363C128.759 21.1426 128.345 20.8932 127.975 20.6189C127.601 20.3445 127.298 19.9787 127.07 19.5214C126.843 19.0641 126.727 18.5403 126.727 17.9542C126.727 17.2974 126.87 16.7154 127.15 16.2165C127.431 15.7135 127.81 15.3228 128.283 15.0443C128.755 14.7657 129.259 14.562 129.794 14.429C130.328 14.3002 130.899 14.2336 131.505 14.2336C131.844 14.2336 132.205 14.2544 132.584 14.3002C132.963 14.3459 133.364 14.4165 133.792 14.5163C134.215 14.6161 134.563 14.7741 134.835 14.9861C135.102 15.1981 135.236 15.4517 135.236 15.7385C135.236 16.0129 135.142 16.2914 134.959 16.5824C134.777 16.8734 134.527 17.0189 134.211 17.0189C134.09 17.0189 133.774 16.9025 133.248 16.6697C132.722 16.4369 132.142 16.3205 131.501 16.3205C130.792 16.3205 130.244 16.4452 129.86 16.6946C129.473 16.944 129.281 17.2891 129.281 17.7297C129.281 18.0831 129.437 18.3948 129.749 18.6567C130.065 18.9186 130.453 19.1306 130.917 19.2969C131.38 19.459 131.884 19.6669 132.428 19.9205C132.972 20.1699 133.475 20.4401 133.943 20.7353C134.407 21.0263 134.799 21.4503 135.111 22.0073C135.427 22.5644 135.583 23.2129 135.583 23.957C135.583 25.2082 135.156 26.1768 134.295 26.8586C133.435 27.5403 132.307 27.8771 130.908 27.8771C129.664 27.8771 128.595 27.6401 127.708 27.162C126.821 26.6965 126.375 26.1768 126.375 25.6156Z" fill="#FFF200"/>
<path d="M140.709 23.6367C140.709 25.0418 141.391 25.7443 142.755 25.7443C144.128 25.7443 144.819 25.0418 144.819 23.6367V18.5236C144.819 17.1226 144.132 16.4159 142.755 16.4159C141.391 16.4159 140.709 17.1185 140.709 18.5236V23.6367ZM138.16 23.6367V18.5236C138.16 17.0727 138.574 16.0085 139.408 15.3351C140.241 14.6658 141.356 14.3291 142.755 14.3291C144.155 14.3291 145.273 14.6658 146.116 15.3351C146.954 16.0085 147.373 17.0686 147.373 18.5236V23.6367C147.373 25.0917 146.954 26.1517 146.116 26.8252C145.278 27.4986 144.159 27.8353 142.755 27.8353C141.356 27.8353 140.237 27.4986 139.408 26.8252C138.574 26.1517 138.16 25.0917 138.16 23.6367Z" fill="#FFF200"/>
<path d="M153.087 20.3196H155.249C156.648 20.3196 157.348 19.6711 157.348 18.3783C157.348 17.073 156.648 16.4203 155.249 16.4203H153.087V20.3196ZM150.533 26.9709V15.0651C150.533 14.8698 150.613 14.6993 150.769 14.5538C150.925 14.4083 151.121 14.3335 151.358 14.3335H155.249C158.351 14.3335 159.902 15.6097 159.902 18.1621C159.902 19.164 159.67 19.9704 159.207 20.5815C158.743 21.1926 158.115 21.6083 157.33 21.8286L159.902 26.2808C159.969 26.3557 160 26.4513 160 26.576C160 26.8836 159.831 27.1663 159.487 27.4282C159.149 27.6901 158.788 27.8231 158.409 27.8231C158.03 27.8231 157.736 27.636 157.526 27.2536L154.736 22.1986H153.087V26.9792C153.087 27.212 152.962 27.3949 152.713 27.528C152.463 27.661 152.164 27.7275 151.808 27.7275C151.469 27.7275 151.17 27.661 150.916 27.528C150.662 27.3866 150.533 27.2037 150.533 26.9709Z" fill="#FFF200"/>
</svg>
