<svg width="34" height="34" viewBox="0 0 34 34" fill="none" xmlns="http://www.w3.org/2000/svg">
<path d="M17 34C7.6 34 0 26.4 0 17C0 7.6 7.6 0 17 0C26.4 0 34 7.6 34 17C34 26.4 26.4 34 17 34ZM17 2C8.7 2 2 8.7 2 17C2 25.3 8.7 32 17 32C25.3 32 32 25.3 32 17C32 8.7 25.3 2 17 2Z" fill="black" fill-opacity="0.87"/>
<path d="M16.7381 27.4194L15.3548 25.9947L23.5559 17.5485L15.3548 9.10217L16.7381 7.67749L26.3225 17.5485L16.7381 27.4194Z" fill="black" fill-opacity="0.87"/>
<path d="M7.67743 16.4517H25.2258V18.6452H7.67743V16.4517Z" fill="black" fill-opacity="0.87"/>
</svg>
