<svg width="74" height="52" viewBox="0 0 74 52" fill="none" xmlns="http://www.w3.org/2000/svg">
<path d="M29.3635 35.5914L49.3627 25.2492L29.3635 14.8203V35.5914Z" fill="white"/>
<path opacity="0.12" d="M29.3635 14.8203L46.9062 26.5203L49.3627 25.2492L29.3635 14.8203Z" fill="#420000"/>
<path d="M73.2055 11.2089C73.2055 11.2089 72.4833 6.12444 70.2588 3.87111C67.4566 0.924444 64.3076 0.924444 62.8343 0.751111C52.5211 0 37.0072 0 37.0072 0H36.9783C36.9783 0 21.4648 0 11.0935 0.751111C9.64905 0.924444 6.50004 0.924444 3.66893 3.87111C1.47335 6.12444 0.751127 11.2089 0.751127 11.2089C0.751127 11.2089 0 17.2178 0 23.1978V28.8022C0 34.7822 0.751127 40.7622 0.751127 40.7622C0.751127 40.7622 1.47335 45.8467 3.69783 48.1C6.50004 51.0467 10.1979 50.96 11.8446 51.2489C17.7669 51.8267 36.9783 52 36.9783 52C36.9783 52 52.5208 51.9711 62.8632 51.22C64.3076 51.0467 67.4566 51.0467 70.2877 48.1C72.5122 45.8467 73.2344 40.7622 73.2344 40.7622C73.2344 40.7622 73.9856 34.7822 73.9856 28.8022V23.1978C73.9567 17.2178 73.2055 11.2089 73.2055 11.2089ZM29.3517 35.5911V14.82L49.3429 25.2489L29.3515 35.5911H29.3517Z" fill="url(#paint0_linear)"/>
<defs>
<linearGradient id="paint0_linear" x1="36.978" y1="0" x2="36.978" y2="52.0156" gradientUnits="userSpaceOnUse">
<stop stop-color="#E52D27"/>
<stop offset="1" stop-color="#BF171D"/>
</linearGradient>
</defs>
</svg>
