<svg width="100" height="100" viewBox="0 0 100 100" fill="none" xmlns="http://www.w3.org/2000/svg">
<path d="M59.3796 33.2428C61.2104 33.2428 62.6999 31.7142 62.6999 29.8352C62.6999 27.9563 61.2104 26.4275 59.3796 26.4275C57.5487 26.4275 56.0593 27.9563 56.0593 29.8352C56.0593 30.6026 56.3079 31.3114 56.7266 31.8817L51.2712 39.7057C50.9457 39.5959 50.5984 39.5357 50.2374 39.5357C49.365 39.5357 48.5705 39.8834 47.9774 40.4502L44.3411 38.3325C44.3896 38.1014 44.4156 37.8618 44.4156 37.616C44.4156 35.737 42.9261 34.2084 41.0953 34.2084C39.2645 34.2084 37.775 35.737 37.775 37.616C37.775 37.8618 37.801 38.1014 37.8495 38.3325L34.2132 40.4502C33.6201 39.8834 32.8256 39.5358 31.9531 39.5358C30.1223 39.5358 28.6328 41.0646 28.6328 42.9436C28.6328 44.8225 30.1223 46.3513 31.9531 46.3513C33.7839 46.3513 35.2734 44.8225 35.2734 42.9436C35.2734 42.6978 35.2474 42.4582 35.1989 42.227L38.8352 40.1094C39.4283 40.6762 40.2228 41.0239 41.0953 41.0239C41.9677 41.0239 42.7621 40.6762 43.3553 40.1095L46.9916 42.2272C46.9431 42.4583 46.9171 42.698 46.9171 42.9437C46.9171 44.8227 48.4066 46.3514 50.2374 46.3514C52.0684 46.3514 53.5579 44.8227 53.5579 42.9437C53.5579 42.1762 53.3091 41.4673 52.8904 40.897L58.3458 33.073C58.6711 33.1826 59.0186 33.2428 59.3796 33.2428ZM59.3796 28.472C60.1119 28.472 60.7077 29.0835 60.7077 29.8352C60.7077 30.5868 60.1119 31.1983 59.3796 31.1983C58.6472 31.1983 58.0514 30.5868 58.0514 29.8352C58.0513 29.0835 58.6471 28.472 59.3796 28.472ZM31.9527 44.3065C31.2204 44.3065 30.6246 43.695 30.6246 42.9433C30.6246 42.1916 31.2204 41.5801 31.9527 41.5801C32.6851 41.5801 33.2809 42.1916 33.2809 42.9433C33.2809 43.695 32.6851 44.3065 31.9527 44.3065ZM41.095 38.979C40.3627 38.979 39.7669 38.3676 39.7669 37.6159C39.7669 36.8643 40.3627 36.2528 41.095 36.2528C41.8273 36.2528 42.4231 36.8643 42.4231 37.6159C42.4233 38.3676 41.8273 38.979 41.095 38.979ZM50.2373 44.3065C49.505 44.3065 48.9092 43.695 48.9092 42.9433C48.9092 42.1916 49.505 41.5801 50.2373 41.5801C50.9697 41.5801 51.5655 42.1916 51.5655 42.9433C51.5655 43.695 50.9696 44.3065 50.2373 44.3065Z" fill="#282C2E"/>
<path d="M71.6213 66.4881H64.6505H26.6818H18.8176C18.3625 66.4881 17.9922 66.108 17.9922 65.6409V23.4659C17.9922 22.9988 18.3625 22.6188 18.8176 22.6188H23.5133C24.0634 22.6188 24.5094 22.1612 24.5094 21.5965C24.5094 21.0318 24.0634 20.5742 23.5133 20.5742H18.8176C17.264 20.5742 16 21.8714 16 23.4659V65.6409C16 67.2354 17.264 68.5326 18.8176 68.5326H25.6858V70.7825C25.6858 72.0641 26.7018 73.1068 27.9506 73.1068H37.9214L33.2278 82.5115C32.977 83.0141 33.1705 83.6301 33.6602 83.8875C33.8055 83.964 33.9606 84.0001 34.1135 84.0001C34.4754 84.0001 34.8246 83.797 35.0008 83.4436L40.1597 73.1068H51.1727L56.3316 83.4436C56.5079 83.797 56.857 84.0001 57.2189 84.0001C57.3718 84.0001 57.5269 83.9637 57.6722 83.8875C58.1619 83.6301 58.3555 83.0141 58.1046 82.5115L53.411 73.1068H63.3818C64.6306 73.1068 65.6466 72.0643 65.6466 70.7825V68.5326H71.6213C72.1715 68.5326 72.6174 68.075 72.6174 67.5103C72.6174 66.9456 72.1715 66.4881 71.6213 66.4881ZM63.6545 70.7825C63.6545 70.9368 63.5321 71.0623 63.3818 71.0623H27.9506C27.8003 71.0623 27.6779 70.9368 27.6779 70.7825V68.5326H63.6545V70.7825Z" fill="#282C2E"/>
<path d="M27.4977 22.6186H41.1338H50.1984H72.5146C72.9698 22.6186 73.34 22.9987 73.34 23.4658V33.1857C73.34 33.7505 73.786 34.208 74.3361 34.208C74.8862 34.208 75.3322 33.7505 75.3322 33.1857V23.4658C75.3322 21.8713 74.0682 20.5741 72.5146 20.5741H51.1946V18.5647C51.1946 17.1505 50.0735 16 48.6955 16H42.6368C41.2589 16 40.1377 17.1505 40.1377 18.5647V20.5741H27.4977C26.9476 20.5741 26.5016 21.0317 26.5016 21.5964C26.5016 22.1611 26.9476 22.6186 27.4977 22.6186ZM42.1299 18.5647C42.1299 18.2779 42.3573 18.0446 42.6368 18.0446H48.6955C48.9749 18.0446 49.2024 18.2779 49.2024 18.5647V20.5741H42.13V18.5647H42.1299Z" fill="#282C2E"/>
<path d="M29.9323 51.5776C29.3821 51.5776 28.9362 52.0352 28.9362 52.5999V61.6331C28.9362 62.1978 29.3821 62.6553 29.9323 62.6553H33.9733C34.5234 62.6553 34.9694 62.1978 34.9694 61.6331V52.5999C34.9694 52.0352 34.5234 51.5776 33.9733 51.5776H29.9323ZM32.9772 60.6109H30.9283V53.6223H32.9772V60.6109Z" fill="#282C2E"/>
<path d="M39.0745 46.3535C38.5244 46.3535 38.0784 46.8111 38.0784 47.3758V61.6333C38.0784 62.198 38.5244 62.6556 39.0745 62.6556H43.1155C43.6657 62.6556 44.1116 62.198 44.1116 61.6333V47.3758C44.1116 46.8111 43.6657 46.3535 43.1155 46.3535H39.0745ZM42.1196 60.611H40.0707V48.3981H42.1196V60.611Z" fill="#282C2E"/>
<path d="M48.2167 51.5776C47.6666 51.5776 47.2206 52.0352 47.2206 52.5999V61.6331C47.2206 62.1978 47.6666 62.6553 48.2167 62.6553H52.2578C52.8079 62.6553 53.2539 62.1978 53.2539 61.6331V52.5999C53.2539 52.0352 52.8079 51.5776 52.2578 51.5776H48.2167ZM51.2617 60.6109H49.2128V53.6223H51.2617V60.6109Z" fill="#282C2E"/>
<path d="M57.359 57.6101C56.8089 57.6101 56.3629 58.0677 56.3629 58.6324V61.6334C56.3629 62.1981 56.8089 62.6557 57.359 62.6557H61.4001C61.9502 62.6557 62.3962 62.1981 62.3962 61.6334C62.3962 61.0687 61.9502 60.6111 61.4001 60.6111H58.3551V58.6324C58.3551 58.0677 57.9091 57.6101 57.359 57.6101Z" fill="#282C2E"/>
<path d="M83.492 67.4495L77.7775 57.2913C79.2253 55.7076 80.2795 53.7725 80.8427 51.6156C81.7427 48.1683 81.2808 44.5676 79.542 41.4768C75.9526 35.096 67.9745 32.9024 61.7575 36.586C55.5404 40.2697 53.4028 48.4576 56.9922 54.8381C58.731 57.9289 61.5385 60.1398 64.8975 61.0636C66.0192 61.3721 67.1573 61.5246 68.2882 61.5246C69.2766 61.5246 70.2592 61.4079 71.2203 61.177L76.9336 71.3355C77.6339 72.5809 78.9092 73.2778 80.219 73.2777C80.8609 73.2777 81.5111 73.1102 82.106 72.758C83.2742 72.066 84 70.7756 84 69.3904C84 68.7118 83.8244 68.0408 83.492 67.4495ZM65.413 59.0887C62.5681 58.3063 60.1901 56.4337 58.7173 53.8158C55.6772 48.4116 57.4879 41.4768 62.7535 38.3566C64.4857 37.3303 66.3787 36.8428 68.2485 36.8428C72.0622 36.8428 75.7767 38.8728 77.8167 42.499C79.2893 45.1169 79.6806 48.1666 78.9182 51.0865C78.1559 54.0064 76.3312 56.4466 73.7804 57.9581C71.2297 59.4696 68.2581 59.8708 65.413 59.0887ZM81.1103 70.9871C80.2532 71.495 79.1536 71.1927 78.6591 70.3135L73.1623 60.54C73.7132 60.3092 74.2526 60.0393 74.7767 59.7288C75.3012 59.418 75.7979 59.0721 76.2682 58.6975L81.7666 68.4715C81.9244 68.7524 82.0078 69.0703 82.0078 69.3906C82.0078 70.0473 81.6638 70.6592 81.1103 70.9871Z" fill="#282C2E"/>
<path d="M77.2985 51.0373C78.0017 48.7125 77.8343 46.2236 76.8269 44.0291C76.5923 43.5183 75.9989 43.2994 75.5013 43.5399C75.0035 43.7806 74.7902 44.3897 75.0247 44.9004C75.8194 46.6314 75.9512 48.5954 75.396 50.4309C74.8376 52.2765 73.6314 53.8253 71.9995 54.7922C70.2727 55.8156 68.2607 56.0871 66.3348 55.5576C64.4088 55.0279 62.7988 53.7601 61.8019 51.9879C59.7437 48.3294 60.9696 43.6345 64.5344 41.5222C67.1409 39.978 70.3755 40.1844 72.7756 42.048C73.2144 42.3887 73.839 42.3 74.1709 41.8496C74.5028 41.3994 74.4163 40.7582 73.9775 40.4176C70.9373 38.0567 66.8395 37.7954 63.5382 39.7515C61.3505 41.0478 59.7856 43.1408 59.1317 45.645C58.4779 48.1492 58.8135 50.7649 60.0766 53.0101C61.3396 55.2554 63.3791 56.8613 65.8191 57.5325C66.6339 57.7566 67.4608 57.8674 68.2823 57.8674C69.9209 57.8674 71.5384 57.4263 72.9955 56.5628C75.063 55.338 76.5911 53.3758 77.2985 51.0373Z" fill="#282C2E"/>
</svg>
