<svg width="100" height="100" viewBox="0 0 100 100" fill="none" xmlns="http://www.w3.org/2000/svg">
<path d="M83.4576 25.1412L80.2287 22.5825L83.4576 20.0243C83.9597 19.6259 84.1315 19.0049 83.8957 18.4415C83.6588 17.8775 83.0737 17.5133 82.4044 17.5133H69.0424V16.9966C69.0424 16.4462 68.5467 16 67.935 16C67.3233 16 66.8276 16.4462 66.8276 16.9966V30.4377L57.7322 34.8822C57.6821 34.5222 57.5622 34.1683 57.3725 33.8353L56.091 31.5837C55.2112 30.0377 53.0978 29.425 51.381 30.2161L50.39 30.6727C49.5576 31.0566 48.9413 31.7082 48.6542 32.5092C48.3671 33.3097 48.4438 34.1631 48.8704 34.9118L50.152 37.1639C50.4512 37.6894 50.8933 38.1055 51.4133 38.3971C50.7331 39.2214 50.4102 40.2352 50.0782 41.2883L49.8395 42.0489C49.6729 42.5786 50.0153 43.1295 50.6039 43.279C50.7042 43.3049 50.8057 43.3168 50.9054 43.3168C51.3885 43.3168 51.8324 43.0305 51.9708 42.591L52.2094 41.832C52.6949 40.2917 52.9929 39.4668 53.9418 39.003L55.643 38.1714L55.8529 38.0749C55.9226 38.0427 55.9878 38.0064 56.0541 37.9706L68.1789 32.0454C68.1022 33.4093 67.2864 34.698 65.9432 35.4321L58.0585 39.7433C58.0493 39.748 58.0401 39.7527 58.0314 39.7579L55.5773 41.0995C55.055 41.3853 54.8884 41.9986 55.2061 42.4691C55.5053 42.9127 56.1279 43.0704 56.6358 42.8478L54.7737 47.9134L53.4126 48.4156L49.7115 49.7805L50.778 46.3876C50.944 45.8579 50.6022 45.3069 50.0136 45.157C49.4244 45.0066 48.8128 45.3152 48.6462 45.8449L46.9611 51.2078C46.9392 51.2768 46.9248 51.3525 46.9213 51.4246L46.4803 58.7148C46.467 58.9929 46.5327 59.5184 46.3898 59.7897L41.4919 69.0627H37.9326C35.8475 69.0627 34.1514 70.5891 34.1514 72.465V75.3418C33.6741 75.1451 33.1443 75.0352 32.5857 75.0352H23.5469C21.4623 75.0352 19.7662 76.5609 19.7662 78.4374V82.0068H17.1074C16.4958 82.0068 16 82.4529 16 83.0034C16 83.5538 16.4958 84 17.1074 84H82.4032C83.0149 84 83.5107 83.5538 83.5107 83.0034C83.5107 82.4529 83.0149 82.0068 82.4032 82.0068H79.5231V56.3185C79.5231 54.4425 77.827 52.9162 75.7424 52.9162H69.0424V35.5297C70.2704 34.0319 70.7252 32.0688 70.1551 30.2032C70.0657 29.91 69.8322 29.6693 69.5209 29.5505C69.3682 29.4919 69.2044 29.4659 69.0424 29.4716V27.6522H82.4038C83.0737 27.6522 83.6588 27.288 83.8952 26.7246C84.1315 26.1612 83.9597 25.5397 83.4576 25.1412ZM50.7625 33.1214C50.868 32.8272 51.0939 32.5876 51.3995 32.447L52.3905 31.9904C52.5773 31.9043 52.7767 31.8633 52.9739 31.8633C53.4408 31.8633 53.8922 32.0931 54.1194 32.4921L55.4015 34.7442C55.7007 35.2703 55.507 35.9079 54.9749 36.23L54.614 36.4059L53.8525 36.7571C53.2223 37.0477 52.4464 36.8225 52.1236 36.2549L50.8414 34.0034C50.6852 33.7284 50.657 33.415 50.7625 33.1214ZM48.5372 69.3694C48.1607 69.2148 47.7514 69.1136 47.3214 69.0778L48.5372 67.6246V69.3694ZM53.7954 61.3389C54.3281 60.7646 54.4751 60.0938 54.5938 59.5532C54.6238 59.4245 55.1703 56.7382 55.1703 56.7382C55.1703 56.7382 55.6874 57.0282 55.7416 57.0489C55.7791 57.064 55.8056 57.0972 55.8096 57.1361L56.4121 62.6473H52.7006L53.7954 61.3389ZM60.3443 55.838L59.4093 62.6426H58.6373L58.0141 56.941C57.9346 56.2105 57.4377 55.5729 56.7095 55.256L55.5958 54.6204L56.3377 50.9198C56.3377 50.9198 59.4634 54.2614 59.5361 54.3465C60.1829 55.1034 60.4043 55.4064 60.3443 55.838ZM48.3821 60.6613C48.6058 60.0554 48.7096 59.4385 48.6923 58.8113L49.0947 52.1624L54.2168 50.2734L53.2858 54.9146C53.2829 54.927 53.28 54.94 53.2783 54.9525L52.5081 58.79C52.4078 59.1874 52.3201 59.7903 52.0446 60.1176L44.5611 69.0627H43.9443L48.3821 60.6613ZM21.9811 78.4369C21.9811 77.6603 22.6833 77.0284 23.5469 77.0284H32.5857C33.4493 77.0284 34.152 77.6603 34.152 78.4369V82.0068H21.9811V78.4369ZM36.3663 78.4369V72.465C36.3663 71.6879 37.069 71.056 37.9326 71.056H46.9714C47.835 71.056 48.5372 71.6879 48.5372 72.465V82.0068H36.3669V78.4369H36.3663ZM77.3082 56.3185V82.0068H65.1379V76.0312C65.1379 75.4808 64.6421 75.0346 64.0304 75.0346C63.4182 75.0346 62.9224 75.4808 62.9224 76.0312V82.0068H50.7521V66.049C50.7521 65.2724 51.4542 64.6405 52.3178 64.6405H61.3566C62.2202 64.6405 62.9224 65.2724 62.9224 66.049V71.0451C62.9224 71.5955 63.4182 72.0417 64.0298 72.0417C64.6421 72.0417 65.1373 71.5955 65.1373 71.0451V56.3185C65.1373 55.5413 65.84 54.9094 66.7036 54.9094H67.9235C67.9269 54.9094 67.931 54.9099 67.935 54.9099C67.9385 54.9099 67.9425 54.9094 67.9459 54.9094H75.7418C76.6054 54.9094 77.3082 55.5418 77.3082 56.3185ZM66.7036 52.9162C64.619 52.9162 62.923 54.4425 62.923 56.3185V62.9539C62.5263 62.791 62.094 62.6877 61.6391 62.6577L62.5425 56.0834C62.7201 54.802 61.9937 53.9527 61.2915 53.131C61.2171 53.0438 56.9125 48.4441 56.9125 48.4441L59.5534 41.2588L66.8276 37.2816V52.9162H66.7036ZM69.0424 25.6585V19.5071H80.7585L78.2352 21.5065C77.8916 21.7789 77.6944 22.1711 77.6944 22.583C77.6944 22.995 77.8916 23.3872 78.2352 23.6595L80.7585 25.659H69.0424V25.6585Z" fill="#282C2E"/>
</svg>
