<svg width="100" height="100" viewBox="0 0 100 100" fill="none" xmlns="http://www.w3.org/2000/svg">
<path d="M83.3701 29.6309L50.3662 16.0725C50.131 15.9758 49.8692 15.9758 49.6338 16.0725L36.6774 21.395C36.1657 21.605 35.9151 22.2065 36.1172 22.7382C36.3194 23.2698 36.8983 23.5307 37.4096 23.3202L50 18.1482L82.0078 31.2975V32.8976H17.9922V31.2975L33.6819 24.8518C34.1936 24.6417 34.4442 24.0402 34.2421 23.5086C34.0399 22.9769 33.4611 22.7164 32.9497 22.9266L16.6299 29.6309C16.2498 29.787 16 30.1688 16 30.5934V33.9326C16 34.5043 16.4459 34.9678 16.9961 34.9678H19.266V35.7774C19.266 37.6271 20.714 39.1321 22.4941 39.1321H22.9608V45.6586C22.9608 46.2303 23.4067 46.6938 23.9569 46.6938C24.5072 46.6938 24.953 46.2303 24.953 45.6586V39.1425H75.0472V45.6586C75.0472 46.2303 75.4931 46.6938 76.0433 46.6938C76.5936 46.6938 77.0394 46.2303 77.0394 45.6586V39.1321H77.5061C79.2861 39.1321 80.7343 37.6272 80.7343 35.7774V34.9678H83.0039C83.5541 34.9678 84 34.5043 84 33.9326V30.5934C84 30.1688 83.7502 29.787 83.3701 29.6309ZM78.7418 35.7775C78.7418 36.4857 78.1873 37.0619 77.5059 37.0619H22.494C21.8125 37.0619 21.258 36.4858 21.258 35.7775V34.9679H78.7417V35.7775H78.7418Z" fill="#282C2E"/>
<path d="M54.2284 26.0822C54.2284 23.6593 52.3316 21.6882 50.0001 21.6882C47.6686 21.6882 45.7717 23.6594 45.7717 26.0822C45.7717 28.5049 47.6686 30.4762 50.0001 30.4762C52.3316 30.4762 54.2284 28.5051 54.2284 26.0822ZM47.7639 26.0822C47.7639 24.8008 48.767 23.7585 50.0001 23.7585C51.2331 23.7585 52.2362 24.8009 52.2362 26.0822C52.2362 27.3634 51.2331 28.406 50.0001 28.406C48.767 28.406 47.7639 27.3635 47.7639 26.0822Z" fill="#282C2E"/>
<path d="M67.1808 64.657H65.8754H64.7724H63.467C61.5989 64.657 59.8584 65.6186 58.8111 67.2291C58.5033 67.7028 58.6231 68.3462 59.0789 68.6663C59.5351 68.9865 60.1541 68.8618 60.462 68.388C61.1332 67.3556 62.2453 66.737 63.4408 66.7281L62.2922 70.7855C62.1904 71.1446 62.2834 71.5329 62.5351 71.8008L64.6113 74.0106C64.7987 74.21 65.0557 74.3225 65.324 74.3225C65.5923 74.3225 65.8493 74.21 66.0367 74.0106L68.1129 71.8008C68.3647 71.5329 68.4576 71.1446 68.3558 70.7855L67.207 66.7279C69.1927 66.7427 70.804 68.4254 70.804 70.4925V75.3691H62.8829C62.3327 75.3691 61.8868 75.8326 61.8868 76.4042C61.8868 76.9759 62.3327 77.4394 62.8829 77.4394H71.8002C72.3504 77.4394 72.7963 76.9759 72.7963 76.4042V70.4925C72.7963 67.2748 70.2772 64.657 67.1808 64.657ZM65.324 71.8057L64.368 70.7883L65.324 67.4117L66.28 70.7883L65.324 71.8057Z" fill="#282C2E"/>
<path d="M40.9211 68.6663C41.3769 68.3462 41.4967 67.7028 41.1889 67.2291C40.1417 65.6186 38.4013 64.657 36.533 64.657H35.2276H34.1246H32.8192C29.7229 64.657 27.2039 67.2748 27.2039 70.4925V76.4042C27.2039 76.9759 27.6497 77.4394 28.2 77.4394H37.1171C37.6674 77.4394 38.1132 76.9759 38.1132 76.4042C38.1132 75.8326 37.6674 75.3691 37.1171 75.3691H29.1959V70.4925C29.1959 68.4256 30.8072 66.7427 32.7929 66.7279L31.644 70.7855C31.5423 71.1446 31.6353 71.5329 31.887 71.8008L33.9632 74.0106C34.1506 74.21 34.4076 74.3225 34.6759 74.3225C34.9442 74.3225 35.2012 74.21 35.3886 74.0106L37.4648 71.8008C37.7166 71.5329 37.8095 71.1446 37.7077 70.7855L36.559 66.7281C37.7546 66.737 38.8667 67.3556 39.5379 68.388C39.8459 68.8618 40.4653 68.9865 40.9211 68.6663ZM34.676 71.8059L33.72 70.7884L34.676 67.4118L35.632 70.7884L34.676 71.8059Z" fill="#282C2E"/>
<path d="M28.407 55.4885V57.6239C28.407 61.216 31.2193 64.1386 34.676 64.1386C38.1328 64.1386 40.9451 61.216 40.9451 57.6239V56.0164V54.9821C40.9451 54.866 40.942 54.7506 40.9361 54.6361C40.9348 54.6102 40.9321 54.5847 40.9305 54.559C40.925 54.4693 40.9186 54.3798 40.9096 54.291C40.9068 54.2641 40.9028 54.2375 40.8997 54.2107C40.8898 54.1232 40.879 54.036 40.8656 53.9496C40.8615 53.9226 40.8562 53.8959 40.8518 53.8691C40.8376 53.7834 40.8223 53.6979 40.8048 53.6133C40.7991 53.5855 40.7923 53.5577 40.7862 53.53C40.768 53.4474 40.7488 53.3655 40.7277 53.2842C40.7199 53.2541 40.7113 53.2241 40.703 53.1942C40.6816 53.1165 40.6593 53.0393 40.6353 52.9629C40.6248 52.9295 40.6138 52.8965 40.6029 52.8633C40.5792 52.7921 40.5547 52.7215 40.5286 52.6514C40.5148 52.6138 40.5005 52.5764 40.486 52.5391C40.4612 52.4757 40.4354 52.4127 40.4087 52.3502C40.3907 52.3078 40.3725 52.2656 40.3535 52.2235C40.3286 52.1687 40.3029 52.1146 40.2768 52.0608C40.2537 52.013 40.2307 51.9654 40.2064 51.9182C40.1835 51.8735 40.1593 51.8296 40.1353 51.7854C40.1058 51.7312 40.0766 51.677 40.0456 51.6235C40.0279 51.5932 40.0091 51.5635 39.991 51.5333C39.7987 51.2139 39.5797 50.9108 39.3345 50.628C39.3263 50.6186 39.3185 50.6088 39.3104 50.5994C39.2575 50.5391 39.2028 50.4805 39.1477 50.4221C39.1281 50.4014 39.1089 50.3804 39.0891 50.36C39.0386 50.3081 38.987 50.2573 38.9346 50.2071C38.9078 50.1813 38.881 50.1554 38.8537 50.1302C38.8294 50.1076 38.8065 50.084 38.7818 50.0617C38.7734 50.0537 38.765 50.046 38.7565 50.0383C38.743 50.0264 38.7294 50.0147 38.7212 50.008C38.6729 49.9655 38.624 49.9237 38.5744 49.8827L38.5074 49.8282C38.4805 49.8067 38.4534 49.786 38.4265 49.765C38.4253 49.7642 38.4242 49.7632 38.4232 49.7624C38.4059 49.749 38.3886 49.735 38.3714 49.7219C38.3441 49.7012 38.3168 49.6807 38.2881 49.6595C38.2518 49.6329 38.2155 49.6072 38.1793 49.582C38.1791 49.5818 38.1788 49.5816 38.1785 49.5814C38.173 49.5776 38.1672 49.5733 38.1618 49.5694C38.1303 49.5473 38.0986 49.5255 38.0662 49.5037C38.0274 49.4778 37.9882 49.4525 37.9502 49.4284C37.9444 49.4246 37.938 49.4208 37.9322 49.4169C37.9264 49.4133 37.9206 49.4097 37.9149 49.406C37.8895 49.3899 37.8647 49.374 37.8372 49.3571C37.8055 49.3378 37.7735 49.3193 37.7383 49.2989L37.7251 49.2913C37.7098 49.2825 37.6958 49.2746 37.6807 49.2659C37.6703 49.26 37.6598 49.2538 37.6491 49.2478C37.6355 49.24 37.6207 49.2313 37.6077 49.2241C37.5894 49.2139 37.5709 49.2041 37.5522 49.1943L37.5358 49.1856C37.5202 49.1772 37.5041 49.1703 37.4884 49.162C37.4119 49.122 37.3345 49.0836 37.2563 49.0467C37.2261 49.0325 37.1961 49.0179 37.166 49.0042C37.086 48.9682 37.0051 48.9343 36.9235 48.9016C36.895 48.8901 36.867 48.8777 36.8384 48.8666C36.7374 48.8278 36.635 48.7917 36.5315 48.7583C36.4759 48.7402 36.4194 48.7249 36.3634 48.7086C36.3124 48.6938 36.2616 48.6785 36.2101 48.665C36.1485 48.6488 36.0863 48.6345 36.0242 48.6203C35.9761 48.6092 35.928 48.5985 35.8797 48.5887C35.8179 48.5761 35.756 48.5647 35.6939 48.5542C35.6414 48.5452 35.5887 48.5373 35.5357 48.5297C35.4775 48.5215 35.4195 48.5132 35.3609 48.5065C35.2966 48.4992 35.2317 48.494 35.1669 48.4887C35.1187 48.4849 35.0707 48.48 35.0222 48.4773C34.9135 48.4711 34.804 48.4676 34.6938 48.4673C34.688 48.4673 34.6821 48.4668 34.6763 48.4668C31.2196 48.4668 28.4072 51.3893 28.4072 54.9816V55.4885H28.407ZM34.676 62.0683C32.3178 62.0683 30.3992 60.0745 30.3992 57.6239V56.9078C30.9025 57.021 31.4174 57.0788 31.9406 57.0788C33.6138 57.0788 35.2301 56.4764 36.5184 55.3967C37.1941 56.0989 38.0307 56.6052 38.953 56.8693V57.6237C38.953 60.0745 37.0343 62.0683 34.676 62.0683ZM34.9113 50.5445C34.9453 50.5464 34.9791 50.5498 35.0128 50.5525C35.0561 50.556 35.0993 50.5596 35.1423 50.5644C35.1828 50.5689 35.2231 50.5746 35.2633 50.5804C35.2985 50.5854 35.3337 50.5908 35.3687 50.5967C35.4119 50.604 35.4549 50.612 35.4976 50.6207C35.5296 50.6272 35.5615 50.6344 35.5933 50.6415C35.6365 50.6513 35.6797 50.6614 35.7223 50.6726C35.7562 50.6816 35.7898 50.6915 35.8234 50.7013C35.8627 50.7128 35.9021 50.7235 35.9409 50.7361C36.0112 50.7589 36.081 50.7833 36.1502 50.8098C36.1672 50.8163 36.1838 50.8237 36.2007 50.8305C36.2591 50.854 36.3174 50.8781 36.3752 50.9043C36.3923 50.9121 36.4091 50.9203 36.4261 50.9282C36.4845 50.9557 36.5427 50.9842 36.6002 51.0146C36.6322 51.0314 36.6643 51.048 36.6959 51.0657C36.7106 51.074 36.7252 51.0824 36.7398 51.0908C36.7833 51.1159 36.8266 51.1416 36.8693 51.1682C36.8821 51.1764 36.8949 51.1842 36.9082 51.1928C36.9106 51.1943 36.913 51.1958 36.9153 51.1973C36.96 51.2259 37.0041 51.2553 37.0476 51.2855C37.0495 51.2868 37.0511 51.2879 37.0529 51.2893C37.066 51.2982 37.0783 51.3073 37.0912 51.3164C37.1349 51.3476 37.1782 51.3794 37.2206 51.4121C37.2275 51.4175 37.2342 51.4226 37.2413 51.4281C37.286 51.4632 37.33 51.4993 37.3734 51.536C37.3864 51.5471 37.3996 51.5581 37.4125 51.5694C37.4431 51.5961 37.4732 51.6235 37.5032 51.6511C37.5296 51.6754 37.5559 51.6999 37.5817 51.7247C37.6085 51.7505 37.6349 51.7769 37.6611 51.8034C37.6839 51.8266 37.7066 51.85 37.729 51.8736C37.7562 51.9026 37.7831 51.9319 37.8097 51.9615C37.8299 51.9842 37.8498 52.0071 37.8696 52.0301C37.8964 52.0615 37.9229 52.0931 37.9489 52.1252C37.9675 52.1481 37.9857 52.1712 38.0037 52.1945C38.0291 52.2272 38.0542 52.2602 38.0788 52.2938C38.0966 52.318 38.1141 52.3427 38.1314 52.3675C38.1545 52.4003 38.1772 52.4333 38.1994 52.4668C38.2174 52.4942 38.2351 52.5218 38.2525 52.5495C38.2724 52.581 38.2921 52.6126 38.3112 52.6446C38.3299 52.6759 38.348 52.7077 38.3659 52.7396C38.3824 52.7687 38.3987 52.7978 38.4145 52.8273C38.4339 52.8636 38.4527 52.9005 38.4711 52.9373C38.484 52.9631 38.497 52.9888 38.5094 53.0149C38.5292 53.0564 38.548 53.0984 38.5665 53.1405C38.5763 53.163 38.5863 53.1853 38.5958 53.208C38.6152 53.2541 38.6335 53.3007 38.6513 53.3475C38.6588 53.3671 38.6665 53.3866 38.6737 53.4063C38.6917 53.4559 38.7087 53.506 38.7252 53.5562C38.731 53.5743 38.7371 53.5922 38.7428 53.6104C38.7588 53.6615 38.7735 53.7131 38.7877 53.7649C38.7928 53.7834 38.7981 53.8019 38.803 53.8204C38.8163 53.8712 38.8282 53.9224 38.8398 53.9738C38.8444 53.9944 38.8492 54.015 38.8536 54.0357C38.8638 54.0844 38.8729 54.1334 38.8815 54.1827C38.8858 54.2072 38.8903 54.2317 38.8943 54.2562C38.9014 54.3012 38.9075 54.3466 38.9134 54.392C38.9172 54.4217 38.9211 54.4514 38.9244 54.4813C38.9288 54.5221 38.9324 54.563 38.9357 54.604C38.9374 54.6251 38.9389 54.6464 38.9403 54.6675C38.3394 54.3785 37.8215 53.9157 37.4487 53.3188C37.2802 53.049 37.0006 52.8759 36.6921 52.8504C36.385 52.8247 36.0812 52.9499 35.8738 53.1888C34.8695 54.3451 33.4358 55.0084 31.9399 55.0084C31.414 55.0084 30.8996 54.9293 30.4036 54.7726C30.4037 54.7691 30.4036 54.7658 30.4038 54.7623C30.4053 54.732 30.4081 54.702 30.4101 54.6719C30.413 54.6279 30.4156 54.5837 30.4198 54.54C30.4227 54.5087 30.4269 54.4777 30.4306 54.4467C30.4356 54.4046 30.4401 54.3624 30.4461 54.3205C30.4506 54.2891 30.4563 54.258 30.4615 54.2268C30.4682 54.186 30.4747 54.145 30.4826 54.1045C30.4886 54.0732 30.4957 54.0424 30.5025 54.0114C30.511 53.9715 30.5194 53.9316 30.5291 53.8921C30.5366 53.8612 30.5451 53.8307 30.5532 53.8001C30.5636 53.7613 30.5738 53.7224 30.5851 53.6839C30.5941 53.6531 30.6041 53.6229 30.6138 53.5924C30.6257 53.5547 30.6377 53.5169 30.6506 53.4797C30.6611 53.4496 30.6724 53.42 30.6834 53.3902C30.6971 53.3533 30.7107 53.3163 30.7252 53.28C30.737 53.2505 30.7495 53.2215 30.7619 53.1924C30.7772 53.1565 30.7924 53.1206 30.8086 53.0851C30.8218 53.0564 30.8355 53.028 30.8491 52.9996C30.866 52.9645 30.883 52.9296 30.9008 52.8951C30.9151 52.8672 30.93 52.8397 30.9449 52.8123C30.9634 52.7781 30.9821 52.744 31.0013 52.7103C31.0169 52.6834 31.0328 52.6567 31.0489 52.6301C31.0689 52.597 31.089 52.564 31.1098 52.5314C31.1266 52.5052 31.1437 52.4794 31.161 52.4536C31.1824 52.4216 31.204 52.3897 31.2263 52.3582C31.2441 52.333 31.2623 52.3081 31.2806 52.2833C31.3035 52.2522 31.3267 52.2214 31.3504 52.1911C31.3692 52.1669 31.3884 52.1429 31.4077 52.119C31.4321 52.0891 31.4566 52.0595 31.4817 52.0303C31.5016 52.0071 31.5217 51.984 31.5422 51.9613C31.5678 51.9326 31.5938 51.9041 31.6202 51.8761C31.6411 51.8539 31.6621 51.8319 31.6835 51.8103C31.7104 51.7828 31.7379 51.7558 31.7655 51.729C31.7873 51.708 31.8091 51.687 31.8313 51.6665C31.8596 51.6402 31.8884 51.6144 31.9173 51.5889C31.9399 51.569 31.9626 51.5493 31.9856 51.5298C32.0152 51.5048 32.0452 51.4805 32.0754 51.4564C32.0989 51.4376 32.1224 51.419 32.1462 51.4008C32.177 51.3772 32.2082 51.3544 32.2397 51.3316C32.2639 51.3142 32.2879 51.2967 32.3125 51.2797C32.3445 51.2575 32.377 51.2361 32.4097 51.2149C32.4347 51.1986 32.4595 51.1823 32.4846 51.1666C32.5178 51.146 32.5514 51.1261 32.585 51.1065C32.6106 51.0915 32.6361 51.0764 32.662 51.0619C32.6963 51.0429 32.7311 51.0247 32.7659 51.0066C32.7921 50.9929 32.8181 50.9791 32.8445 50.966C32.8801 50.9485 32.9161 50.9319 32.9522 50.9154C32.9788 50.9032 33.0052 50.8907 33.032 50.8789C33.0688 50.8629 33.1062 50.8482 33.1435 50.8332C33.1703 50.8225 33.1969 50.8114 33.224 50.8012C33.2623 50.7867 33.3013 50.7736 33.3402 50.7604C33.3669 50.7513 33.3933 50.7416 33.4203 50.733C33.4601 50.7203 33.5005 50.7089 33.5408 50.6973C33.5674 50.6897 33.5938 50.6814 33.6207 50.6744C33.6622 50.6633 33.7045 50.6538 33.7466 50.6442C33.7727 50.6381 33.7985 50.6315 33.8248 50.6259C33.869 50.6166 33.9138 50.609 33.9585 50.6011C33.9832 50.5968 34.0077 50.5917 34.0325 50.5877C34.081 50.5801 34.13 50.5742 34.1789 50.5683C34.2004 50.5656 34.2218 50.5622 34.2434 50.56C34.3012 50.5539 34.3596 50.5498 34.4181 50.5462C34.4312 50.5453 34.4442 50.5438 34.4574 50.5431C34.5296 50.5394 34.6023 50.5373 34.6755 50.5373C34.6814 50.5373 34.6873 50.5378 34.6933 50.5378C34.7667 50.5383 34.8392 50.5405 34.9113 50.5445Z" fill="#282C2E"/>
<path d="M59.0547 55.4887V57.6241C59.0547 61.2163 61.867 64.1388 65.3238 64.1388C68.7805 64.1388 71.5928 61.2163 71.5928 57.6241V56.0166V54.9823C71.5928 54.8662 71.5897 54.751 71.5838 54.6363C71.5825 54.6105 71.5797 54.5848 71.5782 54.559C71.5727 54.4694 71.5664 54.3801 71.5574 54.2916C71.5546 54.2642 71.5505 54.2371 71.5473 54.2098C71.5373 54.1228 71.5266 54.0362 71.5134 53.9503C71.5092 53.923 71.5039 53.8959 71.4993 53.8687C71.4851 53.7835 71.47 53.6986 71.4527 53.6145C71.4469 53.5859 71.44 53.5578 71.4337 53.5294C71.4158 53.4475 71.3968 53.3661 71.3758 53.2855C71.3679 53.2547 71.3591 53.2242 71.3507 53.1936C71.3296 53.1168 71.3076 53.0404 71.2838 52.9647C71.273 52.9305 71.2617 52.8964 71.2505 52.8623C71.2272 52.7922 71.2029 52.7225 71.1774 52.6535C71.1632 52.615 71.1486 52.5766 71.1336 52.5384C71.1091 52.476 71.0838 52.414 71.0576 52.3526C71.0392 52.3093 71.0206 52.2661 71.0012 52.2232C70.977 52.1696 70.9518 52.1166 70.9261 52.0639C70.9025 52.015 70.8789 51.9662 70.854 51.9179C70.8318 51.8747 70.8085 51.8322 70.7852 51.7895C70.7551 51.7339 70.7249 51.6781 70.6932 51.6235C70.6763 51.5945 70.6584 51.5662 70.6411 51.5375C70.4476 51.2155 70.2269 50.9102 69.9798 50.6253C69.9728 50.6172 69.9659 50.6086 69.9589 50.6005C69.9059 50.54 69.851 50.4812 69.7956 50.4227C69.7761 50.4022 69.757 50.3812 69.7372 50.3608C69.6871 50.3091 69.6357 50.2588 69.5838 50.2088C69.5564 50.1824 69.5292 50.1562 69.5013 50.1303C69.4778 50.1083 69.4555 50.0854 69.4316 50.0639C69.4227 50.0552 69.4135 50.0468 69.4042 50.0383C69.3907 50.0265 69.3771 50.0147 69.3677 50.007C69.3194 49.9645 69.2706 49.9227 69.2247 49.8849L69.1539 49.8273C69.109 49.7914 69.0638 49.756 69.0191 49.722C68.9926 49.7019 68.9658 49.6818 68.9358 49.6596C68.8937 49.6287 68.8511 49.5985 68.8095 49.5696C68.778 49.5476 68.7463 49.5257 68.7139 49.5039C68.6751 49.478 68.6359 49.4527 68.5963 49.4276L68.5828 49.4189C68.58 49.4171 68.5768 49.4152 68.5739 49.4134C68.5723 49.4124 68.5708 49.4115 68.5692 49.4105C68.5419 49.3931 68.5148 49.376 68.4848 49.3575C68.4566 49.3404 68.4283 49.324 68.3999 49.3075L68.376 49.2936C68.3589 49.2835 68.3425 49.2746 68.3255 49.2648C68.3165 49.2595 68.3075 49.2543 68.2983 49.2492C68.2841 49.241 68.2691 49.2322 68.2554 49.2246C68.2368 49.2144 68.2181 49.2044 68.1992 49.1945L68.1834 49.1861C68.168 49.1778 68.1521 49.171 68.1367 49.1629C68.0596 49.1226 67.9817 49.0839 67.9031 49.0468C67.8733 49.0327 67.8438 49.0184 67.8139 49.0049C67.7335 48.9686 67.6519 48.9343 67.5697 48.9015C67.5418 48.8903 67.5143 48.878 67.4863 48.8673C67.3851 48.8285 67.2826 48.7923 67.1788 48.7588C67.1234 48.7408 67.0674 48.7257 67.0116 48.7094C66.9604 48.6945 66.9094 48.6791 66.8576 48.6655C66.7959 48.6493 66.7339 48.635 66.6719 48.6208C66.6238 48.6097 66.5756 48.599 66.5271 48.5892C66.4654 48.5766 66.4035 48.5651 66.3413 48.5546C66.2888 48.5457 66.2361 48.5378 66.1833 48.5302C66.1251 48.5219 66.0669 48.5137 66.0085 48.507C65.9442 48.4997 65.8794 48.4945 65.8144 48.4892C65.7662 48.4854 65.7183 48.4805 65.6698 48.4778C65.561 48.4716 65.4515 48.4681 65.3414 48.4678C65.3355 48.4678 65.3297 48.4673 65.3238 48.4673C61.867 48.4673 59.0547 51.3898 59.0547 54.9821V55.4887ZM65.3238 62.0685C62.9655 62.0685 61.0469 60.0747 61.0469 57.6241V56.908C61.5502 57.0212 62.0651 57.079 62.5884 57.079C64.2615 57.079 65.8781 56.4765 67.1662 55.397C67.842 56.0991 68.6784 56.6054 69.6007 56.8697V57.6241C69.6007 60.0747 67.6821 62.0685 65.3238 62.0685ZM65.5592 50.5447C65.5932 50.5467 65.6266 50.55 65.6604 50.5527C65.7038 50.5562 65.7471 50.5598 65.7903 50.5646C65.8306 50.5692 65.8708 50.5748 65.9109 50.5806C65.9463 50.5857 65.9817 50.591 66.017 50.5969C66.0599 50.6042 66.1026 50.6121 66.1451 50.6208C66.1776 50.6274 66.2098 50.6346 66.242 50.6419C66.2849 50.6517 66.3276 50.6616 66.37 50.6727C66.4045 50.6818 66.4387 50.692 66.4728 50.7019C66.5114 50.7131 66.5504 50.7239 66.5885 50.7362C66.659 50.7589 66.7291 50.7835 66.7986 50.8101C66.8149 50.8163 66.8307 50.8235 66.8469 50.83C66.9063 50.8538 66.9654 50.8783 67.0238 50.9048C67.0404 50.9123 67.0568 50.9203 67.0731 50.928C67.1321 50.9557 67.1908 50.9846 67.249 51.0152C67.2824 51.0329 67.3162 51.0502 67.3491 51.0686C67.3592 51.0744 67.3707 51.0811 67.3823 51.0877C67.429 51.1145 67.4753 51.1421 67.5208 51.1706C67.5279 51.1751 67.5349 51.1795 67.5419 51.1839L67.5563 51.193C67.5576 51.1938 67.5589 51.1948 67.5603 51.1956C67.607 51.2254 67.6531 51.2562 67.6985 51.2878C67.6993 51.2884 67.7001 51.2889 67.701 51.2895C67.7131 51.2979 67.724 51.3059 67.7358 51.3142C67.7787 51.3447 67.8211 51.376 67.8629 51.4082C67.8764 51.4185 67.8906 51.4297 67.9045 51.4406C67.9442 51.4719 67.9834 51.504 68.0221 51.5367C68.0345 51.5473 68.047 51.5579 68.0594 51.5685C68.0905 51.5955 68.1207 51.6232 68.151 51.6511C68.1777 51.6755 68.2041 51.7002 68.2302 51.7252C68.2569 51.751 68.2833 51.7772 68.3093 51.8036C68.3323 51.8268 68.3549 51.8502 68.3773 51.874C68.4047 51.903 68.4316 51.9324 68.4582 51.9622C68.4783 51.9847 68.4981 52.0073 68.5176 52.0301C68.5447 52.0617 68.5714 52.0936 68.5975 52.126C68.6157 52.1486 68.6337 52.1714 68.6515 52.1943C68.6772 52.2273 68.7025 52.2607 68.7273 52.2945C68.7448 52.3185 68.762 52.3427 68.7791 52.367C68.8025 52.4002 68.8256 52.4338 68.848 52.4677C68.8657 52.4944 68.8829 52.5214 68.9001 52.5485C68.9204 52.5806 68.9405 52.6128 68.96 52.6455C68.9783 52.6763 68.996 52.7073 69.0136 52.7384C69.0304 52.7681 69.0471 52.7979 69.0633 52.8281C69.0824 52.8638 69.1008 52.8999 69.1188 52.9362C69.1321 52.9625 69.1452 52.9889 69.158 53.0155C69.1775 53.0565 69.1961 53.0979 69.2144 53.1395C69.2245 53.1624 69.2348 53.1853 69.2445 53.2085C69.2636 53.2542 69.2818 53.3003 69.2994 53.3465C69.3071 53.3666 69.315 53.3867 69.3224 53.4068C69.3404 53.4561 69.3572 53.5058 69.3736 53.5556C69.3795 53.5739 69.3858 53.5922 69.3915 53.6107C69.4074 53.6616 69.4222 53.7131 69.4364 53.7645C69.4416 53.7832 69.4469 53.8018 69.4516 53.8206C69.4649 53.8712 69.4769 53.9223 69.4883 53.9735C69.493 53.9942 69.4979 54.0149 69.5021 54.0357C69.5123 54.0843 69.5214 54.1333 69.53 54.1823C69.5343 54.2069 69.5388 54.2315 69.5428 54.2562C69.5499 54.3012 69.556 54.3464 69.5619 54.3917C69.5657 54.4215 69.5696 54.4512 69.5729 54.4811C69.5773 54.5218 69.5809 54.5628 69.5842 54.6038C69.5859 54.6249 69.5874 54.6462 69.5888 54.6673C68.9879 54.3783 68.47 53.9155 68.0972 53.3186C67.9287 53.0488 67.6491 52.8757 67.3406 52.8502C67.0321 52.8245 66.7295 52.9497 66.5222 53.1886C65.518 54.3449 64.0844 55.0081 62.5886 55.0081C62.0626 55.0081 61.5482 54.929 61.0521 54.7722C61.0522 54.7688 61.0521 54.7654 61.0523 54.762C61.0538 54.7316 61.0566 54.7017 61.0586 54.6716C61.0615 54.6276 61.0641 54.5834 61.0683 54.5397C61.0712 54.5083 61.0754 54.4774 61.0791 54.4464C61.0841 54.4043 61.0886 54.362 61.0946 54.3202C61.0991 54.2887 61.1048 54.2577 61.11 54.2265C61.1167 54.1856 61.1232 54.1446 61.1311 54.1042C61.1371 54.0729 61.1442 54.0421 61.151 54.011C61.1595 53.9712 61.1679 53.9313 61.1776 53.8918C61.185 53.861 61.1936 53.8305 61.2017 53.8C61.2121 53.7611 61.2223 53.722 61.2336 53.6834C61.2426 53.6529 61.2525 53.6228 61.262 53.5926C61.2741 53.5548 61.2859 53.5168 61.299 53.4794C61.3093 53.4493 61.3206 53.4196 61.3316 53.3898C61.3453 53.353 61.359 53.316 61.3735 53.2797C61.3853 53.2502 61.3978 53.2212 61.4101 53.192C61.4254 53.1562 61.4407 53.1203 61.4569 53.0848C61.47 53.0561 61.4837 53.0277 61.4974 52.9992C61.5142 52.9642 61.5312 52.9293 61.5489 52.8948C61.5632 52.8669 61.5781 52.8393 61.5931 52.8117C61.6116 52.7776 61.6302 52.7436 61.6493 52.7102C61.665 52.683 61.6811 52.6563 61.6971 52.6295C61.717 52.5965 61.7371 52.5637 61.7578 52.5312C61.7746 52.505 61.7917 52.479 61.809 52.4532C61.8303 52.4211 61.8521 52.3892 61.8743 52.3577C61.8921 52.3326 61.9102 52.3078 61.9285 52.2829C61.9515 52.2519 61.9747 52.2211 61.9983 52.1906C62.0172 52.1664 62.0363 52.1424 62.0557 52.1185C62.08 52.0887 62.1046 52.0591 62.1297 52.0299C62.1496 52.0066 62.1698 51.9836 62.1903 51.9608C62.2159 51.9321 62.2419 51.9038 62.2682 51.8758C62.2891 51.8536 62.3101 51.8316 62.3314 51.8099C62.3584 51.7825 62.3859 51.7554 62.4135 51.7286C62.4353 51.7077 62.4571 51.6867 62.4793 51.6661C62.5077 51.6398 62.5365 51.614 62.5655 51.5884C62.588 51.5685 62.6106 51.5488 62.6336 51.5295C62.6631 51.5045 62.6931 51.4802 62.7234 51.4561C62.7469 51.4373 62.7704 51.4185 62.7943 51.4003C62.825 51.3768 62.8563 51.3539 62.8877 51.3313C62.9118 51.3138 62.936 51.2964 62.9604 51.2794C62.9924 51.2572 63.0251 51.2358 63.0578 51.2144C63.0826 51.1982 63.1073 51.182 63.1326 51.1664C63.1658 51.1457 63.1995 51.1259 63.2332 51.106C63.2587 51.0911 63.2842 51.076 63.3101 51.0616C63.3444 51.0426 63.3793 51.0243 63.4141 51.0061C63.4403 50.9925 63.4662 50.9787 63.4926 50.9657C63.5282 50.9482 63.5643 50.9316 63.6005 50.9149C63.6269 50.9027 63.6533 50.8902 63.68 50.8786C63.7169 50.8626 63.7544 50.8477 63.7917 50.8328C63.8184 50.822 63.845 50.811 63.8719 50.8009C63.9103 50.7865 63.9491 50.7733 63.988 50.76C64.0147 50.7509 64.0413 50.7413 64.0682 50.7326C64.1081 50.7199 64.1484 50.7084 64.1887 50.697C64.2154 50.6894 64.2418 50.6811 64.2686 50.6741C64.3102 50.663 64.3524 50.6535 64.3945 50.6438C64.4207 50.6378 64.4465 50.6311 64.4728 50.6256C64.517 50.6162 64.5618 50.6086 64.6065 50.6008C64.6312 50.5965 64.6557 50.5914 64.6804 50.5874C64.7288 50.5798 64.7778 50.5738 64.8269 50.5679C64.8484 50.5653 64.8697 50.5618 64.8914 50.5596C64.9493 50.5536 65.0076 50.5494 65.066 50.5458C65.0792 50.545 65.0921 50.5435 65.1052 50.5428C65.1775 50.5391 65.2501 50.537 65.3233 50.537C65.3293 50.537 65.3351 50.5374 65.3411 50.5374C65.4144 50.5385 65.4871 50.5407 65.5592 50.5447Z" fill="#282C2E"/>
<path d="M52.5368 67.2949H50.7534H49.2465H47.4631C43.434 67.2949 40.156 70.7013 40.156 74.8882V82.9648C40.156 83.5364 40.6019 83.9999 41.1521 83.9999H58.8475C59.3977 83.9999 59.8436 83.5364 59.8436 82.9648V74.8882C59.8437 70.7013 56.5659 67.2949 52.5368 67.2949ZM50.0082 69.3652L51.7163 75.3985L49.9999 77.2253L48.2836 75.3986L49.9917 69.3653H50.0082V69.3652ZM57.8515 81.9296H42.1483V74.8882C42.1483 71.8429 44.5326 69.3652 47.4632 69.3652H47.9152L46.2079 75.3957C46.1061 75.7549 46.1991 76.1431 46.4508 76.411L49.2873 79.43C49.4747 79.6296 49.7317 79.7421 49.9999 79.7421C50.2682 79.7421 50.5252 79.6296 50.7126 79.43L53.5491 76.411C53.8009 76.1431 53.8937 75.7549 53.792 75.3957L52.0847 69.3652H52.5367C55.4672 69.3652 57.8515 71.8429 57.8515 74.8882V81.9296Z" fill="#282C2E"/>
<path d="M41.8 54.0963V54.7884V57.7056C41.8 62.4043 45.4786 66.2271 50 66.2271C54.5215 66.2271 58.2 62.4044 58.2 57.7056V55.5095V54.0963C58.2 53.9444 58.1959 53.7935 58.1882 53.6435C58.1865 53.6097 58.1829 53.5763 58.1807 53.5426C58.1734 53.4253 58.1652 53.3083 58.1534 53.1922C58.1498 53.1567 58.1445 53.1218 58.1404 53.0865C58.1274 52.9722 58.1131 52.8583 58.0959 52.7454C58.0904 52.7099 58.0835 52.675 58.0777 52.6397C58.059 52.5276 58.0392 52.416 58.0162 52.3053C58.0086 52.2688 58 52.2328 57.992 52.1967C57.9682 52.0885 57.9431 51.9808 57.9154 51.8743C57.9052 51.8352 57.8941 51.7964 57.8834 51.7575C57.8554 51.6556 57.826 51.5545 57.7945 51.4541C57.7808 51.4108 57.7665 51.3676 57.7523 51.3245C57.7212 51.231 57.6888 51.1381 57.6548 51.046C57.6369 50.9974 57.6184 50.949 57.5996 50.9008C57.5668 50.817 57.5328 50.7341 57.4976 50.6516C57.4743 50.5969 57.4508 50.5424 57.4264 50.4883C57.3936 50.4157 57.3593 50.3439 57.3246 50.2724C57.2949 50.211 57.2653 50.1496 57.2341 50.0889C57.2034 50.0292 57.1711 49.9706 57.1391 49.9118C57.1012 49.8421 57.0635 49.7721 57.0237 49.7035C56.9996 49.6621 56.974 49.6217 56.9493 49.5808C56.7013 49.1694 56.4191 48.7789 56.1041 48.4139C56.0889 48.3963 56.0745 48.3783 56.0592 48.3609C55.9927 48.2851 55.9237 48.2113 55.8544 48.1378C55.826 48.1076 55.7978 48.0771 55.7689 48.0473C55.7051 47.9817 55.6398 47.9176 55.5738 47.8541C55.536 47.8178 55.4983 47.7815 55.4599 47.7459C55.4289 47.717 55.3994 47.6867 55.3678 47.6582C55.3569 47.6476 55.3459 47.6374 55.3344 47.6272C55.3204 47.6146 55.3059 47.6023 55.2892 47.5884C55.2266 47.5336 55.1636 47.4795 55.0987 47.4258C55.0695 47.4018 55.0403 47.3782 55.0102 47.354C54.976 47.3266 54.9417 47.3003 54.9073 47.2736C54.9047 47.2715 54.902 47.2694 54.8993 47.2674C54.8769 47.25 54.8545 47.2316 54.832 47.2148C54.7968 47.1881 54.7618 47.1618 54.7243 47.1343C54.6774 47.0999 54.63 47.0664 54.5826 47.0331C54.5819 47.0327 54.5814 47.0323 54.5807 47.0318C54.5732 47.0265 54.5657 47.021 54.5582 47.0156C54.517 46.987 54.4759 46.9585 54.4336 46.93C54.3832 46.8964 54.3326 46.8638 54.2799 46.8301L54.2575 46.8158C54.2561 46.8149 54.2547 46.814 54.2532 46.8131C54.2496 46.8108 54.246 46.8086 54.2423 46.8064C54.2071 46.784 54.1721 46.7617 54.1343 46.7386C54.0964 46.7156 54.0581 46.6933 54.0199 46.6711L53.9897 46.6536C53.9702 46.6423 53.9503 46.6311 53.9306 46.6198C53.9164 46.6116 53.9022 46.6034 53.8878 46.5953C53.8687 46.5844 53.85 46.5733 53.8305 46.5626C53.8086 46.5505 53.7862 46.5388 53.7639 46.5272L53.7398 46.5145C53.7208 46.5044 53.7014 46.496 53.6824 46.486C53.5792 46.4319 53.4748 46.3802 53.3693 46.3306C53.3324 46.3132 53.2955 46.2953 53.2584 46.2785C53.1506 46.2297 53.0413 46.1839 52.9312 46.1399C52.8972 46.1262 52.8635 46.1112 52.8293 46.0981C52.6961 46.047 52.5612 45.9994 52.4248 45.9554C52.3547 45.9327 52.2837 45.9134 52.2131 45.8927C52.1436 45.8724 52.0744 45.8517 52.0043 45.8332C51.9253 45.8125 51.8456 45.7942 51.7659 45.7759C51.7014 45.7612 51.6367 45.7467 51.5715 45.7334C51.4922 45.7174 51.4126 45.7026 51.3327 45.689C51.2621 45.677 51.1912 45.6663 51.1202 45.6563C51.0459 45.6458 50.9718 45.6352 50.897 45.6267C50.8102 45.6168 50.7227 45.6098 50.6349 45.6027C50.5744 45.5979 50.5143 45.5918 50.4534 45.5884C50.3031 45.5798 50.1518 45.5747 49.9994 45.5747C45.4786 45.575 41.8 49.3977 41.8 54.0963ZM50 64.1569C46.577 64.1569 43.7922 61.2629 43.7922 57.7056V56.2469C44.594 56.4694 45.4205 56.5819 46.2631 56.5819C48.578 56.5819 50.8103 55.7056 52.5452 54.1446C53.523 55.2583 54.7951 56.0349 56.2079 56.38V57.7055C56.2078 61.2628 53.423 64.1569 50 64.1569ZM50.3439 47.6556C50.3897 47.6582 50.4351 47.6628 50.4808 47.6665C50.5472 47.6717 50.6135 47.6773 50.6794 47.6847C50.7359 47.6912 50.792 47.6991 50.848 47.7071C50.902 47.7147 50.9559 47.7228 51.0095 47.7319C51.0696 47.7421 51.1293 47.7532 51.1888 47.7653C51.2389 47.7754 51.2887 47.7866 51.3385 47.798C51.3979 47.8117 51.4572 47.8254 51.5159 47.8407C51.5713 47.8552 51.6264 47.8716 51.6814 47.8877C51.7322 47.9027 51.7833 47.9166 51.8335 47.9327C51.9379 47.9664 52.0416 48.0027 52.1444 48.0423C52.1633 48.0495 52.1816 48.0579 52.2005 48.0654C52.2916 48.1015 52.3821 48.1395 52.4719 48.1803C52.4936 48.1901 52.515 48.2006 52.5365 48.2107C52.6243 48.2518 52.7115 48.295 52.7981 48.3406C52.8439 48.3647 52.8902 48.3883 52.9353 48.4137C52.9543 48.4245 52.9733 48.4354 52.9922 48.4463C53.06 48.4852 53.1272 48.5253 53.1935 48.5668C53.2015 48.5719 53.2096 48.5769 53.2175 48.5818L53.2396 48.5959C53.2403 48.5963 53.2409 48.5967 53.2416 48.5972C53.3126 48.6426 53.3829 48.6892 53.4521 48.7375C53.4675 48.7483 53.4821 48.7589 53.4974 48.7698C53.5625 48.8161 53.6267 48.8635 53.69 48.9123C53.7059 48.9245 53.7216 48.9368 53.7372 48.9491C53.8002 48.9986 53.8622 49.0492 53.9233 49.1011C53.9374 49.1131 53.9515 49.1249 53.9654 49.1371C54.0116 49.1771 54.0567 49.2185 54.1018 49.2599C54.145 49.2995 54.1876 49.3396 54.2296 49.3801C54.2676 49.417 54.3053 49.4541 54.3425 49.4919C54.3797 49.5297 54.416 49.5684 54.4522 49.607C54.4908 49.6483 54.5293 49.6897 54.5669 49.7321C54.5996 49.7689 54.6311 49.8066 54.6628 49.8441C54.7011 49.8893 54.7394 49.9341 54.7765 49.9804C54.8057 50.0169 54.8335 50.0545 54.8618 50.0916C54.8987 50.1399 54.9364 50.1878 54.972 50.2372C55.0056 50.2837 55.0371 50.3318 55.0693 50.3791C55.1198 50.4532 55.1688 50.5284 55.2164 50.6049C55.2508 50.6602 55.2856 50.7153 55.3182 50.7718C55.3394 50.8081 55.359 50.8455 55.3795 50.8822C55.4128 50.9424 55.4461 51.0025 55.4776 51.0638C55.4954 51.0983 55.512 51.1334 55.5291 51.1682C55.5614 51.2337 55.5932 51.2995 55.6232 51.3662C55.6376 51.3982 55.6515 51.4308 55.6654 51.4631C55.6961 51.5343 55.726 51.6059 55.7541 51.6783C55.7657 51.7079 55.777 51.7378 55.7881 51.7677C55.8167 51.844 55.8438 51.9209 55.8694 51.9983C55.8786 52.0259 55.8877 52.0537 55.8965 52.0814C55.9221 52.162 55.9459 52.2433 55.9685 52.3252C55.9757 52.3512 55.9831 52.3772 55.9899 52.4034C56.0119 52.4873 56.0318 52.5721 56.0506 52.6569C56.0561 52.6822 56.0621 52.7073 56.0674 52.7327C56.0854 52.8184 56.1008 52.905 56.1152 52.9916C56.1195 53.0173 56.1245 53.0427 56.1285 53.0685C56.1419 53.1549 56.1527 53.242 56.1628 53.3291C56.1658 53.3557 56.1698 53.3821 56.1726 53.4089C56.1818 53.4973 56.188 53.5862 56.1936 53.6752C56.1952 53.7009 56.198 53.7262 56.1992 53.752C56.205 53.8663 56.2082 53.981 56.2082 54.0961V54.2312C55.0987 53.846 54.1385 53.0791 53.4834 52.0303C53.3149 51.7605 53.0353 51.5875 52.7268 51.5619C52.4191 51.5368 52.1159 51.6614 51.9084 51.9003C50.4675 53.5597 48.41 54.5114 46.2633 54.5114C45.4144 54.5114 44.5861 54.3677 43.7929 54.0834C43.793 54.0279 43.7954 53.9729 43.7969 53.9179C43.7982 53.8647 43.7985 53.8113 43.801 53.7585C43.8038 53.7035 43.809 53.6493 43.8131 53.5948C43.8172 53.5403 43.82 53.4855 43.8254 53.4314C43.8306 53.3785 43.8383 53.3265 43.8447 53.2742C43.8515 53.2191 43.8572 53.1638 43.8653 53.1091C43.8727 53.0589 43.8824 53.0096 43.891 52.9598C43.9007 52.9037 43.9092 52.8473 43.9203 52.7918C43.9297 52.7447 43.9411 52.6984 43.9515 52.6517C43.9641 52.5944 43.9759 52.5369 43.99 52.4801C44.001 52.4358 44.0142 52.3925 44.026 52.3486C44.0418 52.2904 44.0567 52.2319 44.0741 52.1743C44.0863 52.1336 44.1005 52.0937 44.1135 52.0533C44.1328 51.9936 44.1512 51.9336 44.1721 51.8748C44.1856 51.8367 44.2009 51.7994 44.2151 51.7616C44.2376 51.7016 44.2595 51.6413 44.2836 51.5822C44.2983 51.5466 44.3145 51.512 44.3296 51.4766C44.3555 51.4164 44.3807 51.356 44.4082 51.2968C44.4236 51.2638 44.4405 51.2318 44.4564 51.1991C44.4858 51.1388 44.5146 51.078 44.5457 51.0188C44.5615 50.9887 44.5788 50.9596 44.5951 50.9298C44.6282 50.8692 44.6608 50.8083 44.6956 50.7489C44.7114 50.7219 44.7286 50.696 44.7448 50.6694C44.7818 50.6082 44.8185 50.5471 44.8574 50.4873C44.8741 50.4616 44.8921 50.4371 44.9092 50.4117C44.9492 50.3523 44.9889 50.2927 45.0306 50.2347C45.0485 50.2099 45.0678 50.186 45.086 50.1615C45.1285 50.1042 45.1708 50.0468 45.2152 49.991C45.2318 49.9703 45.2493 49.9504 45.2662 49.93C45.3136 49.8718 45.3612 49.8135 45.4106 49.7572C45.4276 49.7379 45.4456 49.7195 45.4628 49.7003C45.5132 49.644 45.5638 49.5878 45.6162 49.5335C45.6345 49.5144 45.6539 49.4963 45.6726 49.4776C45.7251 49.4244 45.7776 49.3713 45.8318 49.3201C45.8511 49.302 45.8712 49.285 45.8907 49.2672C45.9455 49.2167 46.0005 49.1662 46.0571 49.1176C46.0785 49.0993 46.101 49.0822 46.1227 49.0641C46.1785 49.0176 46.2343 48.9709 46.2916 48.9263C46.3133 48.9095 46.3359 48.8939 46.3579 48.8773C46.4165 48.833 46.475 48.7887 46.5351 48.7465C46.5569 48.7312 46.5794 48.7172 46.6015 48.7023C46.6627 48.6605 46.7239 48.6186 46.7868 48.5789C46.8121 48.5629 46.8384 48.5484 46.8641 48.5327C46.9245 48.4957 46.9849 48.4584 47.0467 48.4237C47.0719 48.4095 47.0979 48.3966 47.1233 48.3828C47.1865 48.3483 47.2496 48.3135 47.314 48.2812C47.3422 48.2672 47.3713 48.2546 47.3998 48.2409C47.4625 48.2107 47.5249 48.1802 47.5885 48.1522C47.6218 48.1376 47.6559 48.1249 47.6895 48.1108C47.7495 48.0857 47.8093 48.0599 47.8702 48.0367C47.903 48.0241 47.9367 48.0135 47.9699 48.0016C48.0324 47.979 48.0948 47.9558 48.1583 47.9352C48.1971 47.9227 48.2367 47.9123 48.2757 47.9004C48.3344 47.8828 48.3929 47.8641 48.4524 47.8483C48.4962 47.8365 48.5409 47.8272 48.585 47.8164C48.6407 47.8029 48.6959 47.7882 48.7523 47.7762C48.7961 47.7668 48.8407 47.7599 48.8848 47.7515C48.9423 47.7406 48.9995 47.7286 49.0576 47.7194C49.1035 47.712 49.1503 47.7072 49.1966 47.701C49.2536 47.6933 49.3102 47.6844 49.3677 47.6784C49.4236 47.6724 49.4802 47.6694 49.5365 47.665C49.5851 47.6613 49.6335 47.656 49.6823 47.6534C49.7879 47.6479 49.8942 47.645 50.0011 47.645C50.1153 47.6452 50.2298 47.6493 50.3439 47.6556Z" fill="#282C2E"/>
</svg>
