<svg width="100" height="100" viewBox="0 0 100 100" fill="none" xmlns="http://www.w3.org/2000/svg">
<path d="M83.0953 55.5085C82.1414 54.1772 80.5522 53.2825 78.9482 53.1736C77.6389 53.0856 76.4525 53.5272 75.6084 54.4197C75.4232 54.6155 75.2234 54.8305 75.0119 55.0608C74.0781 54.2063 72.8545 53.6564 71.6208 53.5727C70.311 53.4851 69.1249 53.9264 68.281 54.8188C66.4438 56.7613 63.1907 60.5561 60.636 63.5771C60.3027 63.3803 59.9463 63.218 59.5692 63.0962C58.348 62.5709 41.5143 55.3898 34.0526 55.3898C21.9992 55.3898 16.4618 61.8611 16.232 62.1365C15.8795 62.5591 15.9367 63.1858 16.3586 63.5391C16.7806 63.8925 17.4104 63.8371 17.7654 63.4166C17.7781 63.4016 19.0718 61.8886 21.714 60.3978C24.1494 59.024 28.2671 57.3858 34.0525 57.3858C41.2211 57.3858 58.6473 64.8728 58.8226 64.9484C59.1429 65.0864 59.4733 65.192 59.7658 65.3869C60.042 65.571 60.2892 65.7983 60.4963 66.0574C60.8987 66.5609 61.1507 67.1838 61.2036 67.8263C61.3149 69.1725 60.5584 70.4732 59.3374 71.0482C58.5674 71.4107 57.7534 71.4216 56.9445 71.2002L46.0419 68.2009C45.5169 68.0564 44.9577 68.3739 44.8132 68.898C44.6686 69.4224 44.9863 69.9809 45.5111 70.1252L56.3985 73.1204C57.7214 73.5281 59.167 73.3947 60.3926 72.7527C61.6376 72.1007 62.5538 71.0033 62.9724 69.663C63.1091 69.2258 63.1862 68.7797 63.2071 68.3338L66.1312 68.0262C66.39 67.999 66.628 67.872 66.7946 67.6723C66.8667 67.5858 74.0368 58.9878 77.0612 55.7902C78.3182 54.4605 80.5627 55.403 81.4704 56.6698C82.8663 58.6178 81.1316 60.7443 80.5668 61.3498C77.791 64.3246 72.701 70.4535 71.7861 71.5583L51.0698 81.9046L40.4112 77.4219C39.9094 77.2109 39.3139 77.453 39.1026 77.9545C38.8913 78.4557 39.1339 79.0505 39.6357 79.2615L50.718 83.9224C50.9845 84.0346 51.2941 84.0244 51.5526 83.8953L72.8688 73.2491C72.9935 73.1869 73.1038 73.0992 73.1926 72.9916C73.2511 72.9208 79.0775 65.8737 82.0289 62.7105C84.2013 60.3826 84.6103 57.6225 83.0953 55.5085ZM65.5189 66.0838L62.9154 66.3577C62.7308 65.8357 62.4646 65.3452 62.129 64.905C64.3052 62.3318 67.8416 58.1904 69.7335 56.19C70.2801 55.6118 70.9875 55.53 71.4851 55.5647C72.2684 55.6179 73.0716 55.987 73.6757 56.5452C70.6778 59.9256 66.5965 64.7946 65.5189 66.0838Z" fill="#282C2E"/>
<path d="M35.5056 75.3596L31.2427 73.5667C31.1199 73.5151 30.988 73.4885 30.8548 73.4885H16.9992C16.4474 73.4885 16 73.9353 16 74.4865C16 75.0378 16.4474 75.4846 16.9992 75.4846H30.653L34.7299 77.1991C35.2663 77.4247 35.895 77.1315 36.0706 76.5793C36.2248 76.0945 35.9745 75.5567 35.5056 75.3596Z" fill="#282C2E"/>
<path d="M69.083 49.2789L64.8283 49.8861C68.2882 46.1834 70.2235 41.3326 70.2235 36.1609C70.2235 25.0442 61.169 16 50.0397 16C38.9103 16 29.856 25.0442 29.856 36.1609C29.856 40.6215 31.2848 44.8486 33.988 48.3849C36.6042 51.8075 40.314 54.3464 44.4343 55.5339C44.9793 55.6907 45.558 55.3483 45.6851 54.7974C45.8028 54.2881 45.4903 53.7608 44.9883 53.6159C37.2552 51.3873 31.8543 44.2093 31.8543 36.1608C31.8543 26.1446 40.0123 17.9959 50.0397 17.9959C60.0672 17.9959 68.2251 26.1446 68.2251 36.1608C68.2251 41.1122 66.2573 45.7382 62.7628 49.1427V43.8792C62.7628 43.3278 62.3155 42.8811 61.7636 42.8811C61.2117 42.8811 60.7644 43.3278 60.7644 43.8792V51.3314C60.7644 51.9281 61.313 52.4044 61.9049 52.3195L69.3656 51.2549C69.9046 51.178 70.2906 50.6641 70.2135 50.1257C70.1365 49.5878 69.6214 49.2028 69.083 49.2789Z" fill="#282C2E"/>
<path d="M50.0396 35.162H48.9737C47.7616 35.162 46.7756 34.1769 46.7756 32.9663C46.7756 31.7556 47.7618 30.7705 48.9737 30.7705H53.237C53.7889 30.7705 54.2362 30.3237 54.2362 29.7724C54.2362 29.2211 53.7889 28.7743 53.237 28.7743H51.0387V27.6431C51.0387 27.0918 50.5914 26.645 50.0395 26.645C49.4876 26.645 49.0402 27.0918 49.0402 27.6431V28.7743H48.9736C46.6596 28.7743 44.777 30.6548 44.777 32.9662C44.777 35.2775 46.6596 37.1581 48.9736 37.1581H50.0395C51.2516 37.1581 52.2378 38.1431 52.2378 39.3537C52.2378 40.5643 51.2516 41.5494 50.0395 41.5494H45.7762C45.2244 41.5494 44.777 41.9962 44.777 42.5475C44.777 43.0988 45.2244 43.5456 45.7762 43.5456H49.0402V44.6768C49.0402 45.2281 49.4876 45.6749 50.0395 45.6749C50.5914 45.6749 51.0387 45.2281 51.0387 44.6768V43.4248C52.8717 42.9757 54.2361 41.3214 54.2361 39.3539C54.2362 37.0425 52.3536 35.162 50.0396 35.162Z" fill="#282C2E"/>
</svg>
