<svg width="100" height="100" viewBox="0 0 100 100" fill="none" xmlns="http://www.w3.org/2000/svg">
<path d="M82.2617 71.7222L68.2771 57.2034C67.801 56.7091 67.1681 56.437 66.4948 56.437C66.029 56.437 65.5841 56.57 65.1954 56.8139L57.3391 48.6573C56.9364 48.2394 56.2836 48.2394 55.8809 48.6573C55.4784 49.0753 55.4784 49.7531 55.8809 50.1711L63.6834 58.2716L60.8089 61.2559L46.4976 46.3978L49.372 43.4135L51.2871 45.4014C51.6895 45.8195 52.3424 45.8194 52.7451 45.4014C53.1476 44.9833 53.1476 44.3056 52.7449 43.8877L50.8301 41.8998L55.8133 36.7261L56.2076 37.1355C56.6973 37.6441 57.3486 37.9241 58.0415 37.9241C58.7343 37.9241 59.3854 37.6441 59.8754 37.1355L61.7122 35.2286C62.2019 34.72 62.4717 34.0438 62.4717 33.3248C62.4717 32.6055 62.2019 31.9293 61.7122 31.421L47.6185 16.7887C47.1288 16.2802 46.4775 16 45.7846 16C45.0919 16 44.4407 16.28 43.951 16.7886L42.1141 18.6955C41.6243 19.2041 41.3544 19.8801 41.3544 20.5995C41.3544 21.3186 41.6243 21.9948 42.114 22.5033L42.5083 22.9127L26.7512 39.2718L26.3568 38.8624C25.3457 37.8128 23.7005 37.8128 22.6894 38.8626L20.8526 40.7695C20.3629 41.2781 20.093 41.9543 20.093 42.6733C20.093 43.3925 20.3629 44.0687 20.8526 44.5771L34.946 59.2091C35.4358 59.7176 36.0871 59.9977 36.7798 59.9977C37.4726 59.9977 38.1238 59.7176 38.6136 59.2091L40.4505 57.3021C40.4506 57.3021 40.4506 57.3021 40.4506 57.3021C41.4615 56.2524 41.4616 54.5444 40.4506 53.4945L40.0563 53.0851L45.0394 47.9116L59.4048 62.8259C59.1699 63.2293 59.0419 63.6912 59.0419 64.1748C59.0419 64.8738 59.304 65.5309 59.78 66.0253L73.7645 80.544C74.2406 81.0383 74.8735 81.3104 75.547 81.3104C76.2202 81.3104 76.8531 81.0382 77.3293 80.544L82.2617 75.4232C82.7377 74.929 82.9999 74.2718 82.9999 73.5728C82.9999 72.8737 82.7377 72.2164 82.2617 71.7222ZM43.5721 20.2094L45.4092 18.3023C45.5095 18.1982 45.6429 18.1408 45.7846 18.1408C45.9265 18.1408 46.06 18.1982 46.1602 18.3024L60.2539 32.9344C60.3542 33.0385 60.4096 33.1771 60.4096 33.3243C60.4096 33.4716 60.3543 33.6102 60.2538 33.7144L58.4171 35.6214C58.2163 35.8297 57.8663 35.8299 57.6656 35.6215L43.5723 20.9896C43.4719 20.8853 43.4165 20.7469 43.4165 20.5995C43.4165 20.4521 43.4719 20.3138 43.5721 20.2094ZM38.9925 55.7883L37.1554 57.6952C36.9549 57.9036 36.6048 57.9036 36.4041 57.6952L22.3106 43.0633C22.2103 42.9592 22.1549 42.8206 22.1549 42.6733C22.1549 42.5261 22.2102 42.3875 22.3107 42.2832L24.1474 40.3763C24.251 40.2687 24.387 40.215 24.5231 40.215C24.6592 40.215 24.7952 40.2687 24.8987 40.3763L38.9922 55.0081C39.1994 55.2232 39.1994 55.573 38.9925 55.7883ZM44.3103 45.6408C44.3102 45.6409 44.3102 45.6409 44.31 45.6411L38.598 51.5713L28.2092 40.7857L43.9664 24.4267L54.3552 35.2123L48.6438 41.1417C48.6434 41.1421 48.643 41.1424 48.6426 41.1428L44.3103 45.6408ZM80.8034 73.9092L75.871 79.03C75.7543 79.1514 75.6179 79.1694 75.547 79.1694C75.4759 79.1694 75.3395 79.1514 75.2228 79.03L61.2383 64.5111C61.1214 64.3898 61.1039 64.2482 61.1039 64.1745C61.1039 64.1009 61.1213 63.9593 61.2383 63.838L61.5382 63.5266L66.1706 58.7171C66.2873 58.5958 66.4237 58.5777 66.4948 58.5777C66.5657 58.5777 66.7021 58.5958 66.8188 58.7171L80.8034 73.2359C80.9203 73.3572 80.9378 73.4988 80.9378 73.5725C80.9378 73.6461 80.9203 73.7879 80.8034 73.9092Z" fill="#282C2E"/>
<path d="M54.1571 74.5118H52.5774V68.8711C52.5774 67.6128 51.5915 66.5891 50.3795 66.5891H32.6069C32.0374 66.5891 31.5759 67.0684 31.5759 67.6595C31.5759 68.2506 32.0374 68.7299 32.6069 68.7299H50.3795C50.4544 68.7299 50.5154 68.7932 50.5154 68.871V74.5117H23.1203V68.871C23.1203 68.7931 23.1812 68.7299 23.2562 68.7299H26.1289C26.6984 68.7299 27.1599 68.2506 27.1599 67.6595C27.1599 67.0684 26.6984 66.5891 26.1289 66.5891H23.2562C22.0441 66.5891 21.0582 67.6128 21.0582 68.8711V74.5118H19.4786C17.0091 74.5118 15 76.5976 15 79.1615V82.2092C15 83.1967 15.7738 84.0001 16.725 84.0001H56.9107C57.8619 84.0001 58.6356 83.1967 58.6356 82.2092V79.1615C58.6356 76.5976 56.6266 74.5118 54.1571 74.5118ZM56.5737 81.8592H17.062V79.1615C17.062 77.7782 18.1461 76.6526 19.4786 76.6526H54.1572C55.4896 76.6526 56.5737 77.7781 56.5737 79.1615V81.8592Z" fill="#282C2E"/>
</svg>
