<svg width="100" height="100" viewBox="0 0 100 100" fill="none" xmlns="http://www.w3.org/2000/svg">
<path d="M66.5951 56.2104C66.0286 56.2104 65.5697 56.6896 65.5697 57.2809V69.9009C65.5697 70.525 65.0845 71.033 64.4881 71.033H43.8477C43.2814 71.033 42.8223 71.5122 42.8223 72.1035C42.8223 72.6948 43.2814 73.174 43.8477 73.174H64.4881C66.2153 73.174 67.6204 71.7057 67.6204 69.9009V57.2809C67.6204 56.6896 67.1613 56.2104 66.5951 56.2104Z" fill="#282C2E"/>
<path d="M26.6577 48.8536H55.9631C56.5295 48.8536 56.9885 48.3745 56.9885 47.7831C56.9885 47.1918 56.5295 46.7126 55.9631 46.7126H26.6577C26.0914 46.7126 25.6323 47.1918 25.6323 47.7831C25.6323 48.3743 26.0913 48.8536 26.6577 48.8536Z" fill="#282C2E"/>
<path d="M26.6577 55.3026H55.9631C56.5295 55.3026 56.9885 54.8234 56.9885 54.2321C56.9885 53.6408 56.5295 53.1616 55.9631 53.1616H26.6577C26.0914 53.1616 25.6323 53.6408 25.6323 54.2321C25.6323 54.8234 26.0913 55.3026 26.6577 55.3026Z" fill="#282C2E"/>
<path d="M26.6577 61.7523H42.1261C42.6924 61.7523 43.1515 61.2731 43.1515 60.6818C43.1515 60.0905 42.6924 59.6113 42.1261 59.6113H26.6577C26.0914 59.6113 25.6323 60.0905 25.6323 60.6818C25.6323 61.273 26.0913 61.7523 26.6577 61.7523Z" fill="#282C2E"/>
<path d="M69.7125 17C61.283 17 54.425 24.1594 54.425 32.9594C54.425 33.6953 54.474 34.4194 54.5668 35.1288H18.1322C16.4051 35.1288 15 36.5973 15 38.402V69.9006C15 71.7055 16.4051 73.1737 18.1322 73.1737H24.0237V80.7952C24.0237 82.2086 24.6949 82.7095 25.0949 82.8824C25.2185 82.9356 25.4211 83 25.6798 83C26.0945 83 26.6538 82.835 27.2644 82.1969L35.8962 73.1736H38.9258C39.4921 73.1736 39.9512 72.6944 39.9512 72.1031C39.9512 71.5118 39.4921 71.0326 38.9258 71.0326H35.4712C35.199 71.0326 34.938 71.1455 34.7456 71.3468L26.0745 80.4107V72.1031C26.0745 71.5118 25.6154 71.0326 25.0491 71.0326H18.1322C17.5359 71.0326 17.0508 70.5246 17.0508 69.9005V38.402C17.0508 37.7776 17.5359 37.2696 18.1322 37.2696H54.9919C56.4274 42.6064 60.4599 46.82 65.5697 48.3236V52.285C65.5697 52.8763 66.0286 53.3555 66.5951 53.3555C67.1615 53.3555 67.6204 52.8763 67.6204 52.285V48.7694C68.3047 48.8676 69.0028 48.9194 69.7125 48.9194C78.1421 48.9194 85 41.7597 85 32.9593C85 24.1594 78.1421 17 69.7125 17ZM69.7125 46.7786C62.4137 46.7786 56.4758 40.5792 56.4758 32.9594C56.4758 25.34 62.4138 19.141 69.7125 19.141C77.0114 19.141 82.9492 25.34 82.9492 32.9594C82.9492 40.5792 77.0113 46.7786 69.7125 46.7786Z" fill="#282C2E"/>
<path d="M73.8261 36.8742C71.5577 39.2214 67.8665 39.2214 65.5981 36.8742C65.196 36.458 64.5469 36.461 64.1481 36.8809C63.7494 37.3006 63.7523 37.9786 64.1546 38.3948C65.6868 39.9801 67.6995 40.773 69.7121 40.773C71.7249 40.773 73.7374 39.9801 75.2696 38.3948C75.6718 37.9786 75.6748 37.3006 75.2762 36.8809C74.8776 36.4611 74.2283 36.458 73.8261 36.8742Z" fill="#282C2E"/>
<path d="M75.5849 28.1221C73.6703 28.1221 72.1128 29.7325 72.1128 31.712C72.1128 32.3034 72.5718 32.7825 73.1382 32.7825C73.7046 32.7825 74.1636 32.3034 74.1636 31.712C74.1636 30.913 74.8012 30.263 75.5849 30.263C76.3686 30.263 77.0062 30.9132 77.0062 31.712C77.0062 32.3034 77.4652 32.7825 78.0316 32.7825C78.598 32.7825 79.057 32.3034 79.057 31.712C79.0569 29.7325 77.4994 28.1221 75.5849 28.1221Z" fill="#282C2E"/>
<path d="M65.2616 31.712C65.2616 32.3034 65.7207 32.7825 66.287 32.7825C66.8534 32.7825 67.3124 32.3034 67.3124 31.712C67.3124 29.7325 65.7548 28.1221 63.8402 28.1221C61.9257 28.1221 60.368 29.7325 60.368 31.712C60.368 32.3034 60.827 32.7825 61.3934 32.7825C61.9599 32.7825 62.4188 32.3034 62.4188 31.712C62.4188 30.913 63.0563 30.263 63.8402 30.263C64.624 30.263 65.2616 30.913 65.2616 31.712Z" fill="#282C2E"/>
<path d="M16.709 31.0356H35.0977C35.6639 31.0356 36.123 30.5565 36.123 29.9651C36.123 29.3738 35.6639 28.8947 35.0977 28.8947H17.0508V21.1231H43.4579V28.8947H40.0195C39.4532 28.8947 38.9941 29.3738 38.9941 29.9651C38.9941 30.5565 39.4532 31.0356 40.0195 31.0356H43.7997C44.7421 31.0356 45.5087 30.2353 45.5087 29.2515V20.7663C45.5087 19.7826 44.7421 18.9822 43.7997 18.9822H16.709C15.7666 18.9822 15 19.7826 15 20.7663V29.2515C15 30.2352 15.7666 31.0356 16.709 31.0356Z" fill="#282C2E"/>
<path d="M39.8501 25.0085C39.8501 24.4171 39.391 23.938 38.8247 23.938H20.8105C20.2443 23.938 19.7852 24.4171 19.7852 25.0085C19.7852 25.5998 20.2443 26.0789 20.8105 26.0789H38.8247C39.391 26.0789 39.8501 25.5998 39.8501 25.0085Z" fill="#282C2E"/>
</svg>
