<svg width="100" height="100" viewBox="0 0 100 100" fill="none" xmlns="http://www.w3.org/2000/svg">
<path d="M42.4715 69.2189C41.8824 69.3259 41.491 69.8929 41.5974 70.4856C41.6945 71.0262 41.7436 71.5815 41.7436 72.136V81.8193H15.168V72.136C15.168 67.0518 19.2803 62.9156 24.335 62.9156H25.7831L22.8082 73.0852C22.6975 73.4636 22.7986 73.8726 23.0725 74.1546L27.68 78.9009C27.884 79.111 28.1636 79.2296 28.4556 79.2296C28.7475 79.2296 29.0272 79.1111 29.2311 78.9009L33.8387 74.1546C34.1125 73.8726 34.2137 73.4635 34.103 73.0852L31.1281 62.9156H32.5762C35.5908 62.9156 38.4139 64.408 40.1282 66.9078C40.4683 67.4035 41.1434 67.5281 41.636 67.1862C42.1288 66.8443 42.2528 66.1654 41.9129 65.6695C39.7939 62.5797 36.3035 60.7351 32.5762 60.7351H29.6793H27.232H24.335C18.0849 60.7351 13 65.8495 13 72.136V82.9096C13 83.5119 13.4853 83.9999 14.084 83.9999H42.8276C43.4263 83.9999 43.9116 83.5119 43.9116 82.9096V72.136C43.9116 71.452 43.8508 70.7663 43.731 70.0981C43.6244 69.5057 43.06 69.1129 42.4715 69.2189ZM28.8687 62.9156L31.8443 73.0883L28.4557 76.5789L25.0672 73.0883L28.0428 62.9156H28.8687Z" fill="#282C2E"/>
<path d="M28.4563 58.4384C35.5064 58.4384 41.2421 52.6694 41.2421 45.5784V42.1256V39.9041C41.2421 39.7894 41.2405 39.6751 41.2375 39.5612C41.2369 39.537 41.2355 39.5132 41.2348 39.4892C41.2319 39.3981 41.2285 39.3072 41.2238 39.2165C41.2226 39.1944 41.2209 39.1725 41.2196 39.1504C41.2142 39.0566 41.208 38.963 41.2006 38.8698C41.1993 38.8538 41.1978 38.8378 41.1965 38.8217C41.1881 38.7217 41.1788 38.6219 41.1683 38.5225C41.1673 38.5125 41.166 38.5026 41.1648 38.4926C41.1532 38.3861 41.1404 38.2802 41.1262 38.1745C41.1258 38.1707 41.1252 38.1671 41.1246 38.1633C40.9539 36.9005 40.6008 35.6954 40.0921 34.576C40.0789 34.5471 40.0652 34.5185 40.0519 34.4897C40.0213 34.4237 39.9906 34.3578 39.959 34.2924C39.935 34.2427 39.9101 34.1933 39.8854 34.1438C39.864 34.1011 39.8428 34.0582 39.8208 34.0158C39.7883 33.9524 39.755 33.8894 39.7214 33.8265C39.7073 33.8002 39.6933 33.774 39.679 33.7478C39.6384 33.6731 39.5971 33.5988 39.555 33.525C39.5487 33.5138 39.5421 33.5026 39.5358 33.4914C38.8283 32.2571 37.9146 31.1354 36.8172 30.1808C36.8037 30.1678 36.7898 30.1552 36.7757 30.143C36.7238 30.0982 36.6699 30.0565 36.6174 30.0126C36.5843 29.985 36.5511 29.9578 36.5177 29.9305C36.4097 29.8422 36.3007 29.7556 36.1903 29.6711C36.1267 29.6224 36.0627 29.5743 35.9982 29.5268C35.9292 29.476 35.8601 29.4254 35.7901 29.3762C35.6872 29.3035 35.5831 29.2324 35.4781 29.1628C35.4428 29.1395 35.4078 29.1157 35.3724 29.0927C35.2345 29.0031 35.0945 28.9166 34.953 28.8323C34.9374 28.8232 34.9219 28.8137 34.9063 28.8046C33.3234 27.8704 31.5243 27.2693 29.604 27.0968C29.5968 27.0962 29.5896 27.0955 29.5822 27.0949C29.4046 27.0792 29.2259 27.0668 29.0463 27.0587C29.0274 27.0578 29.0083 27.0572 28.9893 27.0565C28.8124 27.0492 28.635 27.0444 28.4563 27.0444C25.3024 27.0444 22.273 28.2094 19.9261 30.3247C19.4802 30.7265 19.4428 31.4158 19.8423 31.8643C20.2417 32.3125 20.9271 32.3504 21.373 31.9485C23.3216 30.1923 25.8371 29.225 28.4563 29.225C28.6257 29.225 28.7941 29.2299 28.9616 29.2379C29.034 29.2414 29.106 29.2475 29.1783 29.2524C29.2699 29.2587 29.3614 29.265 29.4524 29.2735C29.5465 29.2825 29.6403 29.2936 29.734 29.3051C29.7989 29.3129 29.8636 29.3209 29.9281 29.3299C30.0371 29.3453 30.1457 29.3625 30.2541 29.3812C30.2981 29.3888 30.3419 29.3968 30.3857 29.4049C30.5087 29.4279 30.6314 29.4523 30.7534 29.4795C30.775 29.4843 30.7966 29.4897 30.8182 29.4946C31.6862 29.6945 32.5259 30.0042 33.3178 30.415C33.3503 30.432 33.3832 30.4483 33.4156 30.4654C33.5087 30.515 33.6006 30.567 33.6922 30.6195C33.7485 30.6516 33.8047 30.6836 33.8603 30.7168C33.9339 30.7605 34.0066 30.8059 34.0793 30.8515C34.1534 30.8983 34.2272 30.9454 34.3001 30.994C34.3561 31.031 34.4116 31.0688 34.4669 31.1071C34.5571 31.1696 34.6463 31.2334 34.7345 31.2985C34.7732 31.3272 34.8119 31.3557 34.8502 31.3847C34.9562 31.4654 35.0607 31.548 35.1636 31.6324C35.1844 31.6496 35.2055 31.6663 35.2263 31.6836C35.3119 31.755 35.3951 31.8293 35.4784 31.9033C35.5482 31.9652 35.6171 32.0278 35.685 32.0915C35.7538 32.1559 35.8219 32.2209 35.889 32.287C35.9482 32.3453 36.006 32.4049 36.0637 32.4645C36.1338 32.5371 36.2039 32.6098 36.272 32.6842C36.3223 32.7393 36.3708 32.7955 36.4198 32.8515C36.4904 32.932 36.5613 33.0123 36.6296 33.095C36.6709 33.145 36.7099 33.1966 36.7504 33.2475C36.9825 33.5394 37.1993 33.8439 37.4003 34.1595C37.4505 34.2385 37.5019 34.3167 37.5501 34.3968C37.5903 34.4636 37.6277 34.5323 37.6664 34.6C37.7195 34.6929 37.7727 34.7858 37.8229 34.8801C37.8558 34.9418 37.8865 35.0046 37.9182 35.0669C37.9709 35.171 38.023 35.2752 38.0723 35.3809C38.0987 35.4375 38.1239 35.4949 38.1493 35.552C38.2002 35.6664 38.2496 35.7814 38.2964 35.8976C38.3174 35.9495 38.3378 36.0017 38.3579 36.054C38.4054 36.1777 38.4509 36.3021 38.4939 36.4276C38.5103 36.4756 38.5267 36.5235 38.5424 36.5718C38.5854 36.7032 38.6255 36.8356 38.6634 36.9688C38.6763 37.0137 38.6894 37.0585 38.7016 37.1037C38.7387 37.2409 38.7724 37.3793 38.804 37.5181C38.8139 37.5616 38.8246 37.6046 38.8339 37.6483C38.8642 37.789 38.8905 37.9307 38.915 38.0727C38.9225 38.1163 38.9314 38.1597 38.9383 38.2034C38.9611 38.3456 38.9795 38.4886 38.9965 38.632C39.0019 38.677 39.0088 38.7214 39.0136 38.7666C39.0291 38.9122 39.0398 39.0589 39.0493 39.2057C39.052 39.2488 39.0568 39.2912 39.0591 39.3344C39.0691 39.5235 39.0746 39.7134 39.0746 39.9038V40.8302C36.8624 40.2842 34.9336 38.9122 33.6667 36.9486C33.4833 36.6644 33.1789 36.4821 32.8431 36.4552C32.5065 36.4285 32.1781 36.5602 31.9525 36.8117C29.5107 39.5331 26.0239 41.0938 22.3863 41.0938C20.8184 41.0938 19.2919 40.8138 17.8388 40.2605V39.9038C17.8388 38.2514 18.2034 36.6677 18.9228 35.1969C19.187 34.6566 18.9657 34.0031 18.4286 33.7374C17.8911 33.4711 17.2417 33.6942 16.9774 34.2344C16.1103 36.0073 15.6707 37.9147 15.6707 39.9038V40.9917V45.5781C15.6705 52.6696 21.4061 58.4384 28.4563 58.4384ZM17.8385 42.5683C19.3043 43.0371 20.8277 43.2746 22.386 43.2746C26.196 43.2746 29.8641 41.8095 32.6375 39.2162C34.2832 41.2108 36.5462 42.5632 39.0742 43.0606V45.5784C39.0742 51.4671 34.311 56.2579 28.4563 56.2579C22.6016 56.2579 17.8385 51.4671 17.8385 45.5784V42.5683Z" fill="#282C2E"/>
<path d="M28.4551 50.056H29.8372C30.4359 50.056 30.9212 49.568 30.9212 48.9658C30.9212 48.3635 30.4359 47.8755 29.8372 47.8755H29.5391V45.3327C29.5391 44.7304 29.0537 44.2424 28.4551 44.2424C27.8564 44.2424 27.3711 44.7304 27.3711 45.3327V48.9658C27.3711 49.568 27.8564 50.056 28.4551 50.056Z" fill="#282C2E"/>
<path d="M33.3344 21.5139C37.211 21.4438 41.0457 22.0285 44.7286 23.2512C44.8411 23.2886 44.9557 23.3064 45.0684 23.3064C45.4928 23.3064 45.8924 23.0542 46.0664 22.6415L48.2271 17.5162C48.3723 17.1721 48.3319 16.7772 48.1203 16.4699C47.9087 16.1627 47.5558 15.9826 47.1839 16.0013C46.1351 16.0454 45.0869 16.1316 44.0684 16.2581C40.1759 16.7401 36.4065 17.808 32.8652 19.4318C32.3978 19.646 32.1441 20.1609 32.2576 20.6646C32.3712 21.1685 32.8151 21.5196 33.3344 21.5139ZM44.3336 18.4222C44.7331 18.3727 45.1374 18.3297 45.5448 18.2934L44.4549 20.8785C42.5222 20.2947 40.5534 19.8747 38.5615 19.6202C40.4421 19.0662 42.371 18.6654 44.3336 18.4222Z" fill="#282C2E"/>
<path d="M86.9627 52.7849C86.9494 52.4812 86.8105 52.1969 86.5798 52.0005C86.349 51.8041 86.0466 51.7132 85.7473 51.7509L69.4051 53.7759C68.8439 53.8454 68.4301 54.337 68.4547 54.9053C68.4644 55.1304 68.4713 55.3556 68.4757 55.5806C68.4868 56.1829 68.9835 56.6647 69.5799 56.6503C70.0811 56.6408 70.4964 56.2905 70.6117 55.8234L84.8298 54.0617C84.9009 60.232 83.406 66.2993 80.4746 71.7313L69.113 66.8864C69.4023 65.9164 69.651 64.9312 69.8595 63.9408C73.1465 64.7485 75.5831 65.3471 76.0735 65.4678C76.1049 65.4756 76.1365 65.4819 76.168 65.4867C76.284 65.5086 76.4006 65.5195 76.5167 65.5195C77.0779 65.5195 77.6223 65.2673 77.9809 64.8202C78.2957 64.4284 78.4405 63.9368 78.3883 63.4358C78.3362 62.9336 78.0925 62.4819 77.7022 62.1643C77.5982 62.0797 77.484 62.007 77.3552 61.9436C77.3194 61.9234 77.2824 61.9054 77.2441 61.8894C76.0607 61.3927 62.9859 55.8951 54.9923 52.5333C54.084 49.5291 51.1016 47.5358 47.9464 47.9249C44.3741 48.3687 41.825 51.6533 42.2643 55.247C42.6708 58.5697 45.4926 61.0122 48.7412 61.0122C49.0062 61.0122 49.274 60.9961 49.5434 60.9626C50.6792 60.8216 51.7402 60.3911 52.6454 59.7106L67.7526 63.4232C67.4894 64.6857 67.1555 65.9394 66.754 67.1618C66.577 67.7007 66.8407 68.2859 67.3602 68.5076L80.5226 74.1203C80.6602 74.1789 80.8036 74.207 80.9452 74.207C81.3223 74.207 81.6855 74.0084 81.8845 73.6618C85.5273 67.316 87.2834 60.0968 86.9627 52.7849ZM49.2777 58.7984C49.0976 58.8206 48.9191 58.8317 48.7419 58.8317C46.5722 58.8314 44.687 57.2001 44.4156 54.9808C44.1222 52.5799 45.825 50.3856 48.2111 50.0892C48.3878 50.0674 48.5635 50.0566 48.7379 50.0566C50.7732 50.0566 52.5967 51.508 53.0162 53.5543C53.0381 53.6599 53.0571 53.776 53.0734 53.9074C53.2481 55.3299 52.7179 56.752 51.6547 57.7116C51.6545 57.7118 51.6544 57.7119 51.6542 57.712C50.9901 58.3121 50.1682 58.6878 49.2777 58.7984ZM54.3317 57.8391C54.3622 57.7884 54.3904 57.7366 54.4194 57.6852C54.4537 57.6244 54.4884 57.5638 54.5206 57.502C54.5483 57.4491 54.5739 57.3953 54.6001 57.3416C54.6304 57.2797 54.6609 57.2178 54.6893 57.1548C54.714 57.1 54.7367 57.0445 54.7598 56.9891C54.7862 56.9257 54.8128 56.8627 54.8373 56.7985C54.8588 56.7421 54.8785 56.6853 54.8984 56.6285C54.9211 56.5639 54.9436 56.4995 54.9643 56.4342C54.9827 56.3765 54.9991 56.3182 55.0159 56.26C55.0347 56.1945 55.0532 56.1291 55.07 56.0631C55.085 56.004 55.0983 55.9444 55.1117 55.8848C55.1266 55.8185 55.1411 55.7523 55.1538 55.6856C55.1653 55.6251 55.1756 55.5645 55.1854 55.5037C55.1963 55.4372 55.2067 55.3704 55.2155 55.3036C55.2236 55.2419 55.2304 55.18 55.2369 55.1181C55.2408 55.0804 55.2466 55.0429 55.2499 55.0051C60.935 57.396 68.5961 60.6173 72.9947 62.4665C71.7782 62.1676 70.3248 61.8104 68.7341 61.4197L54.3109 57.8753C54.3183 57.8634 54.3245 57.851 54.3317 57.8391Z" fill="#282C2E"/>
<path d="M77.9444 77.0992L65.8969 71.961C65.3783 71.7402 64.7772 71.9553 64.5147 72.4567C62.6091 76.0954 60.1026 79.3402 57.0649 82.1005C56.7322 82.4029 56.6188 82.8801 56.7798 83.3011C56.9409 83.7221 57.3429 83.9999 57.7916 83.9999H72.837C73.0948 83.9999 73.3443 83.9074 73.5404 83.7391C75.2957 82.2334 76.9175 80.569 78.3607 78.7931C78.5766 78.5273 78.6555 78.1747 78.5736 77.8415C78.4916 77.5083 78.2586 77.2333 77.9444 77.0992ZM72.434 81.8194H60.4612C62.5981 79.5724 64.4387 77.0726 65.9558 74.3548L75.7384 78.5269C74.7133 79.6884 73.6066 80.7912 72.434 81.8194Z" fill="#282C2E"/>
<path d="M49.9958 25.5015C53.6665 27.446 56.9308 30.0092 59.6982 33.1196C59.9114 33.3592 60.2077 33.4829 60.5065 33.4829C60.7346 33.4829 60.964 33.4108 61.1588 33.2631L71.6065 25.3383C71.879 25.1316 72.0388 24.808 72.0378 24.4648C72.0368 24.1216 71.8752 23.7987 71.6016 23.5936C66.3398 19.6485 60.1371 17.1198 53.6644 16.2803C53.1826 16.2174 52.7176 16.4859 52.5278 16.9361L49.5029 24.1114C49.283 24.6331 49.4972 25.2376 49.9958 25.5015ZM54.1989 18.5578C59.5327 19.3761 64.6495 21.4117 69.1225 24.4912L60.6385 30.9266C58.0757 28.1964 55.1374 25.8894 51.8828 24.0518L54.1989 18.5578Z" fill="#282C2E"/>
<path d="M63.1472 37.7104C65.3604 41.2292 66.9104 45.0908 67.7543 49.1877C67.8597 49.6991 68.3076 50.0569 68.8147 50.0569C68.8588 50.0569 68.9035 50.0541 68.9483 50.0485L85.29 48.0239C85.5899 47.9868 85.8609 47.8253 86.0374 47.5786C86.214 47.3319 86.28 47.0222 86.2196 46.7243C84.7672 39.5525 81.322 32.9779 76.2562 27.7114C75.8758 27.3158 75.2616 27.2673 74.8245 27.5991L63.4104 36.257C62.9602 36.5987 62.8456 37.231 63.1472 37.7104ZM75.3548 29.9283C79.5093 34.4823 82.4232 40.0033 83.8425 46.0066L69.6614 47.7634C68.804 44.1002 67.4083 40.623 65.5024 37.4018L75.3548 29.9283Z" fill="#282C2E"/>
</svg>
