<svg width="32" height="32" viewBox="0 0 32 32" fill="none" xmlns="http://www.w3.org/2000/svg">
<path fill-rule="evenodd" clip-rule="evenodd" d="M17.1545 25.8067C17.1951 25.8186 17.236 25.8239 17.2761 25.8239C17.4651 25.8239 17.6393 25.7003 17.6946 25.5101C17.7616 25.2798 17.6286 25.0387 17.3972 24.9719C15.0239 24.2855 12.7427 22.8991 10.8004 20.9624C7.31322 17.4847 5.94296 12.6757 6.39162 9.72235C6.42185 9.52255 6.60119 9.1614 6.81915 8.9432L8.99124 6.77812C9.37648 6.3935 9.92886 6.23159 10.4678 6.34593C10.7028 6.39433 10.9344 6.24518 10.9845 6.01057C11.0345 5.77592 10.8841 5.54526 10.6485 5.49516C9.81901 5.31913 8.96879 5.56986 8.37457 6.16338L6.20218 8.32928C5.86816 8.66323 5.59176 9.18284 5.5296 9.59207C5.04817 12.7613 6.49221 17.8955 10.1839 21.577C12.23 23.6172 14.6403 25.0799 17.1545 25.8067ZM21.2369 26.24C21.0098 26.24 20.8187 26.0642 20.8035 25.8341C20.7876 25.5949 20.9692 25.388 21.2087 25.3725C21.4652 25.3555 21.7173 25.3286 21.9576 25.2927C22.1569 25.2625 22.5181 25.0839 22.7364 24.8662L24.9019 22.7037C25.204 22.4018 25.3704 21.9988 25.3704 21.5682C25.3704 21.1383 25.2043 20.7357 24.9021 20.435L22.7358 18.2703C22.1096 17.6453 21.0894 17.645 20.4622 18.2709L18.2968 20.4344C18.2152 20.5158 18.1046 20.5617 17.9892 20.5617C17.1294 20.5617 14.8801 19.0788 13.7103 17.9099C12.5405 16.7422 11.056 14.4966 11.056 13.6376C11.056 13.5223 11.1019 13.412 11.1834 13.3306L13.3497 11.1682C13.9759 10.542 13.9759 9.52327 13.3494 8.89715L11.6704 7.22119C11.5006 7.05156 11.5006 6.77685 11.6704 6.60722C11.8399 6.43759 12.1155 6.43759 12.2853 6.60722L13.9645 8.28318C14.9298 9.24795 14.9298 10.8173 13.9647 11.7821L11.9541 13.7888C12.1371 14.4056 13.1781 16.1508 14.3254 17.2959C15.4725 18.4422 17.2205 19.4821 17.8373 19.665L19.8474 17.6564C20.8139 16.693 22.3853 16.693 23.3506 17.6564L25.5169 19.8205C25.9831 20.2852 26.24 20.9065 26.24 21.5682C26.24 22.2306 25.9831 22.8519 25.5167 23.3177L23.3509 25.4807C23.0172 25.8134 22.4977 26.0891 22.0877 26.1512C21.8223 26.1914 21.5463 26.2205 21.266 26.2392L21.2487 26.2398L21.2369 26.24ZM19.3889 26.032C19.3739 26.032 19.359 26.0315 19.3437 26.03C19.1928 26.0135 19.0406 25.9938 18.8874 25.9713C18.6668 25.9395 18.5152 25.7415 18.5486 25.5298C18.5822 25.3176 18.7894 25.1724 19.0083 25.2044C19.151 25.2254 19.2927 25.2436 19.4328 25.2585C19.6544 25.2822 19.8141 25.4739 19.7895 25.6869C19.7666 25.8855 19.5917 26.032 19.3889 26.032Z" fill="white"/>
</svg>
