<svg width="34" height="34" viewBox="0 0 34 34" fill="none" xmlns="http://www.w3.org/2000/svg">
<path d="M25.5332 16.9449C25.5332 16.9016 25.5332 16.8524 25.5313 16.7952C25.5294 16.6357 25.5256 16.4564 25.5218 16.2653C25.5066 15.7158 25.4799 15.1681 25.438 14.6521C25.3808 13.9409 25.297 13.348 25.1827 12.9028C25.0621 12.4382 24.8257 12.0145 24.4972 11.674C24.1686 11.3336 23.7594 11.0882 23.3104 10.9625C22.7713 10.8128 21.7161 10.7203 20.2304 10.6631C19.5237 10.6356 18.7675 10.6178 18.0113 10.608C17.7466 10.604 17.5008 10.6021 17.2799 10.6001H16.7199C16.4989 10.6021 16.2532 10.604 15.9885 10.608C15.2323 10.6178 14.4761 10.6356 13.7694 10.6631C12.2837 10.7222 11.2266 10.8148 10.6894 10.9625C10.2403 11.0879 9.83088 11.3331 9.50226 11.6737C9.17364 12.0142 8.93733 12.4381 8.81703 12.9028C8.70084 13.348 8.61893 13.9409 8.56179 14.6521C8.51989 15.1681 8.49322 15.7158 8.47798 16.2653C8.47227 16.4564 8.47036 16.6357 8.46846 16.7952C8.46846 16.8524 8.46655 16.9016 8.46655 16.9449V17.0553C8.46655 17.0986 8.46655 17.1478 8.46846 17.205C8.47036 17.3645 8.47417 17.5438 8.47798 17.7348C8.49322 18.2844 8.51989 18.832 8.56179 19.3481C8.61893 20.0593 8.70274 20.6522 8.81703 21.0974C9.06084 22.0409 9.77703 22.7855 10.6894 23.0376C11.2266 23.1874 12.2837 23.2799 13.7694 23.3371C14.4761 23.3646 15.2323 23.3824 15.9885 23.3922C16.2532 23.3962 16.4989 23.3981 16.7199 23.4001H17.2799C17.5008 23.3981 17.7466 23.3962 18.0113 23.3922C18.7675 23.3824 19.5237 23.3646 20.2304 23.3371C21.7161 23.278 22.7732 23.1854 23.3104 23.0376C24.2227 22.7855 24.9389 22.0429 25.1827 21.0974C25.2989 20.6522 25.3808 20.0593 25.438 19.3481C25.4799 18.832 25.5066 18.2844 25.5218 17.7348C25.5275 17.5438 25.5294 17.3645 25.5313 17.205C25.5313 17.1478 25.5332 17.0986 25.5332 17.0553V16.9449ZM24.1618 17.0474C24.1618 17.0887 24.1618 17.134 24.1599 17.1872C24.158 17.3409 24.1542 17.5103 24.1504 17.6935C24.137 18.2175 24.1104 18.7414 24.0704 19.228C24.0189 19.8623 23.9466 20.3823 23.857 20.731C23.7389 21.186 23.3923 21.5465 22.9542 21.6666C22.5542 21.777 21.5466 21.8656 20.177 21.9188C19.4837 21.9464 18.737 21.9641 17.9923 21.9739C17.7313 21.9779 17.4894 21.9798 17.2723 21.9798H16.7275L16.0075 21.9739C15.2627 21.9641 14.518 21.9464 13.8227 21.9188C12.4532 21.8636 11.4437 21.777 11.0456 21.6666C10.6075 21.5445 10.2608 21.186 10.1427 20.731C10.0532 20.3823 9.98084 19.8623 9.92941 19.228C9.88941 18.7414 9.86465 18.2175 9.84941 17.6935C9.8437 17.5103 9.84179 17.3389 9.83989 17.1872C9.83989 17.134 9.83798 17.0868 9.83798 17.0474V16.9528C9.83798 16.9115 9.83798 16.8661 9.83989 16.813C9.84179 16.6593 9.8456 16.4899 9.84941 16.3067C9.86274 15.7827 9.88941 15.2588 9.92941 14.7722C9.98084 14.1379 10.0532 13.6179 10.1427 13.2692C10.2608 12.8142 10.6075 12.4537 11.0456 12.3336C11.4456 12.2232 12.4532 12.1346 13.8227 12.0814C14.5161 12.0538 15.2627 12.0361 16.0075 12.0263C16.2685 12.0223 16.5104 12.0204 16.7275 12.0204H17.2723L17.9923 12.0263C18.737 12.0361 19.4818 12.0538 20.177 12.0814C21.5466 12.1366 22.5561 12.2232 22.9542 12.3336C23.3923 12.4557 23.7389 12.8142 23.857 13.2692C23.9466 13.6179 24.0189 14.1379 24.0704 14.7722C24.1104 15.2588 24.1351 15.7827 24.1504 16.3067C24.1561 16.4899 24.158 16.6613 24.1599 16.813C24.1599 16.8661 24.1618 16.9134 24.1618 16.9528V17.0474ZM15.3046 19.6397L19.7237 16.9804L15.3046 14.3605V19.6397Z" fill="#DDDDDD"/>
<circle cx="17" cy="17" r="16" stroke="#DDDDDD"/>
</svg>
