<svg width="270" height="60" viewBox="0 0 270 60" fill="none" xmlns="http://www.w3.org/2000/svg">
<path d="M29.5821 44.1894H47.1298L50.9959 38.0231L55.238 40.2748L49.8902 48.8037H26.3253L14.5391 30L26.3253 11.1963H49.8902L56.1632 21.2079L51.5675 23.2587L47.1298 16.1848H29.5821L20.8045 30.1871L29.5821 44.1894ZM56.4114 0H18.8038L0 30L18.8038 60H56.4114L75.2152 30L56.4114 0Z" fill="#FFF200"/>
<path d="M83.7446 36.4783V24.3051C83.7446 20.8756 84.7525 18.3536 86.7758 16.7393C88.7991 15.125 91.4316 14.3213 94.6885 14.3213C98.0054 14.3213 100.706 15.0765 102.812 16.5869C104.91 18.0973 105.963 20.1065 105.963 22.6077C105.963 23.6816 105.723 24.416 105.256 24.8109C104.782 25.2058 103.993 25.3998 102.887 25.3998C100.864 25.3998 99.8407 24.804 99.8106 23.6123C99.7805 23.2312 99.7429 22.9056 99.6903 22.6285C99.6451 22.3513 99.5173 21.991 99.3142 21.5407C99.1111 21.0903 98.8478 20.7162 98.5319 20.4044C98.216 20.0996 97.7422 19.8363 97.1104 19.6215C96.4786 19.3998 95.7339 19.2959 94.884 19.2959C91.567 19.2959 89.9123 20.9656 89.9123 24.312V36.4853C89.9123 39.8317 91.6046 41.5014 94.9743 41.5014C95.9821 41.5014 96.8246 41.3559 97.509 41.0649C98.186 40.7739 98.6748 40.3582 98.9757 39.8247C99.2766 39.2843 99.4797 38.8063 99.5925 38.3836C99.6978 37.961 99.773 37.4414 99.8031 36.8317C99.9009 35.64 100.909 35.0441 102.834 35.0441C103.94 35.0441 104.737 35.2381 105.226 35.6331C105.715 36.028 105.963 36.7624 105.963 37.8363C105.963 40.4552 104.91 42.5476 102.812 44.1204C100.713 45.6931 97.9904 46.476 94.6433 46.476C91.394 46.476 88.7615 45.6654 86.7608 44.0511C84.745 42.4298 83.7446 39.9079 83.7446 36.4783Z" fill="#FFF200"/>
<path d="M115.673 39.395C115.673 41.7368 116.824 42.9077 119.118 42.9077C121.435 42.9077 122.601 41.7368 122.601 39.395V30.8731C122.601 28.5382 121.442 27.3604 119.118 27.3604C116.817 27.3604 115.673 28.5313 115.673 30.8731V39.395ZM111.364 39.395V30.8731C111.364 28.4551 112.063 26.6814 113.47 25.559C114.876 24.4435 116.757 23.8823 119.126 23.8823C121.495 23.8823 123.383 24.4435 124.797 25.559C126.211 26.6814 126.918 28.4481 126.918 30.8731V39.395C126.918 41.82 126.211 43.5867 124.797 44.7091C123.383 45.8315 121.495 46.3927 119.126 46.3927C116.757 46.3927 114.876 45.8315 113.47 44.7091C112.071 43.5867 111.364 41.82 111.364 39.395Z" fill="#FFF200"/>
<path d="M132.243 44.952V25.1368C132.243 24.728 132.454 24.4162 132.875 24.2084C133.296 23.9936 133.8 23.8896 134.395 23.8896C135.192 23.8896 135.801 24.0213 136.215 24.2846C136.636 24.5479 137.102 25.116 137.606 25.9959L144 37.3862V25.116C144 24.7072 144.21 24.4023 144.631 24.2014C145.053 24.0005 145.556 23.8966 146.158 23.8966C146.76 23.8966 147.264 24.0005 147.685 24.2014C148.106 24.4023 148.317 24.7072 148.317 25.116V44.9589C148.317 45.3469 148.099 45.6518 147.67 45.8735C147.241 46.0952 146.737 46.2061 146.158 46.2061C144.985 46.2061 144.157 45.7903 143.676 44.952L136.553 32.6818V44.952C136.553 45.34 136.335 45.6449 135.906 45.8666C135.478 46.0883 134.974 46.1991 134.395 46.1991C133.8 46.1991 133.289 46.0883 132.875 45.8666C132.454 45.6449 132.243 45.34 132.243 44.952Z" fill="#FFF200"/>
<path d="M152.266 25.5313C152.266 25.0602 152.559 24.6722 153.146 24.3535C153.732 24.0347 154.342 23.8823 154.988 23.8823C155.808 23.8823 156.29 24.1456 156.448 24.6722L161.517 41.2241L166.557 24.6722C166.714 24.1456 167.196 23.8823 168.016 23.8823C168.632 23.8823 169.242 24.0417 169.836 24.3673C170.43 24.6929 170.731 25.0809 170.731 25.5313C170.731 25.5729 170.708 25.6768 170.663 25.8361L164.3 45.0417C164.165 45.4712 163.834 45.7969 163.307 46.0324C162.781 46.268 162.179 46.3858 161.517 46.3858C159.99 46.3858 159.065 45.9354 158.734 45.0417L152.341 25.8361C152.288 25.6768 152.266 25.5729 152.266 25.5313Z" fill="#FFF200"/>
<path d="M174.672 44.952V25.1368C174.672 24.7557 174.86 24.4439 175.236 24.2222C175.613 24.0005 176.056 23.8896 176.568 23.8896H188.369C188.813 23.8896 189.144 24.0629 189.377 24.4093C189.61 24.7557 189.723 25.1506 189.723 25.601C189.723 26.086 189.603 26.5017 189.362 26.8481C189.121 27.1945 188.79 27.3677 188.369 27.3677H178.99V33.4716H184.029C184.45 33.4716 184.781 33.631 185.022 33.9428C185.263 34.2615 185.391 34.6287 185.391 35.0582C185.391 35.4462 185.278 35.7996 185.045 36.1114C184.811 36.4301 184.473 36.5825 184.037 36.5825H178.997V42.7211H188.377C188.798 42.7211 189.129 42.8943 189.369 43.2407C189.61 43.5871 189.73 44.0097 189.73 44.4947C189.73 44.9382 189.618 45.34 189.384 45.6864C189.151 46.0328 188.813 46.2061 188.377 46.2061H176.575C176.064 46.2061 175.62 46.0952 175.244 45.8735C174.86 45.6448 174.672 45.34 174.672 44.952Z" fill="#FFF200"/>
<path d="M198.207 33.8666H201.855C204.224 33.8666 205.405 32.7857 205.405 30.631C205.405 28.4555 204.224 27.3677 201.855 27.3677H198.207V33.8666ZM193.897 44.952V25.1091C193.897 24.7834 194.033 24.4993 194.296 24.2569C194.559 24.0144 194.89 23.8896 195.289 23.8896H201.847C207.082 23.8896 209.707 26.0167 209.707 30.2707C209.707 31.9405 209.316 33.2846 208.534 34.303C207.744 35.3215 206.691 36.0144 205.368 36.3816L209.707 43.8019C209.813 43.9266 209.873 44.0859 209.873 44.2938C209.873 44.8065 209.587 45.2776 209.015 45.7141C208.436 46.1506 207.835 46.3723 207.188 46.3723C206.548 46.3723 206.052 46.0605 205.698 45.4231L200.99 36.9982H198.207V44.9659C198.207 45.3538 197.996 45.6587 197.575 45.8804C197.154 46.1021 196.643 46.213 196.048 46.213C195.477 46.213 194.973 46.1021 194.544 45.8804C194.115 45.6448 193.897 45.34 193.897 44.952Z" fill="#FFF200"/>
<path d="M213.258 42.6921C213.258 42.2279 213.453 41.7568 213.837 41.2718C214.22 40.7938 214.657 40.5513 215.145 40.5513C215.431 40.5513 215.762 40.676 216.123 40.9323C216.484 41.1887 216.838 41.4658 217.184 41.7707C217.53 42.0755 218.019 42.3596 218.658 42.609C219.297 42.8654 220.004 42.9901 220.779 42.9901C221.84 42.9901 222.727 42.7683 223.427 42.318C224.134 41.8746 224.487 41.2095 224.487 40.3365C224.487 39.7268 224.299 39.1794 223.908 38.7014C223.517 38.2233 223.013 37.8284 222.381 37.5097C221.749 37.1979 221.065 36.8931 220.313 36.5951C219.561 36.2972 218.808 35.9647 218.041 35.6044C217.282 35.2372 216.582 34.8215 215.958 34.3642C215.326 33.9069 214.815 33.2972 214.431 32.5351C214.047 31.773 213.852 30.9 213.852 29.9231C213.852 28.8284 214.092 27.8584 214.566 27.027C215.04 26.1887 215.679 25.5374 216.477 25.0732C217.274 24.609 218.124 24.2695 219.027 24.0478C219.929 23.833 220.892 23.7222 221.915 23.7222C222.486 23.7222 223.096 23.7568 223.735 23.833C224.374 23.9092 225.051 24.027 225.773 24.1933C226.488 24.3596 227.075 24.6229 227.533 24.9762C227.985 25.3296 228.21 25.7522 228.21 26.2302C228.21 26.6875 228.052 27.1517 227.744 27.6367C227.436 28.1217 227.014 28.3642 226.48 28.3642C226.277 28.3642 225.743 28.1702 224.856 27.7822C223.968 27.3942 222.99 27.2002 221.907 27.2002C220.711 27.2002 219.786 27.4081 219.139 27.8238C218.485 28.2395 218.162 28.8145 218.162 29.5489C218.162 30.1379 218.425 30.6575 218.951 31.094C219.485 31.5305 220.14 31.8838 220.922 32.161C221.704 32.4312 222.554 32.7776 223.472 33.2002C224.389 33.6159 225.239 34.0663 226.029 34.5582C226.811 35.0432 227.473 35.7499 228 36.6783C228.534 37.6067 228.797 38.6875 228.797 39.9277C228.797 42.0132 228.075 43.6275 226.623 44.7637C225.172 45.9 223.269 46.4612 220.907 46.4612C218.808 46.4612 217.003 46.0663 215.506 45.2695C214.01 44.4935 213.258 43.6275 213.258 42.6921Z" fill="#FFF200"/>
<path d="M237.447 39.395C237.447 41.7368 238.598 42.9077 240.899 42.9077C243.216 42.9077 244.382 41.7368 244.382 39.395V30.8731C244.382 28.5382 243.223 27.3604 240.899 27.3604C238.598 27.3604 237.447 28.5313 237.447 30.8731V39.395ZM233.145 39.395V30.8731C233.145 28.4551 233.844 26.6814 235.251 25.559C236.657 24.4435 238.538 23.8823 240.899 23.8823C243.261 23.8823 245.149 24.4435 246.571 25.559C247.985 26.6814 248.692 28.4481 248.692 30.8731V39.395C248.692 41.82 247.985 43.5867 246.571 44.7091C245.157 45.8315 243.269 46.3927 240.899 46.3927C238.538 46.3927 236.65 45.8315 235.251 44.7091C233.844 43.5867 233.145 41.82 233.145 39.395Z" fill="#FFF200"/>
<path d="M258.334 33.8666H261.982C264.344 33.8666 265.525 32.7857 265.525 30.631C265.525 28.4555 264.344 27.3677 261.982 27.3677H258.334V33.8666ZM254.024 44.952V25.1091C254.024 24.7834 254.16 24.4993 254.423 24.2569C254.686 24.0144 255.017 23.8896 255.416 23.8896H261.982C267.217 23.8896 269.835 26.0167 269.835 30.2707C269.835 31.9405 269.444 33.2846 268.661 34.303C267.879 35.3215 266.819 36.0144 265.495 36.3816L269.835 43.8019C269.947 43.9266 270 44.0859 270 44.2938C270 44.8065 269.714 45.2776 269.135 45.7141C268.564 46.1506 267.954 46.3723 267.315 46.3723C266.676 46.3723 266.179 46.0605 265.826 45.4231L261.117 36.9982H258.334V44.9659C258.334 45.3538 258.124 45.6587 257.702 45.8804C257.281 46.1021 256.777 46.213 256.176 46.213C255.604 46.213 255.1 46.1021 254.671 45.8804C254.243 45.6448 254.024 45.34 254.024 44.952Z" fill="#FFF200"/>
</svg>
