<svg width="34" height="34" viewBox="0 0 34 34" fill="none" xmlns="http://www.w3.org/2000/svg">
<path d="M17.3536 13.3419C15.1326 13.3419 13.3401 15.1344 13.3401 17.3554C13.3401 19.5765 15.1326 21.369 17.3536 21.369C19.5746 21.369 21.367 19.5765 21.367 17.3554C21.367 15.1344 19.5746 13.3419 17.3536 13.3419ZM17.3536 19.9639C15.9172 19.9639 14.7451 18.7918 14.7451 17.3554C14.7451 15.9191 15.9172 14.7469 17.3536 14.7469C18.7899 14.7469 19.962 15.9191 19.962 17.3554C19.962 18.7918 18.7899 19.9639 17.3536 19.9639ZM21.5314 12.2421C21.0129 12.2421 20.5941 12.6609 20.5941 13.1794C20.5941 13.698 21.0129 14.1168 21.5314 14.1168C22.05 14.1168 22.4688 13.7 22.4688 13.1794C22.4689 13.0563 22.4448 12.9344 22.3977 12.8206C22.3507 12.7068 22.2816 12.6034 22.1946 12.5163C22.1075 12.4292 22.0041 12.3602 21.8903 12.3131C21.7765 12.2661 21.6546 12.2419 21.5314 12.2421ZM25.177 17.3554C25.177 16.2752 25.1868 15.2048 25.1261 14.1266C25.0655 12.8742 24.7798 11.7627 23.864 10.8468C22.9462 9.92907 21.8367 9.64533 20.5843 9.58466C19.5041 9.524 18.4337 9.53379 17.3555 9.53379C16.2753 9.53379 15.205 9.524 14.1267 9.58466C12.8744 9.64533 11.7629 9.93103 10.8471 10.8468C9.92931 11.7646 9.64557 12.8742 9.58491 14.1266C9.52425 15.2068 9.53403 16.2772 9.53403 17.3554C9.53403 18.4337 9.52425 19.506 9.58491 20.5843C9.64557 21.8367 9.93127 22.9482 10.8471 23.864C11.7648 24.7818 12.8744 25.0655 14.1267 25.1262C15.2069 25.1868 16.2773 25.1771 17.3555 25.1771C18.4357 25.1771 19.5061 25.1868 20.5843 25.1262C21.8367 25.0655 22.9482 24.7798 23.864 23.864C24.7817 22.9462 25.0655 21.8367 25.1261 20.5843C25.1888 19.506 25.177 18.4356 25.177 17.3554ZM23.455 21.9697C23.3121 22.3259 23.1399 22.592 22.864 22.866C22.5881 23.1419 22.3239 23.3141 21.9678 23.457C20.9385 23.866 18.4944 23.774 17.3536 23.774C16.2127 23.774 13.7667 23.866 12.7374 23.4589C12.3812 23.3161 12.1151 23.1439 11.8411 22.8679C11.5652 22.592 11.393 22.3279 11.2502 21.9717C10.8432 20.9404 10.9351 18.4963 10.9351 17.3554C10.9351 16.2146 10.8432 13.7685 11.2502 12.7392C11.393 12.383 11.5652 12.1169 11.8411 11.8429C12.1171 11.5689 12.3812 11.3948 12.7374 11.2519C13.7667 10.8449 16.2127 10.9369 17.3536 10.9369C18.4944 10.9369 20.9405 10.8449 21.9698 11.2519C22.3259 11.3948 22.592 11.567 22.866 11.8429C23.1419 12.1188 23.3141 12.383 23.457 12.7392C23.864 13.7685 23.772 16.2146 23.772 17.3554C23.772 18.4963 23.864 20.9404 23.455 21.9697Z" fill="#DDDDDD"/>
<circle cx="17" cy="17" r="16" stroke="#DDDDDD"/>
</svg>
