<svg width="32" height="32" viewBox="0 0 32 32" fill="none" xmlns="http://www.w3.org/2000/svg">
<path d="M16.1599 2.87988C12.2074 2.87988 8.99283 6.07004 8.99283 9.98694C8.99283 12.4513 9.89624 14.6625 11.4153 16.8936C11.5145 17.0431 11.687 17.1289 11.8675 17.1169C12.048 17.1049 12.2074 16.9973 12.2856 16.8358C12.3638 16.6733 12.3488 16.4819 12.2455 16.3343C10.7946 14.2039 9.9955 12.2101 9.9955 9.98694C9.9955 6.61137 12.7488 3.8768 16.1599 3.8768C19.572 3.8768 22.3253 6.61037 22.3253 9.98694C22.3253 12.8252 21.0158 15.3055 18.7277 18.1338L16.1599 21.307L13.5931 18.1338C13.4978 18.0141 13.3544 17.9434 13.201 17.9434C13.0065 17.9414 12.829 18.053 12.7448 18.2275C12.6616 18.4019 12.6877 18.6093 12.811 18.7588L15.6696 22.2889C15.7638 23.1563 16.5128 23.8411 17.4112 23.8411H18.455H21.9292C22.3534 23.8411 22.6772 24.1641 22.6772 24.5809C22.6772 24.5809 22.6772 24.5809 22.6772 24.5819C22.6772 24.5819 22.6772 24.5818 22.6772 24.5828C22.6772 24.9996 22.3534 25.3246 21.9292 25.3246H15.9985C15.9834 25.3236 15.9684 25.3226 15.9523 25.3226H10.3905C9.44102 25.3226 8.65995 26.0872 8.64089 27.0263C8.64089 27.0353 8.63989 27.0452 8.63989 27.0542C8.63989 27.0562 8.63989 27.0592 8.63989 27.0612V27.0622V27.0632C8.63989 28.0053 9.40894 28.7789 10.3534 28.7988C10.3665 28.7998 10.3785 28.7998 10.3905 28.7998H15.9523C16.1338 28.8028 16.3013 28.7081 16.3925 28.5526C16.4838 28.3981 16.4838 28.2057 16.3925 28.0501C16.3013 27.8946 16.1338 27.8009 15.9523 27.8029H10.3905C9.96642 27.8029 9.64256 27.4799 9.64256 27.0632C9.64256 27.0632 9.64256 27.0632 9.64256 27.0622C9.64256 27.0622 9.64256 27.0622 9.64256 27.0612C9.64256 26.6445 9.96642 26.3195 10.3905 26.3195H15.9062C15.9213 26.3205 15.9373 26.3215 15.9523 26.3215H21.9292C22.8798 26.3215 23.6608 25.5558 23.6789 24.6167C23.6799 24.6088 23.6799 24.5998 23.6799 24.5908C23.6799 24.5878 23.6799 24.5858 23.6799 24.5828V24.5819V24.5809C23.6799 23.6258 22.8908 22.8442 21.9292 22.8442H18.455H17.4112C17.0412 22.8442 16.7465 22.596 16.6773 22.256L19.5088 18.7588C21.8601 15.8528 23.328 13.1322 23.328 9.98694C23.328 6.06904 20.1124 2.87988 16.1599 2.87988ZM16.1599 5.74005C13.7996 5.74005 11.8735 7.64816 11.8735 9.99093C11.8735 12.3337 13.7996 14.2438 16.1599 14.2438C18.5212 14.2438 20.4473 12.3337 20.4473 9.99093C20.4473 9.22828 20.2417 8.50949 19.8848 7.89041C19.7936 7.72691 19.6181 7.62722 19.4306 7.6332C19.2531 7.63919 19.0927 7.73689 19.0075 7.89141C18.9222 8.04593 18.9252 8.23335 19.0155 8.38488C19.2882 8.85742 19.4446 9.40474 19.4446 9.99093C19.4446 11.7934 17.9807 13.2469 16.1599 13.2469C14.3401 13.2469 12.8762 11.7934 12.8762 9.99093C12.8762 8.1885 14.3401 6.73697 16.1599 6.73697C16.7304 6.73697 17.2418 6.85261 17.6819 7.10383C17.8374 7.19455 18.0299 7.19557 18.1863 7.10584C18.3427 7.01712 18.439 6.85063 18.438 6.67118C18.4369 6.49173 18.3387 6.32624 18.1813 6.23851C17.5646 5.8876 16.8688 5.74005 16.1599 5.74005Z" fill="white"/>
</svg>
