<svg width="32" height="32" viewBox="0 0 32 32" fill="none" xmlns="http://www.w3.org/2000/svg">
<path d="M30.0777 8.77806C30.0768 8.76078 30.0752 8.7435 30.0723 8.72622C30.0701 8.71086 30.0669 8.69614 30.0633 8.68142C30.0595 8.6667 30.055 8.6523 30.0499 8.63758C30.0438 8.62126 30.0371 8.60526 30.0298 8.5899C30.0262 8.58318 30.0246 8.57614 30.0211 8.56942C30.0176 8.56334 30.0131 8.55854 30.0096 8.55246C30.0006 8.53774 29.9907 8.52334 29.9802 8.50958C29.9712 8.49774 29.9619 8.48654 29.952 8.47566C29.9411 8.46382 29.9299 8.45294 29.9177 8.44238C29.9065 8.43246 29.8953 8.42254 29.8832 8.41358C29.8704 8.4043 29.8566 8.39598 29.8429 8.38766C29.8304 8.3803 29.8176 8.37294 29.8041 8.36654C29.7897 8.35982 29.7747 8.35406 29.7593 8.34862C29.7453 8.3435 29.7309 8.33902 29.7161 8.33518C29.7014 8.33134 29.6864 8.32878 29.6713 8.32654C29.6544 8.32398 29.6378 8.32206 29.6205 8.32142C29.6134 8.32142 29.6067 8.31982 29.6 8.31982H2.71999C2.71327 8.31982 2.70655 8.32142 2.69983 8.32174C2.68223 8.32238 2.66527 8.3243 2.64767 8.32718C2.63327 8.32942 2.61887 8.33198 2.60447 8.33518C2.58911 8.33902 2.57407 8.34382 2.55903 8.34926C2.54463 8.35438 2.53055 8.35982 2.51679 8.36622C2.50271 8.37294 2.48927 8.3803 2.47583 8.3883C2.46271 8.39598 2.44991 8.40398 2.43775 8.41294C2.42495 8.4219 2.41343 8.43214 2.40159 8.4427C2.39007 8.45326 2.37887 8.46382 2.36799 8.47534C2.35807 8.48622 2.34879 8.49774 2.33983 8.50958C2.32927 8.52334 2.31967 8.53742 2.31039 8.55246C2.30687 8.55854 2.30239 8.56302 2.29887 8.5691C2.29535 8.57582 2.29343 8.58254 2.29023 8.58926C2.28255 8.60494 2.27583 8.62126 2.26975 8.63758C2.26463 8.65166 2.26015 8.66606 2.25631 8.68046C2.25247 8.6955 2.24959 8.71086 2.24703 8.72654C2.24447 8.7435 2.24287 8.76014 2.24191 8.7771C2.24191 8.78478 2.23999 8.79214 2.23999 8.79982V23.5198C2.23999 23.7848 2.45471 23.9998 2.71999 23.9998H29.6C29.865 23.9998 30.08 23.7848 30.08 23.5198V8.79982C30.08 8.79246 30.0781 8.78542 30.0777 8.77806ZM29.12 22.4011L24.6195 17.9003C24.432 17.7128 24.1283 17.7128 23.9408 17.9003C23.7533 18.0878 23.7533 18.3915 23.9408 18.579L28.4013 23.0398H3.87871L8.33919 18.5793C8.52671 18.3918 8.52671 18.0881 8.33919 17.9006C8.15167 17.7131 7.84799 17.7131 7.66047 17.9006L3.19999 22.3611V9.61006L15.9293 16.5809C16.0013 16.62 16.0806 16.6398 16.16 16.6398C16.2394 16.6398 16.3187 16.62 16.3907 16.5806L29.12 9.61006V22.4011ZM4.59583 9.27982H27.7241L16.16 15.6126L4.59583 9.27982Z" fill="white"/>
<path d="M10.03 15.5055L8.78572 16.7502C8.59128 16.9447 8.59128 17.2597 8.78572 17.4542C8.88294 17.5514 9.01035 17.5999 9.13776 17.5999C9.26517 17.5999 9.39259 17.5514 9.48981 17.4542L10.7341 16.2095C10.9285 16.0153 10.9285 15.6997 10.7341 15.5055C10.5393 15.3113 10.2244 15.3113 10.03 15.5055Z" fill="white"/>
<path d="M22.8299 17.4542C22.9271 17.5514 23.0546 17.5999 23.182 17.5999C23.3094 17.5999 23.4369 17.5514 23.5341 17.4542C23.7286 17.2597 23.7286 16.9447 23.5341 16.7503L22.2896 15.5057C22.0952 15.3112 21.7803 15.3112 21.5858 15.5057C21.3913 15.6999 21.3913 16.0155 21.5858 16.2096L22.8299 17.4542Z" fill="white"/>
</svg>
